<svg width="537" height="241" viewBox="0 0 537 241" fill="none" xmlns="http://www.w3.org/2000/svg">
    <path
        d="M15.68 24.52V36.36H36.416V44.68H15.68V61H5.312V16.2H39.168V24.52H15.68ZM60.992 61.512C57.3653 61.512 54.1013 60.7653 51.2 59.272C48.3413 57.736 46.1013 55.624 44.48 52.936C42.8587 50.248 42.048 47.1973 42.048 43.784C42.048 40.3707 42.8587 37.32 44.48 34.632C46.1013 31.944 48.3413 29.8533 51.2 28.36C54.1013 26.824 57.3653 26.056 60.992 26.056C64.6187 26.056 67.8613 26.824 70.72 28.36C73.5787 29.8533 75.8187 31.944 77.44 34.632C79.0613 37.32 79.872 40.3707 79.872 43.784C79.872 47.1973 79.0613 50.248 77.44 52.936C75.8187 55.624 73.5787 57.736 70.72 59.272C67.8613 60.7653 64.6187 61.512 60.992 61.512ZM60.992 53.32C63.552 53.32 65.6427 52.4667 67.264 50.76C68.928 49.0107 69.76 46.6853 69.76 43.784C69.76 40.8827 68.928 38.5787 67.264 36.872C65.6427 35.1227 63.552 34.248 60.992 34.248C58.432 34.248 56.32 35.1227 54.656 36.872C52.992 38.5787 52.16 40.8827 52.16 43.784C52.16 46.6853 52.992 49.0107 54.656 50.76C56.32 52.4667 58.432 53.32 60.992 53.32ZM96.0815 31.112C97.2762 29.448 98.8762 28.1893 100.882 27.336C102.93 26.4827 105.276 26.056 107.922 26.056V35.272C106.812 35.1867 106.066 35.144 105.682 35.144C102.823 35.144 100.583 35.9547 98.9615 37.576C97.3402 39.1547 96.5295 41.544 96.5295 44.744V61H86.5455V26.568H96.0815V31.112ZM147.274 43.912C147.274 44.04 147.21 44.936 147.082 46.6H121.034C121.503 48.7333 122.612 50.4187 124.362 51.656C126.111 52.8933 128.287 53.512 130.89 53.512C132.682 53.512 134.26 53.256 135.626 52.744C137.034 52.1893 138.335 51.336 139.53 50.184L144.842 55.944C141.599 59.656 136.863 61.512 130.634 61.512C126.751 61.512 123.316 60.7653 120.33 59.272C117.343 57.736 115.039 55.624 113.418 52.936C111.796 50.248 110.986 47.1973 110.986 43.784C110.986 40.4133 111.775 37.384 113.354 34.696C114.975 31.9653 117.172 29.8533 119.946 28.36C122.762 26.824 125.898 26.056 129.354 26.056C132.724 26.056 135.775 26.7813 138.506 28.232C141.236 29.6827 143.37 31.7733 144.906 34.504C146.484 37.192 147.274 40.328 147.274 43.912ZM129.418 33.608C127.156 33.608 125.258 34.248 123.722 35.528C122.186 36.808 121.247 38.5573 120.906 40.776H137.866C137.524 38.6 136.586 36.872 135.05 35.592C133.514 34.2693 131.636 33.608 129.418 33.608ZM187.472 26.568L172.944 61H162.64L148.175 26.568H158.48L168.016 49.992L177.872 26.568H187.472ZM224.336 43.912C224.336 44.04 224.272 44.936 224.144 46.6H198.096C198.565 48.7333 199.675 50.4187 201.424 51.656C203.173 52.8933 205.349 53.512 207.952 53.512C209.744 53.512 211.323 53.256 212.688 52.744C214.096 52.1893 215.397 51.336 216.592 50.184L221.904 55.944C218.661 59.656 213.925 61.512 207.696 61.512C203.813 61.512 200.379 60.7653 197.392 59.272C194.405 57.736 192.101 55.624 190.48 52.936C188.859 50.248 188.048 47.1973 188.048 43.784C188.048 40.4133 188.837 37.384 190.416 34.696C192.037 31.9653 194.235 29.8533 197.008 28.36C199.824 26.824 202.96 26.056 206.416 26.056C209.787 26.056 212.837 26.7813 215.568 28.232C218.299 29.6827 220.432 31.7733 221.968 34.504C223.547 37.192 224.336 40.328 224.336 43.912ZM206.48 33.608C204.219 33.608 202.32 34.248 200.784 35.528C199.248 36.808 198.309 38.5573 197.968 40.776H214.928C214.587 38.6 213.648 36.872 212.112 35.592C210.576 34.2693 208.699 33.608 206.48 33.608ZM240.519 31.112C241.714 29.448 243.314 28.1893 245.319 27.336C247.367 26.4827 249.714 26.056 252.359 26.056V35.272C251.25 35.1867 250.503 35.144 250.119 35.144C247.26 35.144 245.02 35.9547 243.399 37.576C241.778 39.1547 240.967 41.544 240.967 44.744V61H230.983V26.568H240.519V31.112ZM292.095 61.768C288.553 61.768 285.119 61.2987 281.791 60.36C278.505 59.3787 275.86 58.12 273.855 56.584L277.375 48.776C279.295 50.184 281.577 51.3147 284.223 52.168C286.868 53.0213 289.513 53.448 292.159 53.448C295.103 53.448 297.279 53.0213 298.687 52.168C300.095 51.272 300.799 50.0987 300.799 48.648C300.799 47.5813 300.372 46.7067 299.519 46.024C298.708 45.2987 297.641 44.7227 296.319 44.296C295.039 43.8693 293.289 43.4 291.071 42.888C287.657 42.0773 284.863 41.2667 282.687 40.456C280.511 39.6453 278.633 38.344 277.055 36.552C275.519 34.76 274.751 32.3707 274.751 29.384C274.751 26.7813 275.455 24.4347 276.863 22.344C278.271 20.2107 280.383 18.5253 283.199 17.288C286.057 16.0507 289.535 15.432 293.631 15.432C296.489 15.432 299.284 15.7733 302.015 16.456C304.745 17.1387 307.135 18.12 309.183 19.4L305.983 27.272C301.844 24.9253 297.705 23.752 293.567 23.752C290.665 23.752 288.511 24.2213 287.103 25.16C285.737 26.0987 285.055 27.336 285.055 28.872C285.055 30.408 285.844 31.56 287.423 32.328C289.044 33.0533 291.497 33.7787 294.783 34.504C298.196 35.3147 300.991 36.1253 303.167 36.936C305.343 37.7467 307.199 39.0267 308.735 40.776C310.313 42.5253 311.103 44.8933 311.103 47.88C311.103 50.44 310.377 52.7867 308.927 54.92C307.519 57.0107 305.385 58.6747 302.527 59.912C299.668 61.1493 296.191 61.768 292.095 61.768ZM339.691 59.336C338.71 60.0613 337.494 60.616 336.043 61C334.635 61.3413 333.142 61.512 331.563 61.512C327.467 61.512 324.288 60.4667 322.027 58.376C319.808 56.2853 318.699 53.2133 318.699 49.16V35.016H313.387V27.336H318.699V18.952H328.683V27.336H337.259V35.016H328.683V49.032C328.683 50.4827 329.046 51.6133 329.771 52.424C330.539 53.192 331.606 53.576 332.971 53.576C334.55 53.576 335.894 53.1493 337.003 52.296L339.691 59.336ZM354.832 31.112C356.026 29.448 357.626 28.1893 359.632 27.336C361.68 26.4827 364.026 26.056 366.672 26.056V35.272C365.562 35.1867 364.816 35.144 364.432 35.144C361.573 35.144 359.333 35.9547 357.712 37.576C356.09 39.1547 355.28 41.544 355.28 44.744V61H345.296V26.568H354.832V31.112ZM388.68 61.512C385.053 61.512 381.789 60.7653 378.888 59.272C376.029 57.736 373.789 55.624 372.168 52.936C370.546 50.248 369.736 47.1973 369.736 43.784C369.736 40.3707 370.546 37.32 372.168 34.632C373.789 31.944 376.029 29.8533 378.888 28.36C381.789 26.824 385.053 26.056 388.68 26.056C392.306 26.056 395.549 26.824 398.408 28.36C401.266 29.8533 403.506 31.944 405.128 34.632C406.749 37.32 407.56 40.3707 407.56 43.784C407.56 47.1973 406.749 50.248 405.128 52.936C403.506 55.624 401.266 57.736 398.408 59.272C395.549 60.7653 392.306 61.512 388.68 61.512ZM388.68 53.32C391.24 53.32 393.33 52.4667 394.952 50.76C396.616 49.0107 397.448 46.6853 397.448 43.784C397.448 40.8827 396.616 38.5787 394.952 36.872C393.33 35.1227 391.24 34.248 388.68 34.248C386.12 34.248 384.008 35.1227 382.344 36.872C380.68 38.5787 379.848 40.8827 379.848 43.784C379.848 46.6853 380.68 49.0107 382.344 50.76C384.008 52.4667 386.12 53.32 388.68 53.32ZM435.161 26.056C439.428 26.056 442.862 27.336 445.465 29.896C448.11 32.456 449.433 36.2533 449.433 41.288V61H439.449V42.824C439.449 40.0933 438.852 38.0667 437.657 36.744C436.462 35.3787 434.734 34.696 432.473 34.696C429.956 34.696 427.95 35.4853 426.457 37.064C424.964 38.6 424.217 40.904 424.217 43.976V61H414.233V26.568H423.769V30.6C425.092 29.1493 426.734 28.04 428.697 27.272C430.66 26.4613 432.814 26.056 435.161 26.056ZM494.378 26.568V55.24C494.378 61.5547 492.735 66.248 489.45 69.32C486.165 72.392 481.365 73.928 475.05 73.928C471.722 73.928 468.565 73.5227 465.578 72.712C462.591 71.9013 460.117 70.728 458.154 69.192L462.122 62.024C463.573 63.2187 465.407 64.1573 467.626 64.84C469.845 65.5653 472.063 65.928 474.282 65.928C477.738 65.928 480.277 65.1387 481.898 63.56C483.562 62.024 484.394 59.6773 484.394 56.52V55.048C481.791 57.9067 478.165 59.336 473.514 59.336C470.357 59.336 467.455 58.6533 464.81 57.288C462.207 55.88 460.138 53.9173 458.602 51.4C457.066 48.8827 456.298 45.9813 456.298 42.696C456.298 39.4107 457.066 36.5093 458.602 33.992C460.138 31.4747 462.207 29.5333 464.81 28.168C467.455 26.76 470.357 26.056 473.514 26.056C478.506 26.056 482.303 27.6987 484.906 30.984V26.568H494.378ZM475.498 51.144C478.143 51.144 480.298 50.376 481.962 48.84C483.669 47.2613 484.522 45.2133 484.522 42.696C484.522 40.1787 483.669 38.152 481.962 36.616C480.298 35.0373 478.143 34.248 475.498 34.248C472.853 34.248 470.677 35.0373 468.97 36.616C467.263 38.152 466.41 40.1787 466.41 42.696C466.41 45.2133 467.263 47.2613 468.97 48.84C470.677 50.376 472.853 51.144 475.498 51.144ZM507.51 49.096C509.303 49.096 510.775 49.672 511.927 50.824C513.079 51.9333 513.655 53.4053 513.655 55.24C513.655 56.0933 513.548 56.9467 513.335 57.8C513.121 58.6533 512.652 59.9333 511.927 61.64L508.279 70.856H501.943L504.759 60.68C503.692 60.2533 502.839 59.5707 502.199 58.632C501.601 57.6507 501.303 56.52 501.303 55.24C501.303 53.4053 501.879 51.9333 503.031 50.824C504.225 49.672 505.719 49.096 507.51 49.096Z"
        fill="white" />
    <path
        d="M15.68 106.52V105.52H14.68V106.52H15.68ZM15.68 118.36H14.68V119.36H15.68V118.36ZM36.416 118.36H37.416V117.36H36.416V118.36ZM36.416 126.68V127.68H37.416V126.68H36.416ZM15.68 126.68V125.68H14.68V126.68H15.68ZM15.68 143V144H16.68V143H15.68ZM5.312 143H4.312V144H5.312V143ZM5.312 98.2V97.2H4.312V98.2H5.312ZM39.168 98.2H40.168V97.2H39.168V98.2ZM39.168 106.52V107.52H40.168V106.52H39.168ZM14.68 106.52V118.36H16.68V106.52H14.68ZM15.68 119.36H36.416V117.36H15.68V119.36ZM35.416 118.36V126.68H37.416V118.36H35.416ZM36.416 125.68H15.68V127.68H36.416V125.68ZM14.68 126.68V143H16.68V126.68H14.68ZM15.68 142H5.312V144H15.68V142ZM6.312 143V98.2H4.312V143H6.312ZM5.312 99.2H39.168V97.2H5.312V99.2ZM38.168 98.2V106.52H40.168V98.2H38.168ZM39.168 105.52H15.68V107.52H39.168V105.52ZM51.2 141.272L50.7267 142.153L50.7345 142.157L50.7424 142.161L51.2 141.272ZM44.48 134.936L43.6237 135.452L44.48 134.936ZM44.48 116.632L43.6237 116.116H43.6237L44.48 116.632ZM51.2 110.36L51.663 111.246L51.6679 111.244L51.2 110.36ZM70.72 110.36L70.2467 111.241L70.257 111.246L70.72 110.36ZM77.44 116.632L78.2963 116.116L77.44 116.632ZM77.44 134.936L78.2963 135.452L77.44 134.936ZM70.72 141.272L71.1831 142.158L71.1933 142.153L70.72 141.272ZM67.264 132.76L66.5394 132.071L66.539 132.071L67.264 132.76ZM67.264 118.872L66.5306 119.552L66.5392 119.561L66.548 119.57L67.264 118.872ZM54.656 118.872L55.3721 119.57L55.3806 119.561L54.656 118.872ZM54.656 132.76L53.9314 133.449L53.94 133.458L54.656 132.76ZM60.992 142.512C57.5065 142.512 54.4022 141.796 51.6576 140.383L50.7424 142.161C53.8004 143.735 57.2241 144.512 60.992 144.512V142.512ZM51.6733 140.391C48.9671 138.937 46.8617 136.949 45.3363 134.42L43.6237 135.452C45.3409 138.299 47.7156 140.535 50.7267 142.153L51.6733 140.391ZM45.3363 134.42C43.8171 131.901 43.048 129.032 43.048 125.784H41.048C41.048 129.363 41.9002 132.595 43.6237 135.452L45.3363 134.42ZM43.048 125.784C43.048 122.536 43.8171 119.667 45.3363 117.148L43.6237 116.116C41.9002 118.973 41.048 122.205 41.048 125.784H43.048ZM45.3363 117.148C46.8602 114.622 48.9622 112.657 51.663 111.246L50.737 109.474C47.7205 111.049 45.3424 113.266 43.6237 116.116L45.3363 117.148ZM51.6679 111.244C54.4104 109.792 57.511 109.056 60.992 109.056V107.056C57.2196 107.056 53.7922 107.856 50.7321 109.476L51.6679 111.244ZM60.992 109.056C64.4732 109.056 67.55 109.792 70.2467 111.241L71.1933 109.479C68.1727 107.856 64.7641 107.056 60.992 107.056V109.056ZM70.257 111.246C72.9578 112.657 75.0598 114.622 76.5837 117.148L78.2963 116.116C76.5776 113.266 74.1995 111.049 71.183 109.474L70.257 111.246ZM76.5837 117.148C78.1029 119.667 78.872 122.536 78.872 125.784H80.872C80.872 122.205 80.0198 118.973 78.2963 116.116L76.5837 117.148ZM78.872 125.784C78.872 129.032 78.1029 131.901 76.5837 134.42L78.2963 135.452C80.0198 132.595 80.872 129.363 80.872 125.784H78.872ZM76.5837 134.42C75.0583 136.949 72.9529 138.937 70.2467 140.391L71.1933 142.153C74.2044 140.535 76.5791 138.299 78.2963 135.452L76.5837 134.42ZM70.257 140.386C67.5582 141.795 64.4777 142.512 60.992 142.512V144.512C64.7596 144.512 68.1644 143.735 71.183 142.158L70.257 140.386ZM60.992 136.32C63.7995 136.32 66.1613 135.373 67.989 133.449L66.539 132.071C65.1241 133.561 63.3045 134.32 60.992 134.32V136.32ZM67.9886 133.449C69.8639 131.478 70.76 128.887 70.76 125.784H68.76C68.76 128.484 67.9921 130.544 66.5394 132.071L67.9886 133.449ZM70.76 125.784C70.76 122.682 69.8641 120.106 67.98 118.174L66.548 119.57C67.9919 121.051 68.76 123.083 68.76 125.784H70.76ZM67.9974 118.192C66.1719 116.223 63.8075 115.248 60.992 115.248V117.248C63.2965 117.248 65.1135 118.023 66.5306 119.552L67.9974 118.192ZM60.992 115.248C58.1766 115.248 55.7966 116.222 53.9314 118.183L55.3806 119.561C56.8434 118.023 58.6874 117.248 60.992 117.248V115.248ZM53.94 118.174C52.0559 120.106 51.16 122.682 51.16 125.784H53.16C53.16 123.083 53.9281 121.051 55.372 119.57L53.94 118.174ZM51.16 125.784C51.16 128.887 52.0561 131.478 53.9314 133.449L55.3806 132.071C53.9279 130.544 53.16 128.484 53.16 125.784H51.16ZM53.94 133.458C55.8071 135.373 58.1846 136.32 60.992 136.32V134.32C58.6795 134.32 56.8329 133.56 55.372 132.062L53.94 133.458ZM96.0815 113.112H95.0815V116.22L96.8938 113.695L96.0815 113.112ZM100.882 109.336L100.497 108.413L100.49 108.416L100.882 109.336ZM107.922 108.056H108.922V107.056H107.922V108.056ZM107.922 117.272L107.845 118.269L108.922 118.352V117.272H107.922ZM98.9615 119.576L99.6592 120.293L99.6686 120.283L98.9615 119.576ZM96.5295 143V144H97.5295V143H96.5295ZM86.5455 143H85.5455V144H86.5455V143ZM86.5455 108.568V107.568H85.5455V108.568H86.5455ZM96.0815 108.568H97.0815V107.568H96.0815V108.568ZM96.8938 113.695C97.9748 112.19 99.425 111.043 101.273 110.256L100.49 108.416C98.3274 109.336 96.5775 110.706 95.2692 112.529L96.8938 113.695ZM101.266 110.259C103.171 109.465 105.383 109.056 107.922 109.056V107.056C105.169 107.056 102.688 107.5 100.497 108.413L101.266 110.259ZM106.922 108.056V117.272H108.922V108.056H106.922ZM107.998 116.275C106.894 116.19 106.11 116.144 105.682 116.144V118.144C106.021 118.144 106.73 118.183 107.845 118.269L107.998 116.275ZM105.682 116.144C102.627 116.144 100.107 117.016 98.2544 118.869L99.6686 120.283C101.059 118.893 103.019 118.144 105.682 118.144V116.144ZM98.2639 118.86C96.3808 120.693 95.5295 123.388 95.5295 126.744H97.5295C97.5295 123.7 98.2996 121.616 99.6591 120.292L98.2639 118.86ZM95.5295 126.744V143H97.5295V126.744H95.5295ZM96.5295 142H86.5455V144H96.5295V142ZM87.5455 143V108.568H85.5455V143H87.5455ZM86.5455 109.568H96.0815V107.568H86.5455V109.568ZM95.0815 108.568V113.112H97.0815V108.568H95.0815ZM147.081 128.6V129.6H148.008L148.079 128.677L147.081 128.6ZM121.034 128.6V127.6H119.79L120.057 128.815L121.034 128.6ZM124.362 133.656L124.939 132.84L124.362 133.656ZM135.626 134.744L135.977 135.68L135.984 135.677L135.992 135.674L135.626 134.744ZM139.529 132.184L140.265 131.506L139.571 130.754L138.835 131.464L139.529 132.184ZM144.842 137.944L145.595 138.602L146.185 137.926L145.577 137.266L144.842 137.944ZM120.329 141.272L119.872 142.161L119.882 142.166L120.329 141.272ZM113.418 134.936L112.561 135.452L113.418 134.936ZM113.354 116.696L112.494 116.185L112.491 116.19L113.354 116.696ZM119.946 110.36L120.42 111.24L120.424 111.238L119.946 110.36ZM138.505 110.232L138.975 109.349L138.505 110.232ZM144.906 116.504L144.034 116.994L144.038 117.002L144.043 117.01L144.906 116.504ZM123.721 117.528L123.081 116.76L123.721 117.528ZM120.906 122.776L119.917 122.624L119.74 123.776H120.906V122.776ZM137.866 122.776V123.776H139.035L138.853 122.621L137.866 122.776ZM135.049 117.592L134.397 118.35L134.403 118.355L134.409 118.36L135.049 117.592ZM146.273 125.912C146.273 125.906 146.272 125.95 146.263 126.09C146.256 126.213 146.244 126.386 146.228 126.609C146.196 127.054 146.148 127.692 146.084 128.523L148.079 128.677C148.204 127.05 148.273 126.091 148.273 125.912H146.273ZM147.081 127.6H121.034V129.6H147.081V127.6ZM120.057 128.815C120.579 131.186 121.827 133.088 123.784 134.472L124.939 132.84C123.397 131.749 122.427 130.28 122.01 128.385L120.057 128.815ZM123.784 134.472C125.736 135.853 128.125 136.512 130.889 136.512V134.512C128.449 134.512 126.486 133.934 124.939 132.84L123.784 134.472ZM130.889 136.512C132.775 136.512 134.477 136.243 135.977 135.68L135.274 133.808C134.044 134.269 132.588 134.512 130.889 134.512V136.512ZM135.992 135.674C137.533 135.067 138.944 134.138 140.224 132.904L138.835 131.464C137.726 132.534 136.534 133.311 135.259 133.814L135.992 135.674ZM138.794 132.862L144.106 138.622L145.577 137.266L140.265 131.506L138.794 132.862ZM144.088 137.286C141.084 140.726 136.656 142.512 130.633 142.512V144.512C137.07 144.512 142.114 142.586 145.595 138.602L144.088 137.286ZM130.633 142.512C126.881 142.512 123.604 141.791 120.777 140.378L119.882 142.166C123.029 143.74 126.621 144.512 130.633 144.512V142.512ZM120.787 140.383C117.953 138.925 115.793 136.937 114.274 134.42L112.561 135.452C114.285 138.311 116.733 140.547 119.872 142.161L120.787 140.383ZM114.274 134.42C112.755 131.901 111.985 129.032 111.985 125.784H109.985C109.985 129.363 110.838 132.595 112.561 135.452L114.274 134.42ZM111.985 125.784C111.985 122.576 112.735 119.724 114.216 117.202L112.491 116.19C110.815 119.044 109.985 122.25 109.985 125.784H111.985ZM114.213 117.207C115.743 114.631 117.807 112.647 120.42 111.24L119.471 109.48C116.537 111.06 114.207 113.3 112.494 116.185L114.213 117.207ZM120.424 111.238C123.082 109.788 126.051 109.056 129.354 109.056V107.056C125.743 107.056 122.441 107.86 119.467 109.482L120.424 111.238ZM129.354 109.056C132.576 109.056 135.463 109.748 138.036 111.115L138.975 109.349C136.087 107.815 132.873 107.056 129.354 107.056V109.056ZM138.036 111.115C140.596 112.475 142.59 114.428 144.034 116.994L145.777 116.014C144.149 113.119 141.877 110.891 138.975 109.349L138.036 111.115ZM144.043 117.01C145.519 119.523 146.273 122.479 146.273 125.912H148.273C148.273 122.177 147.449 118.861 145.768 115.998L144.043 117.01ZM129.417 114.608C126.955 114.608 124.821 115.31 123.081 116.76L124.362 118.296C125.694 117.186 127.358 116.608 129.417 116.608V114.608ZM123.081 116.76C121.335 118.215 120.291 120.196 119.917 122.624L121.894 122.928C122.203 120.919 123.036 119.401 124.362 118.296L123.081 116.76ZM120.906 123.776H137.866V121.776H120.906V123.776ZM138.853 122.621C138.479 120.231 137.432 118.275 135.69 116.824L134.409 118.36C135.739 119.469 136.57 120.969 136.878 122.931L138.853 122.621ZM135.702 116.834C133.967 115.34 131.851 114.608 129.417 114.608V116.608C131.421 116.608 133.06 117.199 134.397 118.35L135.702 116.834ZM187.471 108.568L188.393 108.957L188.979 107.568H187.471V108.568ZM172.943 143V144H173.607L173.865 143.389L172.943 143ZM162.639 143L161.718 143.387L161.975 144H162.639V143ZM148.176 108.568V107.568H146.671L147.254 108.955L148.176 108.568ZM158.48 108.568L159.406 108.191L159.152 107.568H158.48V108.568ZM168.016 131.992L167.089 132.369L168 134.607L168.937 132.38L168.016 131.992ZM177.872 108.568V107.568H177.207L176.95 108.18L177.872 108.568ZM186.55 108.179L172.022 142.611L173.865 143.389L188.393 108.957L186.55 108.179ZM172.943 142H162.639V144H172.943V142ZM163.561 142.613L149.097 108.181L147.254 108.955L161.718 143.387L163.561 142.613ZM148.176 109.568H158.48V107.568H148.176V109.568ZM157.553 108.945L167.089 132.369L168.942 131.615L159.406 108.191L157.553 108.945ZM168.937 132.38L178.793 108.956L176.95 108.18L167.094 131.604L168.937 132.38ZM177.872 109.568H187.471V107.568H177.872V109.568ZM224.144 128.6V129.6H225.07L225.141 128.677L224.144 128.6ZM198.096 128.6V127.6H196.852L197.119 128.815L198.096 128.6ZM201.424 133.656L202.001 132.84L201.424 133.656ZM212.688 134.744L213.039 135.68L213.047 135.677L213.055 135.674L212.688 134.744ZM216.592 132.184L217.327 131.506L216.634 130.754L215.898 131.464L216.592 132.184ZM221.904 137.944L222.657 138.602L223.248 137.926L222.639 137.266L221.904 137.944ZM197.392 141.272L196.935 142.161L196.945 142.166L197.392 141.272ZM190.48 134.936L189.624 135.452L190.48 134.936ZM190.416 116.696L189.556 116.185L189.554 116.19L190.416 116.696ZM197.008 110.36L197.482 111.24L197.487 111.238L197.008 110.36ZM215.568 110.232L216.037 109.349L215.568 110.232ZM221.968 116.504L221.096 116.994L221.101 117.002L221.106 117.01L221.968 116.504ZM200.784 117.528L200.144 116.76L200.784 117.528ZM197.968 122.776L196.98 122.624L196.802 123.776H197.968V122.776ZM214.928 122.776V123.776H216.097L215.916 122.621L214.928 122.776ZM212.112 117.592L211.459 118.35L211.466 118.355L211.472 118.36L212.112 117.592ZM223.336 125.912C223.336 125.906 223.335 125.95 223.326 126.09C223.318 126.213 223.306 126.386 223.291 126.609C223.259 127.054 223.211 127.692 223.147 128.523L225.141 128.677C225.266 127.05 225.336 126.091 225.336 125.912H223.336ZM224.144 127.6H198.096V129.6H224.144V127.6ZM197.119 128.815C197.641 131.186 198.89 133.088 200.847 134.472L202.001 132.84C200.46 131.749 199.49 130.28 199.073 128.385L197.119 128.815ZM200.847 134.472C202.798 135.853 205.188 136.512 207.952 136.512V134.512C205.511 134.512 203.548 133.934 202.001 132.84L200.847 134.472ZM207.952 136.512C209.837 136.512 211.539 136.243 213.039 135.68L212.337 133.808C211.106 134.269 209.651 134.512 207.952 134.512V136.512ZM213.055 135.674C214.596 135.067 216.006 134.138 217.286 132.904L215.898 131.464C214.788 132.534 213.596 133.311 212.321 133.814L213.055 135.674ZM215.857 132.862L221.169 138.622L222.639 137.266L217.327 131.506L215.857 132.862ZM221.151 137.286C218.146 140.726 213.719 142.512 207.696 142.512V144.512C214.132 144.512 219.177 142.586 222.657 138.602L221.151 137.286ZM207.696 142.512C203.943 142.512 200.666 141.791 197.839 140.378L196.945 142.166C200.091 143.74 203.683 144.512 207.696 144.512V142.512ZM197.849 140.383C195.016 138.925 192.855 136.937 191.336 134.42L189.624 135.452C191.348 138.311 193.795 140.547 196.935 142.161L197.849 140.383ZM191.336 134.42C189.817 131.901 189.048 129.032 189.048 125.784H187.048C187.048 129.363 187.9 132.595 189.624 135.452L191.336 134.42ZM189.048 125.784C189.048 122.576 189.797 119.724 191.278 117.202L189.554 116.19C187.878 119.044 187.048 122.25 187.048 125.784H189.048ZM191.276 117.207C192.805 114.631 194.87 112.647 197.482 111.24L196.534 109.48C193.599 111.06 191.269 113.3 189.556 116.185L191.276 117.207ZM197.487 111.238C200.145 109.788 203.114 109.056 206.416 109.056V107.056C202.806 107.056 199.503 107.86 196.529 109.482L197.487 111.238ZM206.416 109.056C209.638 109.056 212.525 109.748 215.099 111.115L216.037 109.349C213.149 107.815 209.935 107.056 206.416 107.056V109.056ZM215.099 111.115C217.658 112.475 219.653 114.428 221.096 116.994L222.84 116.014C221.211 113.119 218.939 110.891 216.037 109.349L215.099 111.115ZM221.106 117.01C222.581 119.523 223.336 122.479 223.336 125.912H225.336C225.336 122.177 224.512 118.861 222.83 115.998L221.106 117.01ZM206.48 114.608C204.017 114.608 201.883 115.31 200.144 116.76L201.424 118.296C202.757 117.186 204.42 116.608 206.48 116.608V114.608ZM200.144 116.76C198.397 118.215 197.353 120.196 196.98 122.624L198.956 122.928C199.266 120.919 200.099 119.401 201.424 118.296L200.144 116.76ZM197.968 123.776H214.928V121.776H197.968V123.776ZM215.916 122.621C215.541 120.231 214.494 118.275 212.752 116.824L211.472 118.36C212.802 119.469 213.632 120.969 213.94 122.931L215.916 122.621ZM212.765 116.834C211.029 115.34 208.914 114.608 206.48 114.608V116.608C208.484 116.608 210.123 117.199 211.459 118.35L212.765 116.834ZM240.519 113.112H239.519V116.22L241.331 113.695L240.519 113.112ZM245.319 109.336L244.934 108.413L244.927 108.416L245.319 109.336ZM252.359 108.056H253.359V107.056H252.359V108.056ZM252.359 117.272L252.282 118.269L253.359 118.352V117.272H252.359ZM243.399 119.576L244.097 120.293L244.106 120.283L243.399 119.576ZM240.967 143V144H241.967V143H240.967ZM230.983 143H229.983V144H230.983V143ZM230.983 108.568V107.568H229.983V108.568H230.983ZM240.519 108.568H241.519V107.568H240.519V108.568ZM241.331 113.695C242.412 112.19 243.862 111.043 245.711 110.256L244.927 108.416C242.765 109.336 241.015 110.706 239.707 112.529L241.331 113.695ZM245.704 110.259C247.609 109.465 249.821 109.056 252.359 109.056V107.056C249.607 107.056 247.125 107.5 244.934 108.413L245.704 110.259ZM251.359 108.056V117.272H253.359V108.056H251.359ZM252.436 116.275C251.332 116.19 250.547 116.144 250.119 116.144V118.144C250.459 118.144 251.168 118.183 252.282 118.269L252.436 116.275ZM250.119 116.144C247.064 116.144 244.545 117.016 242.692 118.869L244.106 120.283C245.496 118.893 247.456 118.144 250.119 118.144V116.144ZM242.701 118.86C240.818 120.693 239.967 123.388 239.967 126.744H241.967C241.967 123.7 242.737 121.616 244.097 120.292L242.701 118.86ZM239.967 126.744V143H241.967V126.744H239.967ZM240.967 142H230.983V144H240.967V142ZM231.983 143V108.568H229.983V143H231.983ZM230.983 109.568H240.519V107.568H230.983V109.568ZM239.519 108.568V113.112H241.519V108.568H239.519ZM307.07 100.184L306.656 101.094L306.661 101.096L307.07 100.184ZM313.854 123.096L314.693 123.64L314.698 123.634L313.854 123.096ZM307.07 128.728L307.474 129.643L307.48 129.64L307.07 128.728ZM287.742 130.648V129.648H286.742V130.648H287.742ZM287.742 143V144H288.742V143H287.742ZM277.375 143H276.375V144H277.375V143ZM277.375 98.2V97.2H276.375V98.2H277.375ZM303.294 120.216L303.927 120.991L303.933 120.986L303.939 120.981L303.294 120.216ZM303.294 108.696L302.65 109.461L302.656 109.466L302.662 109.471L303.294 108.696ZM287.742 106.648V105.648H286.742V106.648H287.742ZM287.742 122.2H286.742V123.2H287.742V122.2ZM296.767 99.2C300.625 99.2 303.912 99.8433 306.656 101.094L307.485 99.2741C304.426 97.8794 300.844 97.2 296.767 97.2V99.2ZM306.661 101.096C309.45 102.349 311.553 104.108 313.016 106.36L314.693 105.272C312.998 102.66 310.579 100.664 307.48 99.2718L306.661 101.096ZM313.016 106.36C314.474 108.607 315.223 111.292 315.223 114.456H317.223C317.223 110.964 316.392 107.889 314.693 105.272L313.016 106.36ZM315.223 114.456C315.223 117.574 314.476 120.263 313.011 122.558L314.698 123.634C316.391 120.98 317.223 117.908 317.223 114.456H315.223ZM313.016 122.552C311.553 124.804 309.45 126.563 306.661 127.816L307.48 129.64C310.579 128.248 312.998 126.252 314.693 123.64L313.016 122.552ZM306.667 127.813C303.92 129.025 300.629 129.648 296.767 129.648V131.648C300.84 131.648 304.418 130.991 307.474 129.643L306.667 127.813ZM296.767 129.648H287.742V131.648H296.767V129.648ZM286.742 130.648V143H288.742V130.648H286.742ZM287.742 142H277.375V144H287.742V142ZM278.375 143V98.2H276.375V143H278.375ZM277.375 99.2H296.767V97.2H277.375V99.2ZM296.19 123.2C299.427 123.2 302.058 122.515 303.927 120.991L302.662 119.441C301.289 120.562 299.183 121.2 296.19 121.2V123.2ZM303.939 120.981C305.824 119.393 306.727 117.171 306.727 114.456H304.727C304.727 116.691 304.007 118.308 302.65 119.451L303.939 120.981ZM306.727 114.456C306.727 111.706 305.828 109.473 303.927 107.921L302.662 109.471C304.003 110.565 304.727 112.172 304.727 114.456H306.727ZM303.939 107.931C302.069 106.357 299.433 105.648 296.19 105.648V107.648C299.177 107.648 301.277 108.305 302.65 109.461L303.939 107.931ZM296.19 105.648H287.742V107.648H296.19V105.648ZM286.742 106.648V122.2H288.742V106.648H286.742ZM287.742 123.2H296.19V121.2H287.742V123.2ZM332.457 113.112H331.457V116.22L333.269 113.695L332.457 113.112ZM337.257 109.336L336.872 108.413L336.865 108.416L337.257 109.336ZM344.297 108.056H345.297V107.056H344.297V108.056ZM344.297 117.272L344.22 118.269L345.297 118.352V117.272H344.297ZM335.336 119.576L336.034 120.293L336.044 120.283L335.336 119.576ZM332.905 143V144H333.905V143H332.905ZM322.921 143H321.921V144H322.921V143ZM322.921 108.568V107.568H321.921V108.568H322.921ZM332.457 108.568H333.457V107.568H332.457V108.568ZM333.269 113.695C334.35 112.19 335.8 111.043 337.648 110.256L336.865 108.416C334.702 109.336 332.953 110.706 331.644 112.529L333.269 113.695ZM337.641 110.259C339.546 109.465 341.758 109.056 344.297 109.056V107.056C341.544 107.056 339.063 107.5 336.872 108.413L337.641 110.259ZM343.297 108.056V117.272H345.297V108.056H343.297ZM344.373 116.275C343.269 116.19 342.485 116.144 342.056 116.144V118.144C342.396 118.144 343.105 118.183 344.22 118.269L344.373 116.275ZM342.056 116.144C339.002 116.144 336.482 117.016 334.629 118.869L336.044 120.283C337.434 118.893 339.394 118.144 342.056 118.144V116.144ZM334.639 118.86C332.756 120.693 331.905 123.388 331.905 126.744H333.905C333.905 123.7 334.675 121.616 336.034 120.292L334.639 118.86ZM331.905 126.744V143H333.905V126.744H331.905ZM332.905 142H322.921V144H332.905V142ZM323.921 143V108.568H321.921V143H323.921ZM322.921 109.568H332.457V107.568H322.921V109.568ZM331.457 108.568V113.112H333.457V108.568H331.457ZM356.513 141.272L356.039 142.153L356.047 142.157L356.055 142.161L356.513 141.272ZM349.793 134.936L348.936 135.452L349.793 134.936ZM349.793 116.632L348.936 116.116L349.793 116.632ZM356.513 110.36L356.976 111.246L356.98 111.244L356.513 110.36ZM376.033 110.36L375.559 111.241L375.569 111.246L376.033 110.36ZM382.753 116.632L383.609 116.116L382.753 116.632ZM382.753 134.936L383.609 135.452L382.753 134.936ZM376.033 141.272L376.496 142.158L376.506 142.153L376.033 141.272ZM372.577 132.76L371.852 132.071L371.852 132.071L372.577 132.76ZM372.577 118.872L371.843 119.552L371.852 119.561L371.861 119.57L372.577 118.872ZM359.969 118.872L360.685 119.57L360.693 119.561L359.969 118.872ZM359.969 132.76L359.244 133.449L359.253 133.458L359.969 132.76ZM366.305 142.512C362.819 142.512 359.715 141.796 356.97 140.383L356.055 142.161C359.113 143.735 362.537 144.512 366.305 144.512V142.512ZM356.986 140.391C354.28 138.937 352.174 136.949 350.649 134.42L348.936 135.452C350.653 138.299 353.028 140.535 356.039 142.153L356.986 140.391ZM350.649 134.42C349.13 131.901 348.361 129.032 348.361 125.784H346.361C346.361 129.363 347.213 132.595 348.936 135.452L350.649 134.42ZM348.361 125.784C348.361 122.536 349.13 119.667 350.649 117.148L348.936 116.116C347.213 118.973 346.361 122.205 346.361 125.784H348.361ZM350.649 117.148C352.173 114.622 354.275 112.657 356.976 111.246L356.049 109.474C353.033 111.049 350.655 113.266 348.936 116.116L350.649 117.148ZM356.98 111.244C359.723 109.792 362.824 109.056 366.305 109.056V107.056C362.532 107.056 359.105 107.856 356.045 109.476L356.98 111.244ZM366.305 109.056C369.786 109.056 372.862 109.792 375.559 111.241L376.506 109.479C373.485 107.856 370.077 107.056 366.305 107.056V109.056ZM375.569 111.246C378.27 112.657 380.372 114.622 381.896 117.148L383.609 116.116C381.89 113.266 379.512 111.049 376.496 109.474L375.569 111.246ZM381.896 117.148C383.415 119.667 384.185 122.536 384.185 125.784H386.185C386.185 122.205 385.332 118.973 383.609 116.116L381.896 117.148ZM384.185 125.784C384.185 129.032 383.415 131.901 381.896 134.42L383.609 135.452C385.332 132.595 386.185 129.363 386.185 125.784H384.185ZM381.896 134.42C380.371 136.949 378.265 138.937 375.559 140.391L376.506 142.153C379.517 140.535 381.892 138.299 383.609 135.452L381.896 134.42ZM375.569 140.386C372.871 141.795 369.79 142.512 366.305 142.512V144.512C370.072 144.512 373.477 143.735 376.496 142.158L375.569 140.386ZM366.305 136.32C369.112 136.32 371.474 135.373 373.302 133.449L371.852 132.071C370.437 133.561 368.617 134.32 366.305 134.32V136.32ZM373.301 133.449C375.176 131.478 376.073 128.887 376.073 125.784H374.073C374.073 128.484 373.305 130.544 371.852 132.071L373.301 133.449ZM376.073 125.784C376.073 122.682 375.177 120.106 373.293 118.174L371.861 119.57C373.304 121.051 374.073 123.083 374.073 125.784H376.073ZM373.31 118.192C371.484 116.223 369.12 115.248 366.305 115.248V117.248C368.609 117.248 370.426 118.023 371.843 119.552L373.31 118.192ZM366.305 115.248C363.489 115.248 361.109 116.222 359.244 118.183L360.693 119.561C362.156 118.023 364 117.248 366.305 117.248V115.248ZM359.253 118.174C357.368 120.106 356.473 122.682 356.473 125.784H358.473C358.473 123.083 359.241 121.051 360.685 119.57L359.253 118.174ZM356.473 125.784C356.473 128.887 357.369 131.478 359.244 133.449L360.693 132.071C359.24 130.544 358.473 128.484 358.473 125.784H356.473ZM359.253 133.458C361.12 135.373 363.497 136.32 366.305 136.32V134.32C363.992 134.32 362.145 133.56 360.685 132.062L359.253 133.458ZM426.546 108.568H427.546V107.568H426.546V108.568ZM426.546 143V144H427.546V143H426.546ZM417.074 143H416.074V144H417.074V143ZM417.074 138.904H418.074V136.267L416.325 138.241L417.074 138.904ZM412.338 142.36L412.724 143.282L412.733 143.279L412.742 143.275L412.338 142.36ZM395.634 139.608L396.335 138.895L395.634 139.608ZM391.666 108.568V107.568H390.666V108.568H391.666ZM401.65 108.568H402.65V107.568H401.65V108.568ZM414.386 132.568L415.113 133.255L415.122 133.245L414.386 132.568ZM416.562 108.568V107.568H415.562V108.568H416.562ZM425.546 108.568V143H427.546V108.568H425.546ZM426.546 142H417.074V144H426.546V142ZM418.074 143V138.904H416.074V143H418.074ZM416.325 138.241C415.099 139.626 413.638 140.692 411.934 141.445L412.742 143.275C414.708 142.406 416.404 141.169 417.823 139.567L416.325 138.241ZM411.952 141.438C410.248 142.151 408.396 142.512 406.386 142.512V144.512C408.642 144.512 410.759 144.105 412.724 143.282L411.952 141.438ZM406.386 142.512C402.065 142.512 398.754 141.275 396.335 138.895L394.933 140.321C397.804 143.146 401.662 144.512 406.386 144.512V142.512ZM396.335 138.895C393.944 136.543 392.666 132.98 392.666 128.024H390.666C390.666 133.308 392.033 137.468 394.933 140.321L396.335 138.895ZM392.666 128.024V108.568H390.666V128.024H392.666ZM391.666 109.568H401.65V107.568H391.666V109.568ZM400.65 108.568V126.552H402.65V108.568H400.65ZM400.65 126.552C400.65 129.441 401.252 131.794 402.628 133.435C404.032 135.109 406.096 135.872 408.626 135.872V133.872C406.506 133.872 405.081 133.248 404.16 132.149C403.211 131.017 402.65 129.21 402.65 126.552H400.65ZM408.626 135.872C411.251 135.872 413.448 135.018 415.113 133.255L413.659 131.881C412.423 133.19 410.78 133.872 408.626 133.872V135.872ZM415.122 133.245C416.804 131.415 417.562 128.807 417.562 125.592H415.562C415.562 128.521 414.87 130.564 413.65 131.891L415.122 133.245ZM417.562 125.592V108.568H415.562V125.592H417.562ZM416.562 109.568H426.546V107.568H416.562V109.568ZM470.867 95.512H471.867V94.512H470.867V95.512ZM470.867 143V144H471.867V143H470.867ZM461.332 143H460.332V144H461.332V143ZM461.332 139.032H462.332V136.258L460.561 138.394L461.332 139.032ZM441.747 141.336L441.261 142.21L441.267 142.213L441.747 141.336ZM435.604 135.128L436.478 134.642L435.604 135.128ZM435.604 116.44L436.478 116.926L435.604 116.44ZM441.747 110.232L441.267 109.355L441.261 109.359L441.747 110.232ZM460.884 112.216L460.137 112.882L461.884 114.839V112.216H460.884ZM460.884 95.512V94.512H459.884V95.512H460.884ZM458.579 132.76L459.296 133.458L459.304 133.449L458.579 132.76ZM458.579 118.872L457.855 119.561L457.863 119.57L458.579 118.872ZM445.971 118.872L446.688 119.57L446.696 119.561L445.971 118.872ZM445.971 132.76L445.247 133.449L445.255 133.458L445.971 132.76ZM469.867 95.512V143H471.867V95.512H469.867ZM470.867 142H461.332V144H470.867V142ZM462.332 143V139.032H460.332V143H462.332ZM460.561 138.394C458.317 141.103 455.044 142.512 450.579 142.512V144.512C455.502 144.512 459.397 142.934 462.102 139.67L460.561 138.394ZM450.579 142.512C447.492 142.512 444.715 141.823 442.228 140.459L441.267 142.213C444.07 143.75 447.182 144.512 450.579 144.512V142.512ZM442.234 140.463C439.8 139.106 437.884 137.173 436.478 134.642L434.729 135.614C436.31 138.459 438.49 140.665 441.261 142.209L442.234 140.463ZM436.478 134.642C435.079 132.124 434.363 129.181 434.363 125.784H432.363C432.363 129.469 433.142 132.756 434.729 135.614L436.478 134.642ZM434.363 125.784C434.363 122.387 435.079 119.444 436.478 116.926L434.729 115.954C433.142 118.812 432.363 122.099 432.363 125.784H434.363ZM436.478 116.926C437.884 114.395 439.8 112.462 442.234 111.105L441.261 109.359C438.49 110.903 436.31 113.109 434.729 115.954L436.478 116.926ZM442.228 111.109C444.715 109.745 447.492 109.056 450.579 109.056V107.056C447.182 107.056 444.07 107.818 441.267 109.355L442.228 111.109ZM450.579 109.056C454.746 109.056 457.887 110.36 460.137 112.882L461.63 111.55C458.93 108.525 455.202 107.056 450.579 107.056V109.056ZM461.884 112.216V95.512H459.884V112.216H461.884ZM460.884 96.512H470.867V94.512H460.884V96.512ZM452.307 136.32C455.078 136.32 457.432 135.37 459.296 133.458L457.863 132.062C456.399 133.564 454.572 134.32 452.307 134.32V136.32ZM459.304 133.449C461.179 131.478 462.076 128.887 462.076 125.784H460.076C460.076 128.484 459.308 130.544 457.855 132.071L459.304 133.449ZM462.076 125.784C462.076 122.682 461.18 120.106 459.296 118.174L457.863 119.57C459.307 121.051 460.076 123.083 460.076 125.784H462.076ZM459.304 118.183C457.442 116.226 455.086 115.248 452.307 115.248V117.248C454.564 117.248 456.389 118.02 457.855 119.561L459.304 118.183ZM452.307 115.248C449.492 115.248 447.112 116.222 445.247 118.183L446.696 119.561C448.159 118.023 450.003 117.248 452.307 117.248V115.248ZM445.255 118.174C443.371 120.106 442.475 122.682 442.475 125.784H444.475C444.475 123.083 445.244 121.051 446.688 119.57L445.255 118.174ZM442.475 125.784C442.475 128.887 443.372 131.478 445.247 133.449L446.696 132.071C445.243 130.544 444.475 128.484 444.475 125.784H442.475ZM445.255 133.458C447.123 135.373 449.5 136.32 452.307 136.32V134.32C449.995 134.32 448.148 133.56 446.688 132.062L445.255 133.458ZM488.364 132.824L487.657 133.531L487.664 133.538L487.67 133.544L488.364 132.824ZM489.772 139.8L488.802 139.557L489.772 139.8ZM488.364 143.64L487.444 143.249L487.439 143.26L487.434 143.272L488.364 143.64ZM484.716 152.856V153.856H485.396L485.646 153.224L484.716 152.856ZM478.38 152.856L477.416 152.589L477.066 153.856H478.38V152.856ZM481.196 142.68L482.16 142.947L482.399 142.084L481.567 141.752L481.196 142.68ZM478.636 140.632L477.782 141.152L477.795 141.174L477.81 141.195L478.636 140.632ZM479.468 132.824L480.162 133.544L480.162 133.544L479.468 132.824ZM483.948 132.096C485.504 132.096 486.712 132.586 487.657 133.531L489.071 132.117C487.712 130.758 485.976 130.096 483.948 130.096V132.096ZM487.67 133.544C488.597 134.437 489.092 135.633 489.092 137.24H491.092C491.092 135.177 490.435 133.43 489.058 132.104L487.67 133.544ZM489.092 137.24C489.092 138.009 488.996 138.781 488.802 139.557L490.742 140.043C490.975 139.112 491.092 138.178 491.092 137.24H489.092ZM488.802 139.557C488.609 140.33 488.166 141.55 487.444 143.249L489.284 144.031C490.013 142.317 490.509 140.977 490.742 140.043L488.802 139.557ZM487.434 143.272L483.786 152.488L485.646 153.224L489.294 144.008L487.434 143.272ZM484.716 151.856H478.38V153.856H484.716V151.856ZM479.344 153.123L482.16 142.947L480.232 142.413L477.416 152.589L479.344 153.123ZM481.567 141.752C480.683 141.398 479.989 140.841 479.462 140.069L477.81 141.195C478.563 142.3 479.576 143.109 480.825 143.608L481.567 141.752ZM479.49 140.112C478.999 139.305 478.74 138.358 478.74 137.24H476.74C476.74 138.682 477.078 139.997 477.782 141.152L479.49 140.112ZM478.74 137.24C478.74 135.633 479.235 134.437 480.162 133.544L478.774 132.104C477.397 133.43 476.74 135.177 476.74 137.24H478.74ZM480.162 133.544C481.155 132.587 482.392 132.096 483.948 132.096V130.096C481.92 130.096 480.171 130.757 478.774 132.104L480.162 133.544Z"
        fill="white" />
    <path
        d="M15.68 188.52V187.52H14.68V188.52H15.68ZM15.68 200.36H14.68V201.36H15.68V200.36ZM36.416 200.36H37.416V199.36H36.416V200.36ZM36.416 208.68V209.68H37.416V208.68H36.416ZM15.68 208.68V207.68H14.68V208.68H15.68ZM15.68 225V226H16.68V225H15.68ZM5.312 225H4.312V226H5.312V225ZM5.312 180.2V179.2H4.312V180.2H5.312ZM39.168 180.2H40.168V179.2H39.168V180.2ZM39.168 188.52V189.52H40.168V188.52H39.168ZM14.68 188.52V200.36H16.68V188.52H14.68ZM15.68 201.36H36.416V199.36H15.68V201.36ZM35.416 200.36V208.68H37.416V200.36H35.416ZM36.416 207.68H15.68V209.68H36.416V207.68ZM14.68 208.68V225H16.68V208.68H14.68ZM15.68 224H5.312V226H15.68V224ZM6.312 225V180.2H4.312V225H6.312ZM5.312 181.2H39.168V179.2H5.312V181.2ZM38.168 180.2V188.52H40.168V180.2H38.168ZM39.168 187.52H15.68V189.52H39.168V187.52ZM51.2 223.272L50.7267 224.153L50.7345 224.157L50.7424 224.161L51.2 223.272ZM44.48 216.936L43.6237 217.452L44.48 216.936ZM44.48 198.632L43.6237 198.116H43.6237L44.48 198.632ZM51.2 192.36L51.663 193.246L51.6679 193.244L51.2 192.36ZM70.72 192.36L70.2467 193.241L70.257 193.246L70.72 192.36ZM77.44 198.632L78.2963 198.116L77.44 198.632ZM77.44 216.936L78.2963 217.452L77.44 216.936ZM70.72 223.272L71.1831 224.158L71.1933 224.153L70.72 223.272ZM67.264 214.76L66.5394 214.071L66.539 214.071L67.264 214.76ZM67.264 200.872L66.5306 201.552L66.5392 201.561L66.548 201.57L67.264 200.872ZM54.656 200.872L55.3721 201.57L55.3806 201.561L54.656 200.872ZM54.656 214.76L53.9314 215.449L53.94 215.458L54.656 214.76ZM60.992 224.512C57.5065 224.512 54.4022 223.796 51.6576 222.383L50.7424 224.161C53.8004 225.735 57.2241 226.512 60.992 226.512V224.512ZM51.6733 222.391C48.9671 220.937 46.8617 218.949 45.3363 216.42L43.6237 217.452C45.3409 220.299 47.7156 222.535 50.7267 224.153L51.6733 222.391ZM45.3363 216.42C43.8171 213.901 43.048 211.032 43.048 207.784H41.048C41.048 211.363 41.9002 214.595 43.6237 217.452L45.3363 216.42ZM43.048 207.784C43.048 204.536 43.8171 201.667 45.3363 199.148L43.6237 198.116C41.9002 200.973 41.048 204.205 41.048 207.784H43.048ZM45.3363 199.148C46.8602 196.622 48.9622 194.657 51.663 193.246L50.737 191.474C47.7205 193.049 45.3424 195.266 43.6237 198.116L45.3363 199.148ZM51.6679 193.244C54.4104 191.792 57.511 191.056 60.992 191.056V189.056C57.2196 189.056 53.7922 189.856 50.7321 191.476L51.6679 193.244ZM60.992 191.056C64.4732 191.056 67.55 191.792 70.2467 193.241L71.1933 191.479C68.1727 189.856 64.7641 189.056 60.992 189.056V191.056ZM70.257 193.246C72.9578 194.657 75.0598 196.622 76.5837 199.148L78.2963 198.116C76.5776 195.266 74.1995 193.049 71.183 191.474L70.257 193.246ZM76.5837 199.148C78.1029 201.667 78.872 204.536 78.872 207.784H80.872C80.872 204.205 80.0198 200.973 78.2963 198.116L76.5837 199.148ZM78.872 207.784C78.872 211.032 78.1029 213.901 76.5837 216.42L78.2963 217.452C80.0198 214.595 80.872 211.363 80.872 207.784H78.872ZM76.5837 216.42C75.0583 218.949 72.9529 220.937 70.2467 222.391L71.1933 224.153C74.2044 222.535 76.5791 220.299 78.2963 217.452L76.5837 216.42ZM70.257 222.386C67.5582 223.795 64.4777 224.512 60.992 224.512V226.512C64.7596 226.512 68.1644 225.735 71.183 224.158L70.257 222.386ZM60.992 218.32C63.7995 218.32 66.1613 217.373 67.989 215.449L66.539 214.071C65.1241 215.561 63.3045 216.32 60.992 216.32V218.32ZM67.9886 215.449C69.8639 213.478 70.76 210.887 70.76 207.784H68.76C68.76 210.484 67.9921 212.544 66.5394 214.071L67.9886 215.449ZM70.76 207.784C70.76 204.682 69.8641 202.106 67.98 200.174L66.548 201.57C67.9919 203.051 68.76 205.083 68.76 207.784H70.76ZM67.9974 200.192C66.1719 198.223 63.8075 197.248 60.992 197.248V199.248C63.2965 199.248 65.1135 200.023 66.5306 201.552L67.9974 200.192ZM60.992 197.248C58.1766 197.248 55.7966 198.222 53.9314 200.183L55.3806 201.561C56.8434 200.023 58.6874 199.248 60.992 199.248V197.248ZM53.94 200.174C52.0559 202.106 51.16 204.682 51.16 207.784H53.16C53.16 205.083 53.9281 203.051 55.372 201.57L53.94 200.174ZM51.16 207.784C51.16 210.887 52.0561 213.478 53.9314 215.449L55.3806 214.071C53.9279 212.544 53.16 210.484 53.16 207.784H51.16ZM53.94 215.458C55.8071 217.373 58.1846 218.32 60.992 218.32V216.32C58.6795 216.32 56.8329 215.56 55.372 214.062L53.94 215.458ZM96.0815 195.112H95.0815V198.22L96.8938 195.695L96.0815 195.112ZM100.882 191.336L100.497 190.413L100.49 190.416L100.882 191.336ZM107.922 190.056H108.922V189.056H107.922V190.056ZM107.922 199.272L107.845 200.269L108.922 200.352V199.272H107.922ZM98.9615 201.576L99.6592 202.293L99.6686 202.283L98.9615 201.576ZM96.5295 225V226H97.5295V225H96.5295ZM86.5455 225H85.5455V226H86.5455V225ZM86.5455 190.568V189.568H85.5455V190.568H86.5455ZM96.0815 190.568H97.0815V189.568H96.0815V190.568ZM96.8938 195.695C97.9748 194.19 99.425 193.043 101.273 192.256L100.49 190.416C98.3274 191.336 96.5775 192.706 95.2692 194.529L96.8938 195.695ZM101.266 192.259C103.171 191.465 105.383 191.056 107.922 191.056V189.056C105.169 189.056 102.688 189.5 100.497 190.413L101.266 192.259ZM106.922 190.056V199.272H108.922V190.056H106.922ZM107.998 198.275C106.894 198.19 106.11 198.144 105.682 198.144V200.144C106.021 200.144 106.73 200.183 107.845 200.269L107.998 198.275ZM105.682 198.144C102.627 198.144 100.107 199.016 98.2544 200.869L99.6686 202.283C101.059 200.893 103.019 200.144 105.682 200.144V198.144ZM98.2639 200.86C96.3808 202.693 95.5295 205.388 95.5295 208.744H97.5295C97.5295 205.7 98.2996 203.616 99.6591 202.292L98.2639 200.86ZM95.5295 208.744V225H97.5295V208.744H95.5295ZM96.5295 224H86.5455V226H96.5295V224ZM87.5455 225V190.568H85.5455V225H87.5455ZM86.5455 191.568H96.0815V189.568H86.5455V191.568ZM95.0815 190.568V195.112H97.0815V190.568H95.0815ZM147.081 210.6V211.6H148.008L148.079 210.677L147.081 210.6ZM121.034 210.6V209.6H119.79L120.057 210.815L121.034 210.6ZM124.362 215.656L124.939 214.84L124.362 215.656ZM135.626 216.744L135.977 217.68L135.984 217.677L135.992 217.674L135.626 216.744ZM139.529 214.184L140.265 213.506L139.571 212.754L138.835 213.464L139.529 214.184ZM144.842 219.944L145.595 220.602L146.185 219.926L145.577 219.266L144.842 219.944ZM120.329 223.272L119.872 224.161L119.882 224.166L120.329 223.272ZM113.418 216.936L112.561 217.452L113.418 216.936ZM113.354 198.696L112.494 198.185L112.491 198.19L113.354 198.696ZM119.946 192.36L120.42 193.24L120.424 193.238L119.946 192.36ZM138.505 192.232L138.975 191.349L138.505 192.232ZM144.906 198.504L144.034 198.994L144.038 199.002L144.043 199.01L144.906 198.504ZM123.721 199.528L123.081 198.76L123.721 199.528ZM120.906 204.776L119.917 204.624L119.74 205.776H120.906V204.776ZM137.866 204.776V205.776H139.035L138.853 204.621L137.866 204.776ZM135.049 199.592L134.397 200.35L134.403 200.355L134.409 200.36L135.049 199.592ZM146.273 207.912C146.273 207.906 146.272 207.95 146.263 208.09C146.256 208.213 146.244 208.386 146.228 208.609C146.196 209.054 146.148 209.692 146.084 210.523L148.079 210.677C148.204 209.05 148.273 208.091 148.273 207.912H146.273ZM147.081 209.6H121.034V211.6H147.081V209.6ZM120.057 210.815C120.579 213.186 121.827 215.088 123.784 216.472L124.939 214.84C123.397 213.749 122.427 212.28 122.01 210.385L120.057 210.815ZM123.784 216.472C125.736 217.853 128.125 218.512 130.889 218.512V216.512C128.449 216.512 126.486 215.934 124.939 214.84L123.784 216.472ZM130.889 218.512C132.775 218.512 134.477 218.243 135.977 217.68L135.274 215.808C134.044 216.269 132.588 216.512 130.889 216.512V218.512ZM135.992 217.674C137.533 217.067 138.944 216.138 140.224 214.904L138.835 213.464C137.726 214.534 136.534 215.311 135.259 215.814L135.992 217.674ZM138.794 214.862L144.106 220.622L145.577 219.266L140.265 213.506L138.794 214.862ZM144.088 219.286C141.084 222.726 136.656 224.512 130.633 224.512V226.512C137.07 226.512 142.114 224.586 145.595 220.602L144.088 219.286ZM130.633 224.512C126.881 224.512 123.604 223.791 120.777 222.378L119.882 224.166C123.029 225.74 126.621 226.512 130.633 226.512V224.512ZM120.787 222.383C117.953 220.925 115.793 218.937 114.274 216.42L112.561 217.452C114.285 220.311 116.733 222.547 119.872 224.161L120.787 222.383ZM114.274 216.42C112.755 213.901 111.985 211.032 111.985 207.784H109.985C109.985 211.363 110.838 214.595 112.561 217.452L114.274 216.42ZM111.985 207.784C111.985 204.576 112.735 201.724 114.216 199.202L112.491 198.19C110.815 201.044 109.985 204.25 109.985 207.784H111.985ZM114.213 199.207C115.743 196.631 117.807 194.647 120.42 193.24L119.471 191.48C116.537 193.06 114.207 195.3 112.494 198.185L114.213 199.207ZM120.424 193.238C123.082 191.788 126.051 191.056 129.354 191.056V189.056C125.743 189.056 122.441 189.86 119.467 191.482L120.424 193.238ZM129.354 191.056C132.576 191.056 135.463 191.748 138.036 193.115L138.975 191.349C136.087 189.815 132.873 189.056 129.354 189.056V191.056ZM138.036 193.115C140.596 194.475 142.59 196.428 144.034 198.994L145.777 198.014C144.149 195.119 141.877 192.891 138.975 191.349L138.036 193.115ZM144.043 199.01C145.519 201.523 146.273 204.479 146.273 207.912H148.273C148.273 204.177 147.449 200.861 145.768 197.998L144.043 199.01ZM129.417 196.608C126.955 196.608 124.821 197.31 123.081 198.76L124.362 200.296C125.694 199.186 127.358 198.608 129.417 198.608V196.608ZM123.081 198.76C121.335 200.215 120.291 202.196 119.917 204.624L121.894 204.928C122.203 202.919 123.036 201.401 124.362 200.296L123.081 198.76ZM120.906 205.776H137.866V203.776H120.906V205.776ZM138.853 204.621C138.479 202.231 137.432 200.275 135.69 198.824L134.409 200.36C135.739 201.469 136.57 202.969 136.878 204.931L138.853 204.621ZM135.702 198.834C133.967 197.34 131.851 196.608 129.417 196.608V198.608C131.421 198.608 133.06 199.199 134.397 200.35L135.702 198.834ZM187.471 190.568L188.393 190.957L188.979 189.568H187.471V190.568ZM172.943 225V226H173.607L173.865 225.389L172.943 225ZM162.639 225L161.718 225.387L161.975 226H162.639V225ZM148.176 190.568V189.568H146.671L147.254 190.955L148.176 190.568ZM158.48 190.568L159.406 190.191L159.152 189.568H158.48V190.568ZM168.016 213.992L167.089 214.369L168 216.607L168.937 214.38L168.016 213.992ZM177.872 190.568V189.568H177.207L176.95 190.18L177.872 190.568ZM186.55 190.179L172.022 224.611L173.865 225.389L188.393 190.957L186.55 190.179ZM172.943 224H162.639V226H172.943V224ZM163.561 224.613L149.097 190.181L147.254 190.955L161.718 225.387L163.561 224.613ZM148.176 191.568H158.48V189.568H148.176V191.568ZM157.553 190.945L167.089 214.369L168.942 213.615L159.406 190.191L157.553 190.945ZM168.937 214.38L178.793 190.956L176.95 190.18L167.094 213.604L168.937 214.38ZM177.872 191.568H187.471V189.568H177.872V191.568ZM224.144 210.6V211.6H225.07L225.141 210.677L224.144 210.6ZM198.096 210.6V209.6H196.852L197.119 210.815L198.096 210.6ZM201.424 215.656L202.001 214.84L201.424 215.656ZM212.688 216.744L213.039 217.68L213.047 217.677L213.055 217.674L212.688 216.744ZM216.592 214.184L217.327 213.506L216.634 212.754L215.898 213.464L216.592 214.184ZM221.904 219.944L222.657 220.602L223.248 219.926L222.639 219.266L221.904 219.944ZM197.392 223.272L196.935 224.161L196.945 224.166L197.392 223.272ZM190.48 216.936L189.624 217.452L190.48 216.936ZM190.416 198.696L189.556 198.185L189.554 198.19L190.416 198.696ZM197.008 192.36L197.482 193.24L197.487 193.238L197.008 192.36ZM215.568 192.232L216.037 191.349L215.568 192.232ZM221.968 198.504L221.096 198.994L221.101 199.002L221.106 199.01L221.968 198.504ZM200.784 199.528L200.144 198.76L200.784 199.528ZM197.968 204.776L196.98 204.624L196.802 205.776H197.968V204.776ZM214.928 204.776V205.776H216.097L215.916 204.621L214.928 204.776ZM212.112 199.592L211.459 200.35L211.466 200.355L211.472 200.36L212.112 199.592ZM223.336 207.912C223.336 207.906 223.335 207.95 223.326 208.09C223.318 208.213 223.306 208.386 223.291 208.609C223.259 209.054 223.211 209.692 223.147 210.523L225.141 210.677C225.266 209.05 225.336 208.091 225.336 207.912H223.336ZM224.144 209.6H198.096V211.6H224.144V209.6ZM197.119 210.815C197.641 213.186 198.89 215.088 200.847 216.472L202.001 214.84C200.46 213.749 199.49 212.28 199.073 210.385L197.119 210.815ZM200.847 216.472C202.798 217.853 205.188 218.512 207.952 218.512V216.512C205.511 216.512 203.548 215.934 202.001 214.84L200.847 216.472ZM207.952 218.512C209.837 218.512 211.539 218.243 213.039 217.68L212.337 215.808C211.106 216.269 209.651 216.512 207.952 216.512V218.512ZM213.055 217.674C214.596 217.067 216.006 216.138 217.286 214.904L215.898 213.464C214.788 214.534 213.596 215.311 212.321 215.814L213.055 217.674ZM215.857 214.862L221.169 220.622L222.639 219.266L217.327 213.506L215.857 214.862ZM221.151 219.286C218.146 222.726 213.719 224.512 207.696 224.512V226.512C214.132 226.512 219.177 224.586 222.657 220.602L221.151 219.286ZM207.696 224.512C203.943 224.512 200.666 223.791 197.839 222.378L196.945 224.166C200.091 225.74 203.683 226.512 207.696 226.512V224.512ZM197.849 222.383C195.016 220.925 192.855 218.937 191.336 216.42L189.624 217.452C191.348 220.311 193.795 222.547 196.935 224.161L197.849 222.383ZM191.336 216.42C189.817 213.901 189.048 211.032 189.048 207.784H187.048C187.048 211.363 187.9 214.595 189.624 217.452L191.336 216.42ZM189.048 207.784C189.048 204.576 189.797 201.724 191.278 199.202L189.554 198.19C187.878 201.044 187.048 204.25 187.048 207.784H189.048ZM191.276 199.207C192.805 196.631 194.87 194.647 197.482 193.24L196.534 191.48C193.599 193.06 191.269 195.3 189.556 198.185L191.276 199.207ZM197.487 193.238C200.145 191.788 203.114 191.056 206.416 191.056V189.056C202.806 189.056 199.503 189.86 196.529 191.482L197.487 193.238ZM206.416 191.056C209.638 191.056 212.525 191.748 215.099 193.115L216.037 191.349C213.149 189.815 209.935 189.056 206.416 189.056V191.056ZM215.099 193.115C217.658 194.475 219.653 196.428 221.096 198.994L222.84 198.014C221.211 195.119 218.939 192.891 216.037 191.349L215.099 193.115ZM221.106 199.01C222.581 201.523 223.336 204.479 223.336 207.912H225.336C225.336 204.177 224.512 200.861 222.83 197.998L221.106 199.01ZM206.48 196.608C204.017 196.608 201.883 197.31 200.144 198.76L201.424 200.296C202.757 199.186 204.42 198.608 206.48 198.608V196.608ZM200.144 198.76C198.397 200.215 197.353 202.196 196.98 204.624L198.956 204.928C199.266 202.919 200.099 201.401 201.424 200.296L200.144 198.76ZM197.968 205.776H214.928V203.776H197.968V205.776ZM215.916 204.621C215.541 202.231 214.494 200.275 212.752 198.824L211.472 200.36C212.802 201.469 213.632 202.969 213.94 204.931L215.916 204.621ZM212.765 198.834C211.029 197.34 208.914 196.608 206.48 196.608V198.608C208.484 198.608 210.123 199.199 211.459 200.35L212.765 198.834ZM240.519 195.112H239.519V198.22L241.331 195.695L240.519 195.112ZM245.319 191.336L244.934 190.413L244.927 190.416L245.319 191.336ZM252.359 190.056H253.359V189.056H252.359V190.056ZM252.359 199.272L252.282 200.269L253.359 200.352V199.272H252.359ZM243.399 201.576L244.097 202.293L244.106 202.283L243.399 201.576ZM240.967 225V226H241.967V225H240.967ZM230.983 225H229.983V226H230.983V225ZM230.983 190.568V189.568H229.983V190.568H230.983ZM240.519 190.568H241.519V189.568H240.519V190.568ZM241.331 195.695C242.412 194.19 243.862 193.043 245.711 192.256L244.927 190.416C242.765 191.336 241.015 192.706 239.707 194.529L241.331 195.695ZM245.704 192.259C247.609 191.465 249.821 191.056 252.359 191.056V189.056C249.607 189.056 247.125 189.5 244.934 190.413L245.704 192.259ZM251.359 190.056V199.272H253.359V190.056H251.359ZM252.436 198.275C251.332 198.19 250.547 198.144 250.119 198.144V200.144C250.459 200.144 251.168 200.183 252.282 200.269L252.436 198.275ZM250.119 198.144C247.064 198.144 244.545 199.016 242.692 200.869L244.106 202.283C245.496 200.893 247.456 200.144 250.119 200.144V198.144ZM242.701 200.86C240.818 202.693 239.967 205.388 239.967 208.744H241.967C241.967 205.7 242.737 203.616 244.097 202.292L242.701 200.86ZM239.967 208.744V225H241.967V208.744H239.967ZM240.967 224H230.983V226H240.967V224ZM231.983 225V190.568H229.983V225H231.983ZM230.983 191.568H240.519V189.568H230.983V191.568ZM239.519 190.568V195.112H241.519V190.568H239.519ZM282.302 220.456L281.595 221.163L281.6 221.167L282.302 220.456ZM276.991 180.2V179.2H275.991V180.2H276.991ZM287.358 180.2H288.358V179.2H287.358V180.2ZM304.767 214.056L305.514 214.72L305.521 214.712L304.767 214.056ZM307.327 180.2V179.2H306.327V180.2H307.327ZM317.566 180.2H318.566V179.2H317.566V180.2ZM312.19 220.456L311.488 219.745L311.483 219.749L312.19 220.456ZM297.279 224.768C291.067 224.768 286.355 223.055 283.005 219.745L281.6 221.167C285.418 224.94 290.69 226.768 297.279 226.768V224.768ZM283.01 219.749C279.709 216.448 277.991 211.679 277.991 205.288H275.991C275.991 212.038 277.813 217.381 281.595 221.163L283.01 219.749ZM277.991 205.288V180.2H275.991V205.288H277.991ZM276.991 181.2H287.358V179.2H276.991V181.2ZM286.358 180.2V204.904H288.358V180.2H286.358ZM286.358 204.904C286.358 209.028 287.21 212.307 289.085 214.567C290.989 216.862 293.806 217.936 297.342 217.936V215.936C294.223 215.936 292.048 215.005 290.624 213.289C289.171 211.538 288.358 208.801 288.358 204.904H286.358ZM297.342 217.936C300.79 217.936 303.57 216.907 305.514 214.72L304.019 213.392C302.55 215.045 300.38 215.936 297.342 215.936V217.936ZM305.521 214.712C307.456 212.487 308.327 209.149 308.327 204.904H306.327C306.327 208.936 305.49 211.7 304.012 213.4L305.521 214.712ZM308.327 204.904V180.2H306.327V204.904H308.327ZM307.327 181.2H317.566V179.2H307.327V181.2ZM316.566 180.2V205.288H318.566V180.2H316.566ZM316.566 205.288C316.566 211.676 314.829 216.443 311.488 219.745L312.893 221.167C316.72 217.386 318.566 212.041 318.566 205.288H316.566ZM311.483 219.749C308.178 223.054 303.491 224.768 297.279 224.768V226.768C303.866 226.768 309.12 224.94 312.898 221.163L311.483 219.749ZM358.34 193.896L357.639 194.609L357.645 194.615L358.34 193.896ZM362.308 225V226H363.308V225H362.308ZM352.324 225H351.324V226H352.324V225ZM350.532 200.744L349.779 201.403L349.785 201.408L349.79 201.414L350.532 200.744ZM339.332 201.064L340.049 201.761L340.058 201.751L339.332 201.064ZM337.092 225V226H338.092V225H337.092ZM327.108 225H326.108V226H327.108V225ZM327.108 190.568V189.568H326.108V190.568H327.108ZM336.644 190.568H337.644V189.568H336.644V190.568ZM336.644 194.6H335.644V197.181L337.383 195.274L336.644 194.6ZM341.572 191.272L341.936 192.203L341.945 192.2L341.954 192.196L341.572 191.272ZM348.036 191.056C352.088 191.056 355.255 192.264 357.639 194.609L359.041 193.183C356.22 190.408 352.517 189.056 348.036 189.056V191.056ZM357.645 194.615C360.032 196.925 361.308 200.422 361.308 205.288H363.308C363.308 200.085 361.938 195.987 359.035 193.177L357.645 194.615ZM361.308 205.288V225H363.308V205.288H361.308ZM362.308 224H352.324V226H362.308V224ZM353.324 225V206.824H351.324V225H353.324ZM353.324 206.824C353.324 203.973 352.704 201.657 351.274 200.074L349.79 201.414C350.749 202.477 351.324 204.214 351.324 206.824H353.324ZM351.285 200.085C349.855 198.451 347.821 197.696 345.348 197.696V199.696C347.398 199.696 348.82 200.306 349.779 201.403L351.285 200.085ZM345.348 197.696C342.603 197.696 340.318 198.566 338.606 200.377L340.058 201.751C341.333 200.404 343.058 199.696 345.348 199.696V197.696ZM338.615 200.367C336.874 202.157 336.092 204.757 336.092 207.976H338.092C338.092 205.051 338.803 203.043 340.049 201.761L338.615 200.367ZM336.092 207.976V225H338.092V207.976H336.092ZM337.092 224H327.108V226H337.092V224ZM328.108 225V190.568H326.108V225H328.108ZM327.108 191.568H336.644V189.568H327.108V191.568ZM335.644 190.568V194.6H337.644V190.568H335.644ZM337.383 195.274C338.595 193.945 340.106 192.92 341.936 192.203L341.208 190.341C339.113 191.16 337.339 192.354 335.905 193.926L337.383 195.274ZM341.954 192.196C343.783 191.441 345.807 191.056 348.036 191.056V189.056C345.572 189.056 343.286 189.482 341.19 190.348L341.954 192.196ZM371.358 190.568V189.568H370.358V190.568H371.358ZM381.342 190.568H382.342V189.568H381.342V190.568ZM381.342 225V226H382.342V225H381.342ZM371.358 225H370.358V226H371.358V225ZM371.87 184.168L371.191 184.902L371.87 184.168ZM371.87 176.232L372.549 176.966V176.966L371.87 176.232ZM380.83 176.168L380.166 176.915V176.915L380.83 176.168ZM380.83 184.168L381.509 184.902L381.517 184.895L381.524 184.888L380.83 184.168ZM371.358 191.568H381.342V189.568H371.358V191.568ZM380.342 190.568V225H382.342V190.568H380.342ZM381.342 224H371.358V226H381.342V224ZM372.358 225V190.568H370.358V225H372.358ZM376.35 184.768C374.722 184.768 373.486 184.301 372.549 183.434L371.191 184.902C372.558 186.168 374.309 186.768 376.35 186.768V184.768ZM372.549 183.434C371.603 182.558 371.142 181.502 371.142 180.2H369.142C369.142 182.055 369.833 183.645 371.191 184.902L372.549 183.434ZM371.142 180.2C371.142 178.898 371.603 177.842 372.549 176.966L371.191 175.498C369.833 176.755 369.142 178.345 369.142 180.2H371.142ZM372.549 176.966C373.486 176.099 374.722 175.632 376.35 175.632V173.632C374.309 173.632 372.558 174.232 371.191 175.498L372.549 176.966ZM376.35 175.632C377.989 175.632 379.23 176.084 380.166 176.915L381.494 175.421C380.126 174.204 378.38 173.632 376.35 173.632V175.632ZM380.166 176.915C381.105 177.75 381.558 178.759 381.558 180.008H383.558C383.558 178.185 382.859 176.634 381.494 175.421L380.166 176.915ZM381.558 180.008C381.558 181.413 381.084 182.535 380.136 183.448L381.524 184.888C382.88 183.582 383.558 181.931 383.558 180.008H381.558ZM380.151 183.434C379.214 184.301 377.978 184.768 376.35 184.768V186.768C378.391 186.768 380.142 186.168 381.509 184.902L380.151 183.434ZM401.552 191.336H400.552V192.336H401.552V191.336ZM410.384 191.336H411.384V190.336H410.384V191.336ZM410.384 199.016V200.016H411.384V199.016H410.384ZM401.808 199.016V198.016H400.808V199.016H401.808ZM401.808 225V226H402.808V225H401.808ZM391.824 225H390.824V226H391.824V225ZM391.824 199.016H392.824V198.016H391.824V199.016ZM386.512 199.016H385.512V200.016H386.512V199.016ZM386.512 191.336V190.336H385.512V191.336H386.512ZM391.824 191.336V192.336H392.824V191.336H391.824ZM395.28 180.456L394.579 179.742L394.573 179.749L395.28 180.456ZM409.36 177.512L409.11 178.48L409.128 178.485L409.146 178.489L409.36 177.512ZM412.752 178.856L413.692 179.197L413.96 178.459L413.307 178.024L412.752 178.856ZM410.128 186.088L409.553 186.906L410.622 187.658L411.068 186.429L410.128 186.088ZM420.496 190.568V189.568H419.496V190.568H420.496ZM430.48 190.568H431.48V189.568H430.48V190.568ZM430.48 225V226H431.48V225H430.48ZM420.496 225H419.496V226H420.496V225ZM421.008 184.168L420.329 184.902L421.008 184.168ZM421.008 176.232L421.687 176.966V176.966L421.008 176.232ZM429.968 176.168L429.304 176.915V176.915L429.968 176.168ZM429.968 184.168L430.647 184.902L430.655 184.895L430.662 184.888L429.968 184.168ZM401.552 192.336H410.384V190.336H401.552V192.336ZM409.384 191.336V199.016H411.384V191.336H409.384ZM410.384 198.016H401.808V200.016H410.384V198.016ZM400.808 199.016V225H402.808V199.016H400.808ZM401.808 224H391.824V226H401.808V224ZM392.824 225V199.016H390.824V225H392.824ZM391.824 198.016H386.512V200.016H391.824V198.016ZM387.512 199.016V191.336H385.512V199.016H387.512ZM386.512 192.336H391.824V190.336H386.512V192.336ZM392.824 191.336V189.8H390.824V191.336H392.824ZM392.824 189.8C392.824 186.082 393.908 183.242 395.987 181.163L394.573 179.749C392.044 182.278 390.824 185.667 390.824 189.8H392.824ZM395.981 181.17C398.091 179.097 401.096 178 405.136 178V176C400.728 176 397.162 177.207 394.579 179.742L395.981 181.17ZM405.136 178C406.553 178 407.876 178.162 409.11 178.48L409.61 176.544C408.198 176.179 406.706 176 405.136 176V178ZM409.146 178.489C410.424 178.768 411.431 179.177 412.197 179.688L413.307 178.024C412.281 177.34 411.026 176.853 409.574 176.535L409.146 178.489ZM411.812 178.515L409.188 185.747L411.068 186.429L413.692 179.197L411.812 178.515ZM410.703 185.27C409.368 184.33 407.818 183.872 406.096 183.872V185.872C407.446 185.872 408.584 186.224 409.553 186.906L410.703 185.27ZM406.096 183.872C404.402 183.872 402.954 184.342 401.948 185.447C400.959 186.534 400.552 188.068 400.552 189.864H402.552C402.552 188.332 402.903 187.37 403.428 186.793C403.936 186.234 404.761 185.872 406.096 185.872V183.872ZM400.552 189.864V191.336H402.552V189.864H400.552ZM420.496 191.568H430.48V189.568H420.496V191.568ZM429.48 190.568V225H431.48V190.568H429.48ZM430.48 224H420.496V226H430.48V224ZM421.496 225V190.568H419.496V225H421.496ZM425.488 184.768C423.86 184.768 422.624 184.301 421.687 183.434L420.329 184.902C421.696 186.168 423.447 186.768 425.488 186.768V184.768ZM421.687 183.434C420.741 182.558 420.28 181.502 420.28 180.2H418.28C418.28 182.055 418.971 183.645 420.329 184.902L421.687 183.434ZM420.28 180.2C420.28 178.898 420.741 177.842 421.687 176.966L420.329 175.498C418.971 176.755 418.28 178.345 418.28 180.2H420.28ZM421.687 176.966C422.624 176.099 423.86 175.632 425.488 175.632V173.632C423.447 173.632 421.696 174.232 420.329 175.498L421.687 176.966ZM425.488 175.632C427.127 175.632 428.368 176.084 429.304 176.915L430.632 175.421C429.264 174.204 427.518 173.632 425.488 173.632V175.632ZM429.304 176.915C430.243 177.75 430.696 178.759 430.696 180.008H432.696C432.696 178.185 431.997 176.634 430.632 175.421L429.304 176.915ZM430.696 180.008C430.696 181.413 430.222 182.535 429.274 183.448L430.662 184.888C432.018 183.582 432.696 181.931 432.696 180.008H430.696ZM429.289 183.434C428.352 184.301 427.116 184.768 425.488 184.768V186.768C427.529 186.768 429.28 186.168 430.647 184.902L429.289 183.434ZM473.269 210.6V211.6H474.195L474.266 210.677L473.269 210.6ZM447.221 210.6V209.6H445.977L446.244 210.815L447.221 210.6ZM450.549 215.656L451.126 214.84L450.549 215.656ZM461.813 216.744L462.164 217.68L462.172 217.677L462.18 217.674L461.813 216.744ZM465.717 214.184L466.452 213.506L465.759 212.754L465.023 213.464L465.717 214.184ZM471.029 219.944L471.782 220.602L472.373 219.926L471.764 219.266L471.029 219.944ZM446.517 223.272L446.06 224.161L446.07 224.166L446.517 223.272ZM439.605 216.936L438.749 217.452L439.605 216.936ZM439.541 198.696L438.681 198.185L438.679 198.19L439.541 198.696ZM446.133 192.36L446.607 193.24L446.612 193.238L446.133 192.36ZM464.693 192.232L465.162 191.349L464.693 192.232ZM471.093 198.504L470.221 198.994L470.226 199.002L470.231 199.01L471.093 198.504ZM449.909 199.528L449.269 198.76L449.909 199.528ZM447.093 204.776L446.105 204.624L445.927 205.776H447.093V204.776ZM464.053 204.776V205.776H465.222L465.041 204.621L464.053 204.776ZM461.237 199.592L460.584 200.35L460.591 200.355L460.597 200.36L461.237 199.592ZM472.461 207.912C472.461 207.906 472.46 207.95 472.451 208.09C472.443 208.213 472.431 208.386 472.416 208.609C472.384 209.054 472.336 209.692 472.272 210.523L474.266 210.677C474.391 209.05 474.461 208.091 474.461 207.912H472.461ZM473.269 209.6H447.221V211.6H473.269V209.6ZM446.244 210.815C446.766 213.186 448.015 215.088 449.972 216.472L451.126 214.84C449.585 213.749 448.615 212.28 448.198 210.385L446.244 210.815ZM449.972 216.472C451.923 217.853 454.313 218.512 457.077 218.512V216.512C454.636 216.512 452.673 215.934 451.126 214.84L449.972 216.472ZM457.077 218.512C458.962 218.512 460.664 218.243 462.164 217.68L461.462 215.808C460.231 216.269 458.776 216.512 457.077 216.512V218.512ZM462.18 217.674C463.721 217.067 465.131 216.138 466.411 214.904L465.023 213.464C463.913 214.534 462.721 215.311 461.446 215.814L462.18 217.674ZM464.982 214.862L470.294 220.622L471.764 219.266L466.452 213.506L464.982 214.862ZM470.276 219.286C467.271 222.726 462.844 224.512 456.821 224.512V226.512C463.257 226.512 468.302 224.586 471.782 220.602L470.276 219.286ZM456.821 224.512C453.068 224.512 449.791 223.791 446.964 222.378L446.07 224.166C449.216 225.74 452.808 226.512 456.821 226.512V224.512ZM446.974 222.383C444.141 220.925 441.98 218.937 440.461 216.42L438.749 217.452C440.473 220.311 442.92 222.547 446.06 224.161L446.974 222.383ZM440.461 216.42C438.942 213.901 438.173 211.032 438.173 207.784H436.173C436.173 211.363 437.025 214.595 438.749 217.452L440.461 216.42ZM438.173 207.784C438.173 204.576 438.922 201.724 440.403 199.202L438.679 198.19C437.003 201.044 436.173 204.25 436.173 207.784H438.173ZM440.401 199.207C441.93 196.631 443.995 194.647 446.607 193.24L445.659 191.48C442.724 193.06 440.394 195.3 438.681 198.185L440.401 199.207ZM446.612 193.238C449.27 191.788 452.239 191.056 455.541 191.056V189.056C451.931 189.056 448.628 189.86 445.654 191.482L446.612 193.238ZM455.541 191.056C458.763 191.056 461.65 191.748 464.224 193.115L465.162 191.349C462.274 189.815 459.06 189.056 455.541 189.056V191.056ZM464.224 193.115C466.783 194.475 468.778 196.428 470.221 198.994L471.965 198.014C470.336 195.119 468.064 192.891 465.162 191.349L464.224 193.115ZM470.231 199.01C471.706 201.523 472.461 204.479 472.461 207.912H474.461C474.461 204.177 473.637 200.861 471.955 197.998L470.231 199.01ZM455.605 196.608C453.142 196.608 451.008 197.31 449.269 198.76L450.549 200.296C451.882 199.186 453.545 198.608 455.605 198.608V196.608ZM449.269 198.76C447.522 200.215 446.478 202.196 446.105 204.624L448.081 204.928C448.391 202.919 449.224 201.401 450.549 200.296L449.269 198.76ZM447.093 205.776H464.053V203.776H447.093V205.776ZM465.041 204.621C464.666 202.231 463.619 200.275 461.877 198.824L460.597 200.36C461.927 201.469 462.757 202.969 463.065 204.931L465.041 204.621ZM461.89 198.834C460.154 197.34 458.039 196.608 455.605 196.608V198.608C457.609 198.608 459.248 199.199 460.584 200.35L461.89 198.834ZM515.18 177.512H516.18V176.512H515.18V177.512ZM515.18 225V226H516.18V225H515.18ZM505.644 225H504.644V226H505.644V225ZM505.644 221.032H506.644V218.258L504.874 220.394L505.644 221.032ZM486.06 223.336L485.573 224.21L485.579 224.213L486.06 223.336ZM479.916 217.128L480.79 216.642L479.916 217.128ZM479.916 198.44L480.79 198.926L479.916 198.44ZM486.06 192.232L485.579 191.355L485.573 191.359L486.06 192.232ZM505.196 194.216L504.45 194.882L506.196 196.839V194.216H505.196ZM505.196 177.512V176.512H504.196V177.512H505.196ZM502.892 214.76L503.608 215.458L503.617 215.449L502.892 214.76ZM502.892 200.872L502.167 201.561L502.176 201.57L502.892 200.872ZM490.284 200.872L491 201.57L491.009 201.561L490.284 200.872ZM490.284 214.76L489.559 215.449L489.568 215.458L490.284 214.76ZM514.18 177.512V225H516.18V177.512H514.18ZM515.18 224H505.644V226H515.18V224ZM506.644 225V221.032H504.644V225H506.644ZM504.874 220.394C502.629 223.103 499.356 224.512 494.892 224.512V226.512C499.814 226.512 503.709 224.934 506.414 221.67L504.874 220.394ZM494.892 224.512C491.804 224.512 489.028 223.823 486.541 222.459L485.579 224.213C488.383 225.75 491.494 226.512 494.892 226.512V224.512ZM486.547 222.463C484.112 221.106 482.196 219.173 480.79 216.642L479.042 217.614C480.623 220.459 482.802 222.665 485.573 224.209L486.547 222.463ZM480.79 216.642C479.391 214.124 478.676 211.181 478.676 207.784H476.676C476.676 211.469 477.454 214.756 479.042 217.614L480.79 216.642ZM478.676 207.784C478.676 204.387 479.391 201.444 480.79 198.926L479.042 197.954C477.454 200.812 476.676 204.099 476.676 207.784H478.676ZM480.79 198.926C482.196 196.395 484.112 194.462 486.547 193.105L485.573 191.359C482.802 192.903 480.623 195.109 479.042 197.954L480.79 198.926ZM486.541 193.109C489.028 191.745 491.804 191.056 494.892 191.056V189.056C491.494 189.056 488.383 189.818 485.579 191.355L486.541 193.109ZM494.892 191.056C499.059 191.056 502.2 192.36 504.45 194.882L505.942 193.55C503.243 190.525 499.515 189.056 494.892 189.056V191.056ZM506.196 194.216V177.512H504.196V194.216H506.196ZM505.196 178.512H515.18V176.512H505.196V178.512ZM496.62 218.32C499.39 218.32 501.744 217.37 503.608 215.458L502.176 214.062C500.712 215.564 498.885 216.32 496.62 216.32V218.32ZM503.617 215.449C505.492 213.478 506.388 210.887 506.388 207.784H504.388C504.388 210.484 503.62 212.544 502.167 214.071L503.617 215.449ZM506.388 207.784C506.388 204.682 505.492 202.106 503.608 200.174L502.176 201.57C503.62 203.051 504.388 205.083 504.388 207.784H506.388ZM503.617 200.183C501.755 198.226 499.398 197.248 496.62 197.248V199.248C498.877 199.248 500.701 200.02 502.167 201.561L503.617 200.183ZM496.62 197.248C493.805 197.248 491.425 198.222 489.559 200.183L491.009 201.561C492.471 200.023 494.315 199.248 496.62 199.248V197.248ZM489.568 200.174C487.684 202.106 486.788 204.682 486.788 207.784H488.788C488.788 205.083 489.556 203.051 491 201.57L489.568 200.174ZM486.788 207.784C486.788 210.887 487.684 213.478 489.559 215.449L491.009 214.071C489.556 212.544 488.788 210.484 488.788 207.784H486.788ZM489.568 215.458C491.435 217.373 493.813 218.32 496.62 218.32V216.32C494.307 216.32 492.461 215.56 491 214.062L489.568 215.458ZM523.781 223.72L524.488 223.013L523.781 223.72ZM523.781 214.824L524.461 215.557L524.468 215.55L524.475 215.544L523.781 214.824ZM532.612 214.824L531.918 215.544L531.925 215.55L531.932 215.557L532.612 214.824ZM532.612 223.72L531.905 223.013L532.612 223.72ZM528.196 224.512C526.702 224.512 525.487 224.013 524.488 223.013L523.073 224.427C524.463 225.817 526.192 226.512 528.196 226.512V224.512ZM524.488 223.013C523.493 222.018 522.989 220.785 522.989 219.24H520.989C520.989 221.279 521.679 223.033 523.073 224.427L524.488 223.013ZM522.989 219.24C522.989 217.645 523.497 216.452 524.461 215.557L523.1 214.091C521.675 215.414 520.989 217.166 520.989 219.24H522.989ZM524.475 215.544C525.472 214.582 526.691 214.096 528.196 214.096V212.096C526.204 212.096 524.478 212.762 523.086 214.104L524.475 215.544ZM528.196 214.096C529.702 214.096 530.921 214.582 531.918 215.544L533.307 214.104C531.915 212.762 530.189 212.096 528.196 212.096V214.096ZM531.932 215.557C532.896 216.452 533.404 217.645 533.404 219.24H535.404C535.404 217.166 534.718 215.414 533.293 214.091L531.932 215.557ZM533.404 219.24C533.404 220.785 532.9 222.018 531.905 223.013L533.32 224.427C534.714 223.033 535.404 221.279 535.404 219.24H533.404ZM531.905 223.013C530.906 224.013 529.691 224.512 528.196 224.512V226.512C530.201 226.512 531.93 225.817 533.32 224.427L531.905 223.013Z"
        fill="white" />
</svg>
