<svg width="537" height="241" viewBox="0 0 537 241" fill="none" xmlns="http://www.w3.org/2000/svg">
    <path
        d="M15.68 24.52V23.52H14.68V24.52H15.68ZM15.68 36.36H14.68V37.36H15.68V36.36ZM36.416 36.36H37.416V35.36H36.416V36.36ZM36.416 44.68V45.68H37.416V44.68H36.416ZM15.68 44.68V43.68H14.68V44.68H15.68ZM15.68 61V62H16.68V61H15.68ZM5.312 61H4.312V62H5.312V61ZM5.312 16.2V15.2H4.312V16.2H5.312ZM39.168 16.2H40.168V15.2H39.168V16.2ZM39.168 24.52V25.52H40.168V24.52H39.168ZM14.68 24.52V36.36H16.68V24.52H14.68ZM15.68 37.36H36.416V35.36H15.68V37.36ZM35.416 36.36V44.68H37.416V36.36H35.416ZM36.416 43.68H15.68V45.68H36.416V43.68ZM14.68 44.68V61H16.68V44.68H14.68ZM15.68 60H5.312V62H15.68V60ZM6.312 61V16.2H4.312V61H6.312ZM5.312 17.2H39.168V15.2H5.312V17.2ZM38.168 16.2V24.52H40.168V16.2H38.168ZM39.168 23.52H15.68V25.52H39.168V23.52ZM51.2 59.272L50.7267 60.1529L50.7345 60.1571L50.7424 60.1611L51.2 59.272ZM44.48 52.936L43.6237 53.4525L44.48 52.936ZM44.48 34.632L43.6237 34.1155H43.6237L44.48 34.632ZM51.2 28.36L51.663 29.2464L51.6679 29.2438L51.2 28.36ZM70.72 28.36L70.2467 29.2409L70.257 29.2463L70.72 28.36ZM77.44 34.632L78.2963 34.1155L77.44 34.632ZM77.44 52.936L78.2963 53.4525L77.44 52.936ZM70.72 59.272L71.1831 60.1584L71.1933 60.1529L70.72 59.272ZM67.264 50.76L66.5394 50.0708L66.539 50.0713L67.264 50.76ZM67.264 36.872L66.5306 37.5518L66.5392 37.561L66.548 37.5701L67.264 36.872ZM54.656 36.872L55.3721 37.5702L55.3806 37.5612L54.656 36.872ZM54.656 50.76L53.9314 51.4493L53.94 51.4581L54.656 50.76ZM60.992 60.512C57.5065 60.512 54.4022 59.7955 51.6576 58.3829L50.7424 60.1611C53.8004 61.7351 57.2241 62.512 60.992 62.512V60.512ZM51.6733 58.3911C48.9671 56.937 46.8617 54.9485 45.3363 52.4195L43.6237 53.4525C45.3409 56.2995 47.7156 58.535 50.7267 60.1529L51.6733 58.3911ZM45.3363 52.4195C43.8171 49.9009 43.048 47.0317 43.048 43.784H41.048C41.048 47.3629 41.9002 50.5951 43.6237 53.4525L45.3363 52.4195ZM43.048 43.784C43.048 40.5363 43.8171 37.6671 45.3363 35.1485L43.6237 34.1155C41.9002 36.9729 41.048 40.2051 41.048 43.784H43.048ZM45.3363 35.1485C46.8602 32.622 48.9622 30.6572 51.663 29.2463L50.737 27.4736C47.7205 29.0494 45.3424 31.266 43.6237 34.1155L45.3363 35.1485ZM51.6679 29.2438C54.4104 27.7918 57.511 27.056 60.992 27.056V25.056C57.2196 25.056 53.7922 25.8561 50.7321 27.4762L51.6679 29.2438ZM60.992 27.056C64.4732 27.056 67.55 27.7919 70.2467 29.2409L71.1933 27.4791C68.1727 25.8561 64.7641 25.056 60.992 25.056V27.056ZM70.257 29.2463C72.9578 30.6572 75.0598 32.622 76.5837 35.1485L78.2963 34.1155C76.5776 31.266 74.1995 29.0494 71.183 27.4736L70.257 29.2463ZM76.5837 35.1485C78.1029 37.6671 78.872 40.5363 78.872 43.784H80.872C80.872 40.2051 80.0198 36.9729 78.2963 34.1155L76.5837 35.1485ZM78.872 43.784C78.872 47.0317 78.1029 49.9009 76.5837 52.4195L78.2963 53.4525C80.0198 50.5951 80.872 47.3629 80.872 43.784H78.872ZM76.5837 52.4195C75.0583 54.9485 72.9529 56.937 70.2467 58.3911L71.1933 60.1529C74.2044 58.535 76.5791 56.2995 78.2963 53.4525L76.5837 52.4195ZM70.257 58.3857C67.5582 59.7955 64.4777 60.512 60.992 60.512V62.512C64.7596 62.512 68.1644 61.7352 71.183 60.1583L70.257 58.3857ZM60.992 54.32C63.7995 54.32 66.1613 53.3727 67.989 51.4487L66.539 50.0713C65.1241 51.5607 63.3045 52.32 60.992 52.32V54.32ZM67.9886 51.4492C69.8639 49.4777 70.76 46.887 70.76 43.784H68.76C68.76 46.4837 67.9921 48.5437 66.5394 50.0708L67.9886 51.4492ZM70.76 43.784C70.76 40.682 69.8641 38.1064 67.98 36.1739L66.548 37.5701C67.9919 39.051 68.76 41.0834 68.76 43.784H70.76ZM67.9974 36.1922C66.1719 34.2225 63.8075 33.248 60.992 33.248V35.248C63.2965 35.248 65.1135 36.0228 66.5306 37.5518L67.9974 36.1922ZM60.992 33.248C58.1766 33.248 55.7966 34.222 53.9314 36.1828L55.3806 37.5612C56.8434 36.0233 58.6874 35.248 60.992 35.248V33.248ZM53.94 36.1739C52.0559 38.1064 51.16 40.682 51.16 43.784H53.16C53.16 41.0834 53.9281 39.051 55.372 37.5701L53.94 36.1739ZM51.16 43.784C51.16 46.887 52.0561 49.4777 53.9314 51.4492L55.3806 50.0708C53.9279 48.5437 53.16 46.4837 53.16 43.784H51.16ZM53.94 51.4581C55.8071 53.3731 58.1846 54.32 60.992 54.32V52.32C58.6795 52.32 56.8329 51.5602 55.372 50.0619L53.94 51.4581ZM96.0815 31.112H95.0815V34.2195L96.8938 31.6952L96.0815 31.112ZM100.882 27.336L100.497 26.4129L100.49 26.4158L100.882 27.336ZM107.922 26.056H108.922V25.056H107.922V26.056ZM107.922 35.272L107.845 36.2691L108.922 36.3519V35.272H107.922ZM98.9615 37.576L99.6592 38.2925L99.6686 38.2831L98.9615 37.576ZM96.5295 61V62H97.5295V61H96.5295ZM86.5455 61H85.5455V62H86.5455V61ZM86.5455 26.568V25.568H85.5455V26.568H86.5455ZM96.0815 26.568H97.0815V25.568H96.0815V26.568ZM96.8938 31.6952C97.9748 30.1895 99.425 29.0426 101.273 28.2562L100.49 26.4158C98.3274 27.3361 96.5775 28.7065 95.2692 30.5288L96.8938 31.6952ZM101.266 28.2591C103.171 27.4653 105.383 27.056 107.922 27.056V25.056C105.169 25.056 102.688 25.5 100.497 26.4129L101.266 28.2591ZM106.922 26.056V35.272H108.922V26.056H106.922ZM107.998 34.2749C106.894 34.19 106.11 34.144 105.682 34.144V36.144C106.021 36.144 106.73 36.1833 107.845 36.2691L107.998 34.2749ZM105.682 34.144C102.627 34.144 100.107 35.0162 98.2544 36.8689L99.6686 38.2831C101.059 36.8931 103.019 36.144 105.682 36.144V34.144ZM98.2639 36.8595C96.3808 38.6931 95.5295 41.3876 95.5295 44.744H97.5295C97.5295 41.7004 98.2996 39.6162 99.6591 38.2925L98.2639 36.8595ZM95.5295 44.744V61H97.5295V44.744H95.5295ZM96.5295 60H86.5455V62H96.5295V60ZM87.5455 61V26.568H85.5455V61H87.5455ZM86.5455 27.568H96.0815V25.568H86.5455V27.568ZM95.0815 26.568V31.112H97.0815V26.568H95.0815ZM147.081 46.6V47.6H148.008L148.079 46.6767L147.081 46.6ZM121.034 46.6V45.6H119.79L120.057 46.8149L121.034 46.6ZM124.362 51.656L124.939 50.8396L124.362 51.656ZM135.626 52.744L135.977 53.6803L135.984 53.6774L135.992 53.6744L135.626 52.744ZM139.529 50.184L140.265 49.5061L139.571 48.7544L138.835 49.4642L139.529 50.184ZM144.842 55.944L145.595 56.6019L146.185 55.9259L145.577 55.2661L144.842 55.944ZM120.329 59.272L119.872 60.1613L119.882 60.1664L120.329 59.272ZM113.418 52.936L112.561 53.4525L113.418 52.936ZM113.354 34.696L112.494 34.1855L112.491 34.1896L113.354 34.696ZM119.946 28.36L120.42 29.2405L120.424 29.2379L119.946 28.36ZM138.505 28.232L138.975 27.3489L138.505 28.232ZM144.906 34.504L144.034 34.9943L144.038 35.0024L144.043 35.0104L144.906 34.504ZM123.721 35.528L123.081 34.7598L123.721 35.528ZM120.906 40.776L119.917 40.6239L119.74 41.776H120.906V40.776ZM137.866 40.776V41.776H139.035L138.853 40.621L137.866 40.776ZM135.049 35.592L134.397 36.3498L134.403 36.355L134.409 36.3602L135.049 35.592ZM146.273 43.912C146.273 43.9057 146.272 43.9499 146.263 44.0896C146.256 44.2133 146.244 44.3859 146.228 44.6088C146.196 45.054 146.148 45.6919 146.084 46.5233L148.079 46.6767C148.204 45.0497 148.273 44.0907 148.273 43.912H146.273ZM147.081 45.6H121.034V47.6H147.081V45.6ZM120.057 46.8149C120.579 49.1862 121.827 51.0882 123.784 52.4724L124.939 50.8396C123.397 49.7491 122.427 48.2805 122.01 46.3851L120.057 46.8149ZM123.784 52.4724C125.736 53.8529 128.125 54.512 130.889 54.512V52.512C128.449 52.512 126.486 51.9338 124.939 50.8396L123.784 52.4724ZM130.889 54.512C132.775 54.512 134.477 54.2428 135.977 53.6803L135.274 51.8077C134.044 52.2692 132.588 52.512 130.889 52.512V54.512ZM135.992 53.6744C137.533 53.0672 138.944 52.138 140.224 50.9038L138.835 49.4642C137.726 50.534 136.534 51.3114 135.259 51.8136L135.992 53.6744ZM138.794 50.8619L144.106 56.6219L145.577 55.2661L140.265 49.5061L138.794 50.8619ZM144.088 55.2861C141.084 58.7258 136.656 60.512 130.633 60.512V62.512C137.07 62.512 142.114 60.5862 145.595 56.6019L144.088 55.2861ZM130.633 60.512C126.881 60.512 123.604 59.791 120.777 58.3776L119.882 60.1664C123.029 61.7397 126.621 62.512 130.633 62.512V60.512ZM120.787 58.3827C117.953 56.9254 115.793 54.9375 114.274 52.4195L112.561 53.4525C114.285 56.3105 116.733 58.5466 119.872 60.1613L120.787 58.3827ZM114.274 52.4195C112.755 49.9009 111.985 47.0317 111.985 43.784H109.985C109.985 47.3629 110.838 50.5951 112.561 53.4525L114.274 52.4195ZM111.985 43.784C111.985 40.5764 112.735 37.7245 114.216 35.2024L112.491 34.1896C110.815 37.0435 109.985 40.2502 109.985 43.784H111.985ZM114.213 35.2065C115.743 32.6305 117.807 30.647 120.42 29.2405L119.471 27.4795C116.537 29.0596 114.207 31.3001 112.494 34.1855L114.213 35.2065ZM120.424 29.2379C123.082 27.7882 126.051 27.056 129.354 27.056V25.056C125.743 25.056 122.441 25.8598 119.467 27.4821L120.424 29.2379ZM129.354 27.056C132.576 27.056 135.463 27.748 138.036 29.1151L138.975 27.3489C136.087 25.8147 132.873 25.056 129.354 25.056V27.056ZM138.036 29.1151C140.596 30.4748 142.59 32.428 144.034 34.9943L145.777 34.0137C144.149 31.1187 141.877 28.8906 138.975 27.3489L138.036 29.1151ZM144.043 35.0104C145.519 37.5231 146.273 40.479 146.273 43.912H148.273C148.273 40.177 147.449 36.8609 145.768 33.9976L144.043 35.0104ZM129.417 32.608C126.955 32.608 124.821 33.3104 123.081 34.7598L124.362 36.2962C125.694 35.1856 127.358 34.608 129.417 34.608V32.608ZM123.081 34.7598C121.335 36.2152 120.291 38.196 119.917 40.6239L121.894 40.9281C122.203 38.9187 123.036 37.4008 124.362 36.2962L123.081 34.7598ZM120.906 41.776H137.866V39.776H120.906V41.776ZM138.853 40.621C138.479 38.2314 137.432 36.2754 135.69 34.8238L134.409 36.3602C135.739 37.4686 136.57 38.9686 136.878 40.931L138.853 40.621ZM135.702 34.8342C133.967 33.3401 131.851 32.608 129.417 32.608V34.608C131.421 34.608 133.06 35.1986 134.397 36.3498L135.702 34.8342ZM187.471 26.568L188.393 26.9567L188.979 25.568H187.471V26.568ZM172.943 61V62H173.607L173.865 61.3887L172.943 61ZM162.639 61L161.718 61.3873L161.975 62H162.639V61ZM148.176 26.568V25.568H146.671L147.254 26.9553L148.176 26.568ZM158.48 26.568L159.406 26.1909L159.152 25.568H158.48V26.568ZM168.016 49.992L167.089 50.3691L168 52.6067L168.937 50.3798L168.016 49.992ZM177.872 26.568V25.568H177.207L176.95 26.1802L177.872 26.568ZM186.55 26.1793L172.022 60.6113L173.865 61.3887L188.393 26.9567L186.55 26.1793ZM172.943 60H162.639V62H172.943V60ZM163.561 60.6127L149.097 26.1807L147.254 26.9553L161.718 61.3873L163.561 60.6127ZM148.176 27.568H158.48V25.568H148.176V27.568ZM157.553 26.9451L167.089 50.3691L168.942 49.6149L159.406 26.1909L157.553 26.9451ZM168.937 50.3798L178.793 26.9558L176.95 26.1802L167.094 49.6042L168.937 50.3798ZM177.872 27.568H187.471V25.568H177.872V27.568ZM224.144 46.6V47.6H225.07L225.141 46.6767L224.144 46.6ZM198.096 46.6V45.6H196.852L197.119 46.8149L198.096 46.6ZM201.424 51.656L202.001 50.8396L201.424 51.656ZM212.688 52.744L213.039 53.6803L213.047 53.6774L213.055 53.6744L212.688 52.744ZM216.592 50.184L217.327 49.5061L216.634 48.7544L215.898 49.4642L216.592 50.184ZM221.904 55.944L222.657 56.6019L223.248 55.9259L222.639 55.2661L221.904 55.944ZM197.392 59.272L196.935 60.1613L196.945 60.1664L197.392 59.272ZM190.48 52.936L189.624 53.4525L190.48 52.936ZM190.416 34.696L189.556 34.1855L189.554 34.1896L190.416 34.696ZM197.008 28.36L197.482 29.2405L197.487 29.2379L197.008 28.36ZM215.568 28.232L216.037 27.3489L215.568 28.232ZM221.968 34.504L221.096 34.9943L221.101 35.0024L221.106 35.0104L221.968 34.504ZM200.784 35.528L200.144 34.7598L200.784 35.528ZM197.968 40.776L196.98 40.6239L196.802 41.776H197.968V40.776ZM214.928 40.776V41.776H216.097L215.916 40.621L214.928 40.776ZM212.112 35.592L211.459 36.3498L211.466 36.355L211.472 36.3602L212.112 35.592ZM223.336 43.912C223.336 43.9057 223.335 43.9499 223.326 44.0896C223.318 44.2133 223.306 44.3859 223.291 44.6088C223.259 45.054 223.211 45.6919 223.147 46.5233L225.141 46.6767C225.266 45.0497 225.336 44.0907 225.336 43.912H223.336ZM224.144 45.6H198.096V47.6H224.144V45.6ZM197.119 46.8149C197.641 49.1862 198.89 51.0882 200.847 52.4724L202.001 50.8396C200.46 49.7491 199.49 48.2805 199.073 46.3851L197.119 46.8149ZM200.847 52.4724C202.798 53.8529 205.188 54.512 207.952 54.512V52.512C205.511 52.512 203.548 51.9338 202.001 50.8396L200.847 52.4724ZM207.952 54.512C209.837 54.512 211.539 54.2428 213.039 53.6803L212.337 51.8077C211.106 52.2692 209.651 52.512 207.952 52.512V54.512ZM213.055 53.6744C214.596 53.0672 216.006 52.138 217.286 50.9038L215.898 49.4642C214.788 50.534 213.596 51.3114 212.321 51.8136L213.055 53.6744ZM215.857 50.8619L221.169 56.6219L222.639 55.2661L217.327 49.5061L215.857 50.8619ZM221.151 55.2861C218.146 58.7258 213.719 60.512 207.696 60.512V62.512C214.132 62.512 219.177 60.5862 222.657 56.6019L221.151 55.2861ZM207.696 60.512C203.943 60.512 200.666 59.791 197.839 58.3776L196.945 60.1664C200.091 61.7397 203.683 62.512 207.696 62.512V60.512ZM197.849 58.3827C195.016 56.9254 192.855 54.9375 191.336 52.4195L189.624 53.4525C191.348 56.3105 193.795 58.5466 196.935 60.1613L197.849 58.3827ZM191.336 52.4195C189.817 49.9009 189.048 47.0317 189.048 43.784H187.048C187.048 47.3629 187.9 50.5951 189.624 53.4525L191.336 52.4195ZM189.048 43.784C189.048 40.5764 189.797 37.7245 191.278 35.2024L189.554 34.1896C187.878 37.0435 187.048 40.2502 187.048 43.784H189.048ZM191.276 35.2065C192.805 32.6305 194.87 30.647 197.482 29.2405L196.534 27.4795C193.599 29.0596 191.269 31.3001 189.556 34.1855L191.276 35.2065ZM197.487 29.2379C200.145 27.7882 203.114 27.056 206.416 27.056V25.056C202.806 25.056 199.503 25.8598 196.529 27.4821L197.487 29.2379ZM206.416 27.056C209.638 27.056 212.525 27.748 215.099 29.1151L216.037 27.3489C213.149 25.8147 209.935 25.056 206.416 25.056V27.056ZM215.099 29.1151C217.658 30.4748 219.653 32.428 221.096 34.9943L222.84 34.0137C221.211 31.1187 218.939 28.8906 216.037 27.3489L215.099 29.1151ZM221.106 35.0104C222.581 37.5231 223.336 40.479 223.336 43.912H225.336C225.336 40.177 224.512 36.8609 222.83 33.9976L221.106 35.0104ZM206.48 32.608C204.017 32.608 201.883 33.3104 200.144 34.7598L201.424 36.2962C202.757 35.1856 204.42 34.608 206.48 34.608V32.608ZM200.144 34.7598C198.397 36.2152 197.353 38.196 196.98 40.6239L198.956 40.9281C199.266 38.9187 200.099 37.4008 201.424 36.2962L200.144 34.7598ZM197.968 41.776H214.928V39.776H197.968V41.776ZM215.916 40.621C215.541 38.2314 214.494 36.2754 212.752 34.8238L211.472 36.3602C212.802 37.4686 213.632 38.9686 213.94 40.931L215.916 40.621ZM212.765 34.8342C211.029 33.3401 208.914 32.608 206.48 32.608V34.608C208.484 34.608 210.123 35.1986 211.459 36.3498L212.765 34.8342ZM240.519 31.112H239.519V34.2195L241.331 31.6952L240.519 31.112ZM245.319 27.336L244.934 26.4129L244.927 26.4158L245.319 27.336ZM252.359 26.056H253.359V25.056H252.359V26.056ZM252.359 35.272L252.282 36.2691L253.359 36.3519V35.272H252.359ZM243.399 37.576L244.097 38.2925L244.106 38.2831L243.399 37.576ZM240.967 61V62H241.967V61H240.967ZM230.983 61H229.983V62H230.983V61ZM230.983 26.568V25.568H229.983V26.568H230.983ZM240.519 26.568H241.519V25.568H240.519V26.568ZM241.331 31.6952C242.412 30.1895 243.862 29.0426 245.711 28.2562L244.927 26.4158C242.765 27.3361 241.015 28.7065 239.707 30.5288L241.331 31.6952ZM245.704 28.2591C247.609 27.4653 249.821 27.056 252.359 27.056V25.056C249.607 25.056 247.125 25.5 244.934 26.4129L245.704 28.2591ZM251.359 26.056V35.272H253.359V26.056H251.359ZM252.436 34.2749C251.332 34.19 250.547 34.144 250.119 34.144V36.144C250.459 36.144 251.168 36.1833 252.282 36.2691L252.436 34.2749ZM250.119 34.144C247.064 34.144 244.545 35.0162 242.692 36.8689L244.106 38.2831C245.496 36.8931 247.456 36.144 250.119 36.144V34.144ZM242.701 36.8595C240.818 38.6931 239.967 41.3876 239.967 44.744H241.967C241.967 41.7004 242.737 39.6162 244.097 38.2925L242.701 36.8595ZM239.967 44.744V61H241.967V44.744H239.967ZM240.967 60H230.983V62H240.967V60ZM231.983 61V26.568H229.983V61H231.983ZM230.983 27.568H240.519V25.568H230.983V27.568ZM239.519 26.568V31.112H241.519V26.568H239.519ZM281.79 60.36L281.504 61.3182L281.512 61.3204L281.519 61.3224L281.79 60.36ZM273.854 56.584L272.943 56.173L272.617 56.8958L273.246 57.3779L273.854 56.584ZM277.375 48.776L277.966 47.9696L276.97 47.2395L276.463 48.365L277.375 48.776ZM284.223 52.168L284.53 51.2163L284.223 52.168ZM298.686 52.168L299.205 53.0232L299.214 53.0175L299.223 53.0117L298.686 52.168ZM299.518 46.024L298.852 46.7692L298.872 46.7876L298.894 46.8049L299.518 46.024ZM296.319 44.296L296.002 45.2447L296.012 45.2477L296.319 44.296ZM291.07 42.888L290.839 43.861L290.846 43.8624L291.07 42.888ZM282.686 40.456L283.036 39.5189L282.686 40.456ZM277.055 36.552L276.295 37.2029L276.304 37.213L277.055 36.552ZM276.862 22.344L277.692 22.9026L277.697 22.8948L276.862 22.344ZM283.198 17.288L282.801 16.3703L282.796 16.3725L283.198 17.288ZM302.014 16.456L302.257 15.4859L302.014 16.456ZM309.182 19.4L310.109 19.7766L310.426 18.9976L309.712 18.552L309.182 19.4ZM305.983 27.272L305.489 28.1419L306.48 28.7036L306.909 27.6486L305.983 27.272ZM287.103 25.16L286.548 24.3279L286.542 24.3319L286.536 24.336L287.103 25.16ZM287.422 32.328L286.985 33.2272L286.999 33.2343L287.014 33.2408L287.422 32.328ZM294.783 34.504L295.014 33.5311L295.006 33.5292L294.998 33.5275L294.783 34.504ZM303.167 36.936L303.516 35.9989L303.167 36.936ZM308.734 40.776L307.983 41.4359L307.992 41.446L308.734 40.776ZM308.927 54.92L308.1 54.3577L308.097 54.3614L308.927 54.92ZM302.526 59.912L302.129 58.9943L302.526 59.912ZM292.095 60.768C288.643 60.768 285.299 60.3107 282.062 59.3975L281.519 61.3224C284.938 62.2866 288.464 62.768 292.095 62.768V60.768ZM282.077 59.4018C278.869 58.4436 276.344 57.2311 274.463 55.7901L273.246 57.3779C275.376 59.0089 278.141 60.3137 281.504 61.3182L282.077 59.4018ZM274.766 56.995L278.286 49.187L276.463 48.365L272.943 56.173L274.766 56.995ZM276.783 49.5824C278.803 51.0634 281.185 52.2389 283.915 53.1197L284.53 51.2163C281.969 50.3905 279.786 49.3046 277.966 47.9696L276.783 49.5824ZM283.915 53.1197C286.655 54.0034 289.404 54.448 292.159 54.448V52.448C289.623 52.448 287.081 52.0393 284.53 51.2163L283.915 53.1197ZM292.159 54.448C295.161 54.448 297.56 54.0198 299.205 53.0232L298.168 51.3128C296.997 52.0229 295.044 52.448 292.159 52.448V54.448ZM299.223 53.0117C300.869 51.9645 301.798 50.4969 301.798 48.648H299.798C299.798 49.7004 299.32 50.5795 298.15 51.3243L299.223 53.0117ZM301.798 48.648C301.798 47.269 301.227 46.1102 300.143 45.2431L298.894 46.8049C299.517 47.3032 299.798 47.8937 299.798 48.648H301.798ZM300.185 45.2788C299.246 44.4382 298.046 43.8024 296.625 43.3443L296.012 45.2477C297.237 45.6429 298.17 46.1592 298.852 46.7692L300.185 45.2788ZM296.635 43.3473C295.311 42.9062 293.527 42.4286 291.295 41.9136L290.846 43.8624C293.051 44.3714 294.766 44.8325 296.002 45.2447L296.635 43.3473ZM291.302 41.9151C287.91 41.1096 285.159 40.3099 283.036 39.5189L282.337 41.3931C284.566 42.2234 287.404 43.045 290.839 43.8609L291.302 41.9151ZM283.036 39.5189C281.019 38.7675 279.278 37.563 277.805 35.891L276.304 37.213C277.989 39.125 280.002 40.5232 282.337 41.3931L283.036 39.5189ZM277.814 35.9012C276.471 34.3345 275.75 32.1971 275.75 29.384H273.75C273.75 32.5442 274.566 35.1855 276.295 37.2028L277.814 35.9012ZM275.75 29.384C275.75 26.9735 276.399 24.8226 277.692 22.9026L276.033 21.7854C274.51 24.0468 273.75 26.5892 273.75 29.384H275.75ZM277.697 22.8948C278.979 20.9522 280.925 19.3793 283.601 18.2035L282.796 16.3725C279.84 17.6713 277.562 19.4691 276.028 21.7932L277.697 22.8948ZM283.596 18.2057C286.296 17.0369 289.63 16.432 293.63 16.432V14.432C289.439 14.432 285.818 15.0645 282.801 16.3703L283.596 18.2057ZM293.63 16.432C296.409 16.432 299.122 16.7636 301.772 17.4261L302.257 15.4859C299.446 14.783 296.57 14.432 293.63 14.432V16.432ZM301.772 17.4261C304.417 18.0875 306.707 19.0318 308.652 20.248L309.712 18.552C307.562 17.2082 305.073 16.1898 302.257 15.4859L301.772 17.4261ZM308.256 19.0234L305.056 26.8954L306.909 27.6486L310.109 19.7766L308.256 19.0234ZM306.476 26.4021C302.209 23.9831 297.902 22.752 293.566 22.752V24.752C297.508 24.752 301.478 25.8676 305.489 28.1419L306.476 26.4021ZM293.566 22.752C290.593 22.752 288.2 23.2264 286.548 24.3279L287.657 25.9921C288.821 25.2162 290.737 24.752 293.566 24.752V22.752ZM286.536 24.336C284.924 25.4439 284.055 26.9773 284.055 28.872H286.055C286.055 27.6947 286.55 26.7535 287.669 25.984L286.536 24.336ZM284.055 28.872C284.055 29.8207 284.302 30.6942 284.822 31.4532C285.336 32.2046 286.079 32.7866 286.985 33.2272L287.86 31.4288C287.187 31.1014 286.746 30.7234 286.471 30.3228C286.202 29.9298 286.055 29.4593 286.055 28.872H284.055ZM287.014 33.2408C288.73 34.0084 291.263 34.751 294.567 35.4805L294.998 33.5275C291.731 32.8063 289.358 32.0982 287.831 31.4152L287.014 33.2408ZM294.551 35.4769C297.943 36.2824 300.694 37.0821 302.817 37.8731L303.516 35.9989C301.287 35.1686 298.449 34.347 295.014 33.5311L294.551 35.4769ZM302.817 37.8731C304.838 38.6259 306.556 39.8104 307.983 41.4358L309.486 40.1162C307.841 38.2429 305.847 36.8675 303.516 35.9989L302.817 37.8731ZM307.992 41.446C309.364 42.9663 310.103 45.0723 310.103 47.88H312.103C312.103 44.7144 311.262 42.0843 309.477 40.106L307.992 41.446ZM310.103 47.88C310.103 50.2378 309.438 52.3888 308.1 54.3577L309.753 55.4823C311.316 53.1845 312.103 50.6422 312.103 47.88H310.103ZM308.097 54.3614C306.819 56.2598 304.854 57.8149 302.129 58.9943L302.924 60.8297C305.916 59.5344 308.218 57.7615 309.756 55.4786L308.097 54.3614ZM302.129 58.9943C299.429 60.1631 296.095 60.768 292.095 60.768V62.768C296.286 62.768 299.907 62.1355 302.924 60.8297L302.129 58.9943ZM339.691 59.336L340.285 60.1402L340.896 59.6888L340.625 58.9793L339.691 59.336ZM336.043 61L336.279 61.9719L336.289 61.9694L336.299 61.9667L336.043 61ZM322.027 58.376L321.341 59.1038L321.348 59.1103L322.027 58.376ZM318.699 35.016H319.699V34.016H318.699V35.016ZM313.387 35.016H312.387V36.016H313.387V35.016ZM313.387 27.336V26.336H312.387V27.336H313.387ZM318.699 27.336V28.336H319.699V27.336H318.699ZM318.699 18.952V17.952H317.699V18.952H318.699ZM328.683 18.952H329.683V17.952H328.683V18.952ZM328.683 27.336H327.683V28.336H328.683V27.336ZM337.259 27.336H338.259V26.336H337.259V27.336ZM337.259 35.016V36.016H338.259V35.016H337.259ZM328.683 35.016V34.016H327.683V35.016H328.683ZM329.771 52.424L329.026 53.0908L329.044 53.1115L329.064 53.1311L329.771 52.424ZM337.003 52.296L337.937 51.9393L337.458 50.6843L336.393 51.5034L337.003 52.296ZM339.097 58.5318C338.237 59.167 337.143 59.6744 335.787 60.0333L336.299 61.9667C337.844 61.5576 339.182 60.9556 340.285 60.1402L339.097 58.5318ZM335.807 60.0281C334.483 60.3492 333.069 60.512 331.563 60.512V62.512C333.214 62.512 334.787 62.3335 336.279 61.9719L335.807 60.0281ZM331.563 60.512C327.634 60.512 324.728 59.5116 322.706 57.6417L321.348 59.1103C323.848 61.4218 327.3 62.512 331.563 62.512V60.512ZM322.713 57.6482C320.755 55.8029 319.699 53.0326 319.699 49.16H317.699C317.699 53.3941 318.862 56.7677 321.341 59.1038L322.713 57.6482ZM319.699 49.16V35.016H317.699V49.16H319.699ZM318.699 34.016H313.387V36.016H318.699V34.016ZM314.387 35.016V27.336H312.387V35.016H314.387ZM313.387 28.336H318.699V26.336H313.387V28.336ZM319.699 27.336V18.952H317.699V27.336H319.699ZM318.699 19.952H328.683V17.952H318.699V19.952ZM327.683 18.952V27.336H329.683V18.952H327.683ZM328.683 28.336H337.259V26.336H328.683V28.336ZM336.259 27.336V35.016H338.259V27.336H336.259ZM337.259 34.016H328.683V36.016H337.259V34.016ZM327.683 35.016V49.032H329.683V35.016H327.683ZM327.683 49.032C327.683 50.6453 328.088 52.0429 329.026 53.0908L330.516 51.7572C330.003 51.1838 329.683 50.32 329.683 49.032H327.683ZM329.064 53.1311C330.065 54.132 331.412 54.576 332.971 54.576V52.576C331.799 52.576 331.013 52.252 330.478 51.7169L329.064 53.1311ZM332.971 54.576C334.741 54.576 336.306 54.0935 337.613 53.0886L336.393 51.5034C335.481 52.2052 334.359 52.576 332.971 52.576V54.576ZM336.069 52.6527L338.757 59.6927L340.625 58.9793L337.937 51.9393L336.069 52.6527ZM354.832 31.112H353.832V34.2195L355.644 31.6952L354.832 31.112ZM359.632 27.336L359.247 26.4129L359.24 26.4158L359.632 27.336ZM366.672 26.056H367.672V25.056H366.672V26.056ZM366.672 35.272L366.595 36.2691L367.672 36.3519V35.272H366.672ZM357.711 37.576L358.409 38.2925L358.419 38.2831L357.711 37.576ZM355.28 61V62H356.28V61H355.28ZM345.296 61H344.296V62H345.296V61ZM345.296 26.568V25.568H344.296V26.568H345.296ZM354.832 26.568H355.832V25.568H354.832V26.568ZM355.644 31.6952C356.725 30.1895 358.175 29.0426 360.023 28.2562L359.24 26.4158C357.077 27.3361 355.328 28.7065 354.019 30.5288L355.644 31.6952ZM360.016 28.2591C361.921 27.4653 364.133 27.056 366.672 27.056V25.056C363.919 25.056 361.438 25.5 359.247 26.4129L360.016 28.2591ZM365.672 26.056V35.272H367.672V26.056H365.672ZM366.748 34.2749C365.644 34.19 364.86 34.144 364.431 34.144V36.144C364.771 36.144 365.48 36.1833 366.595 36.2691L366.748 34.2749ZM364.431 34.144C361.377 34.144 358.857 35.0162 357.004 36.8689L358.419 38.2831C359.809 36.8931 361.769 36.144 364.431 36.144V34.144ZM357.014 36.8595C355.131 38.6931 354.28 41.3876 354.28 44.744H356.28C356.28 41.7004 357.05 39.6162 358.409 38.2925L357.014 36.8595ZM354.28 44.744V61H356.28V44.744H354.28ZM355.28 60H345.296V62H355.28V60ZM346.296 61V26.568H344.296V61H346.296ZM345.296 27.568H354.832V25.568H345.296V27.568ZM353.832 26.568V31.112H355.832V26.568H353.832ZM378.888 59.272L378.414 60.1529L378.422 60.1571L378.43 60.1611L378.888 59.272ZM372.168 52.936L371.311 53.4525L372.168 52.936ZM372.168 34.632L371.311 34.1155L372.168 34.632ZM378.888 28.36L379.351 29.2464L379.355 29.2438L378.888 28.36ZM398.408 28.36L397.934 29.2409L397.944 29.2463L398.408 28.36ZM405.128 34.632L405.984 34.1155L405.128 34.632ZM405.128 52.936L405.984 53.4525L405.128 52.936ZM398.408 59.272L398.871 60.1584L398.881 60.1529L398.408 59.272ZM394.952 50.76L394.227 50.0708L394.227 50.0713L394.952 50.76ZM394.952 36.872L394.218 37.5518L394.227 37.561L394.236 37.5701L394.952 36.872ZM382.344 36.872L383.06 37.5702L383.068 37.5612L382.344 36.872ZM382.344 50.76L381.619 51.4493L381.628 51.4581L382.344 50.76ZM388.68 60.512C385.194 60.512 382.09 59.7955 379.345 58.3829L378.43 60.1611C381.488 61.7351 384.912 62.512 388.68 62.512V60.512ZM379.361 58.3911C376.655 56.937 374.549 54.9485 373.024 52.4195L371.311 53.4525C373.028 56.2995 375.403 58.535 378.414 60.1529L379.361 58.3911ZM373.024 52.4195C371.505 49.9009 370.736 47.0317 370.736 43.784H368.736C368.736 47.3629 369.588 50.5951 371.311 53.4525L373.024 52.4195ZM370.736 43.784C370.736 40.5363 371.505 37.6671 373.024 35.1485L371.311 34.1155C369.588 36.9729 368.736 40.2051 368.736 43.784H370.736ZM373.024 35.1485C374.548 32.622 376.65 30.6572 379.351 29.2463L378.424 27.4736C375.408 29.0494 373.03 31.266 371.311 34.1155L373.024 35.1485ZM379.355 29.2438C382.098 27.7918 385.199 27.056 388.68 27.056V25.056C384.907 25.056 381.48 25.8561 378.42 27.4762L379.355 29.2438ZM388.68 27.056C392.161 27.056 395.237 27.7919 397.934 29.2409L398.881 27.4791C395.86 25.8561 392.452 25.056 388.68 25.056V27.056ZM397.944 29.2463C400.645 30.6572 402.747 32.622 404.271 35.1485L405.984 34.1155C404.265 31.266 401.887 29.0494 398.871 27.4736L397.944 29.2463ZM404.271 35.1485C405.79 37.6671 406.56 40.5363 406.56 43.784H408.56C408.56 40.2051 407.707 36.9729 405.984 34.1155L404.271 35.1485ZM406.56 43.784C406.56 47.0317 405.79 49.9009 404.271 52.4195L405.984 53.4525C407.707 50.5951 408.56 47.3629 408.56 43.784H406.56ZM404.271 52.4195C402.746 54.9485 400.64 56.937 397.934 58.3911L398.881 60.1529C401.892 58.535 404.267 56.2995 405.984 53.4525L404.271 52.4195ZM397.944 58.3857C395.246 59.7955 392.165 60.512 388.68 60.512V62.512C392.447 62.512 395.852 61.7352 398.871 60.1583L397.944 58.3857ZM388.68 54.32C391.487 54.32 393.849 53.3727 395.677 51.4487L394.227 50.0713C392.812 51.5607 390.992 52.32 388.68 52.32V54.32ZM395.676 51.4492C397.551 49.4777 398.448 46.887 398.448 43.784H396.448C396.448 46.4837 395.68 48.5437 394.227 50.0708L395.676 51.4492ZM398.448 43.784C398.448 40.682 397.552 38.1064 395.668 36.1739L394.236 37.5701C395.679 39.051 396.448 41.0834 396.448 43.784H398.448ZM395.685 36.1922C393.859 34.2225 391.495 33.248 388.68 33.248V35.248C390.984 35.248 392.801 36.0228 394.218 37.5518L395.685 36.1922ZM388.68 33.248C385.864 33.248 383.484 34.222 381.619 36.1828L383.068 37.5612C384.531 36.0233 386.375 35.248 388.68 35.248V33.248ZM381.628 36.1739C379.743 38.1064 378.848 40.682 378.848 43.784H380.848C380.848 41.0834 381.616 39.051 383.06 37.5701L381.628 36.1739ZM378.848 43.784C378.848 46.887 379.744 49.4777 381.619 51.4492L383.068 50.0708C381.615 48.5437 380.848 46.4837 380.848 43.784H378.848ZM381.628 51.4581C383.495 53.3731 385.872 54.32 388.68 54.32V52.32C386.367 52.32 384.52 51.5602 383.06 50.0619L381.628 51.4581ZM445.465 29.896L444.764 30.6089L444.77 30.6146L445.465 29.896ZM449.433 61V62H450.433V61H449.433ZM439.449 61H438.449V62H439.449V61ZM437.657 36.744L436.904 37.4025L436.91 37.4084L436.915 37.4143L437.657 36.744ZM426.457 37.064L427.174 37.7611L427.183 37.7512L426.457 37.064ZM424.217 61V62H425.217V61H424.217ZM414.233 61H413.233V62H414.233V61ZM414.233 26.568V25.568H413.233V26.568H414.233ZM423.769 26.568H424.769V25.568H423.769V26.568ZM423.769 30.6H422.769V33.181L424.508 31.2738L423.769 30.6ZM428.697 27.272L429.061 28.2032L429.07 28.1998L429.079 28.1963L428.697 27.272ZM435.161 27.056C439.213 27.056 442.38 28.2638 444.764 30.6089L446.166 29.1831C443.345 26.4082 439.642 25.056 435.161 25.056V27.056ZM444.77 30.6146C447.157 32.9252 448.433 36.4217 448.433 41.288H450.433C450.433 36.0849 449.063 31.9868 446.16 29.1774L444.77 30.6146ZM448.433 41.288V61H450.433V41.288H448.433ZM449.433 60H439.449V62H449.433V60ZM440.449 61V42.824H438.449V61H440.449ZM440.449 42.824C440.449 39.9729 439.829 37.6566 438.399 36.0737L436.915 37.4143C437.874 38.4767 438.449 40.2138 438.449 42.824H440.449ZM438.41 36.0855C436.98 34.4514 434.946 33.696 432.473 33.696V35.696C434.523 35.696 435.945 36.306 436.904 37.4025L438.41 36.0855ZM432.473 33.696C429.728 33.696 427.443 34.5664 425.731 36.3768L427.183 37.7512C428.458 36.4043 430.183 35.696 432.473 35.696V33.696ZM425.74 36.3669C423.999 38.1574 423.217 40.7568 423.217 43.976H425.217C425.217 41.0512 425.928 39.0426 427.174 37.7611L425.74 36.3669ZM423.217 43.976V61H425.217V43.976H423.217ZM424.217 60H414.233V62H424.217V60ZM415.233 61V26.568H413.233V61H415.233ZM414.233 27.568H423.769V25.568H414.233V27.568ZM422.769 26.568V30.6H424.769V26.568H422.769ZM424.508 31.2738C425.72 29.9448 427.231 28.9195 429.061 28.2032L428.333 26.3408C426.238 27.1605 424.464 28.3539 423.03 29.9262L424.508 31.2738ZM429.079 28.1963C430.908 27.4406 432.932 27.056 435.161 27.056V25.056C432.697 25.056 430.411 25.4821 428.315 26.3477L429.079 28.1963ZM494.378 26.568H495.378V25.568H494.378V26.568ZM489.45 69.32L488.767 68.5896L489.45 69.32ZM465.578 72.712L465.316 73.6771L465.578 72.712ZM458.154 69.192L457.279 68.7077L456.866 69.4539L457.538 69.9795L458.154 69.192ZM462.122 62.024L462.758 61.2521L461.829 60.4876L461.247 61.5397L462.122 62.024ZM467.626 64.84L467.937 63.8895L467.928 63.8868L467.92 63.8842L467.626 64.84ZM481.898 63.56L481.22 62.8252L481.21 62.8342L481.2 62.8435L481.898 63.56ZM484.394 55.048H485.394V52.4642L483.655 54.3748L484.394 55.048ZM464.81 57.288L464.334 58.1675L464.343 58.1722L464.351 58.1766L464.81 57.288ZM458.602 51.4L459.456 50.8791L458.602 51.4ZM458.602 33.992L459.456 34.5129L458.602 33.992ZM464.81 28.168L465.275 29.0536L465.28 29.0507L464.81 28.168ZM484.906 30.984L484.122 31.605L485.906 33.8567V30.984H484.906ZM484.906 26.568V25.568H483.906V26.568H484.906ZM481.962 48.84L482.64 49.5748L482.641 49.5741L481.962 48.84ZM481.962 36.616L481.274 37.3415L481.283 37.3505L481.293 37.3593L481.962 36.616ZM468.97 36.616L469.639 37.3594L469.649 37.3501L468.97 36.616ZM468.97 48.84L468.291 49.5742L468.301 49.5833L468.97 48.84ZM493.378 26.568V55.24H495.378V26.568H493.378ZM493.378 55.24C493.378 61.3924 491.779 65.7728 488.767 68.5896L490.133 70.0504C493.691 66.7232 495.378 61.7169 495.378 55.24H493.378ZM488.767 68.5896C485.73 71.429 481.214 72.928 475.05 72.928V74.928C481.515 74.928 486.599 73.355 490.133 70.0504L488.767 68.5896ZM475.05 72.928C471.804 72.928 468.735 72.5327 465.84 71.7469L465.316 73.6771C468.394 74.5126 471.64 74.928 475.05 74.928V72.928ZM465.84 71.7469C462.952 70.963 460.606 69.841 458.77 68.4045L457.538 69.9795C459.628 71.615 462.231 72.8396 465.316 73.6771L465.84 71.7469ZM459.029 69.6763L462.997 62.5083L461.247 61.5397L457.279 68.7077L459.029 69.6763ZM461.486 62.7959C463.058 64.0906 465.017 65.0835 467.332 65.7958L467.92 63.8842C465.798 63.2312 464.087 62.3467 462.758 61.2521L461.486 62.7959ZM467.315 65.7905C469.629 66.5469 471.952 66.928 474.282 66.928V64.928C472.174 64.928 470.06 64.5838 467.937 63.8895L467.315 65.7905ZM474.282 66.928C477.864 66.928 480.71 66.1129 482.596 64.2765L481.2 62.8435C479.844 64.1644 477.612 64.928 474.282 64.928V66.928ZM482.576 64.2948C484.516 62.5043 485.394 59.8432 485.394 56.52H483.394C483.394 59.5115 482.608 61.5437 481.22 62.8252L482.576 64.2948ZM485.394 56.52V55.048H483.394V56.52H485.394ZM483.655 54.3748C481.279 56.9835 477.945 58.336 473.514 58.336V60.336C478.384 60.336 482.303 58.8299 485.133 55.7212L483.655 54.3748ZM473.514 58.336C470.506 58.336 467.764 57.6871 465.269 56.3994L464.351 58.1766C467.147 59.6196 470.207 60.336 473.514 60.336V58.336ZM465.286 56.4085C462.838 55.0842 460.899 53.2451 459.456 50.8791L457.748 51.9209C459.377 54.5896 461.577 56.6758 464.334 58.1675L465.286 56.4085ZM459.456 50.8791C458.026 48.5361 457.298 45.8191 457.298 42.696H455.298C455.298 46.1435 456.106 49.2292 457.748 51.9209L459.456 50.8791ZM457.298 42.696C457.298 39.5729 458.026 36.8559 459.456 34.5129L457.748 33.4711C456.106 36.1628 455.298 39.2485 455.298 42.696H457.298ZM459.456 34.5129C460.898 32.1495 462.833 30.3345 465.275 29.0535L464.345 27.2825C461.582 28.7322 459.378 30.7998 457.748 33.4711L459.456 34.5129ZM465.28 29.0507C467.773 27.7239 470.511 27.056 473.514 27.056V25.056C470.202 25.056 467.138 25.7961 464.34 27.2853L465.28 29.0507ZM473.514 27.056C478.266 27.056 481.746 28.6058 484.122 31.605L485.69 30.363C482.86 26.7915 478.746 25.056 473.514 25.056V27.056ZM485.906 30.984V26.568H483.906V30.984H485.906ZM484.906 27.568H494.378V25.568H484.906V27.568ZM475.498 52.144C478.35 52.144 480.761 51.3096 482.64 49.5748L481.284 48.1052C479.835 49.4424 477.937 50.144 475.498 50.144V52.144ZM482.641 49.5741C484.571 47.7893 485.522 45.4663 485.522 42.696H483.522C483.522 44.9604 482.767 46.7333 481.283 48.1059L482.641 49.5741ZM485.522 42.696C485.522 39.9257 484.57 37.6179 482.631 35.8727L481.293 37.3593C482.767 38.6861 483.522 40.4316 483.522 42.696H485.522ZM482.65 35.8905C480.772 34.1086 478.357 33.248 475.498 33.248V35.248C477.929 35.248 479.824 35.9661 481.274 37.3415L482.65 35.8905ZM475.498 33.248C472.638 33.248 470.208 34.1085 468.291 35.8819L469.649 37.3501C471.145 35.9661 473.067 35.248 475.498 35.248V33.248ZM468.301 35.8727C466.362 37.6179 465.41 39.9257 465.41 42.696H467.41C467.41 40.4316 468.165 38.6861 469.639 37.3593L468.301 35.8727ZM465.41 42.696C465.41 45.4663 466.361 47.7893 468.291 49.5741L469.649 48.1059C468.165 46.7333 467.41 44.9604 467.41 42.696H465.41ZM468.301 49.5833C470.219 51.3095 472.646 52.144 475.498 52.144V50.144C473.06 50.144 471.134 49.4425 469.639 48.0967L468.301 49.5833ZM511.927 50.824L511.219 51.5311L511.226 51.5378L511.233 51.5443L511.927 50.824ZM513.334 57.8L512.364 57.5575L513.334 57.8ZM511.927 61.64L511.006 61.2489L511.001 61.2603L510.997 61.2719L511.927 61.64ZM508.279 70.856V71.856H508.958L509.208 71.2241L508.279 70.856ZM501.943 70.856L500.979 70.5893L500.628 71.856H501.943V70.856ZM504.759 60.68L505.722 60.9467L505.961 60.084L505.13 59.7515L504.759 60.68ZM502.198 58.632L501.344 59.1519L501.358 59.174L501.372 59.1953L502.198 58.632ZM503.03 50.824L503.724 51.5443L503.725 51.5438L503.03 50.824ZM507.51 50.096C509.066 50.096 510.275 50.5863 511.219 51.5311L512.634 50.1169C511.274 48.7577 509.539 48.096 507.51 48.096V50.096ZM511.233 51.5443C512.16 52.4369 512.654 53.6334 512.654 55.24H514.654C514.654 53.1772 513.997 51.4298 512.62 50.1037L511.233 51.5443ZM512.654 55.24C512.654 56.0091 512.558 56.781 512.364 57.5575L514.305 58.0425C514.537 57.1123 514.654 56.1776 514.654 55.24H512.654ZM512.364 57.5575C512.171 58.3302 511.728 59.5497 511.006 61.2489L512.847 62.0311C513.575 60.317 514.071 58.9765 514.305 58.0425L512.364 57.5575ZM510.997 61.2719L507.349 70.488L509.208 71.2241L512.856 62.008L510.997 61.2719ZM508.279 69.856H501.943V71.856H508.279V69.856ZM502.906 71.1227L505.722 60.9467L503.795 60.4133L500.979 70.5893L502.906 71.1227ZM505.13 59.7515C504.246 59.3978 503.551 58.8412 503.025 58.0687L501.372 59.1953C502.126 60.3002 503.138 61.1089 504.387 61.6085L505.13 59.7515ZM503.053 58.1121C502.561 57.3048 502.302 56.3581 502.302 55.24H500.302C500.302 56.6819 500.641 57.9965 501.344 59.1519L503.053 58.1121ZM502.302 55.24C502.302 53.6334 502.797 52.4369 503.724 51.5443L502.337 50.1037C500.96 51.4298 500.302 53.1772 500.302 55.24H502.302ZM503.725 51.5438C504.717 50.5867 505.955 50.096 507.51 50.096V48.096C505.482 48.096 503.733 48.7573 502.336 50.1042L503.725 51.5438Z"
        fill="white" />
    <path
        d="M15.68 106.52V105.52H14.68V106.52H15.68ZM15.68 118.36H14.68V119.36H15.68V118.36ZM36.416 118.36H37.416V117.36H36.416V118.36ZM36.416 126.68V127.68H37.416V126.68H36.416ZM15.68 126.68V125.68H14.68V126.68H15.68ZM15.68 143V144H16.68V143H15.68ZM5.312 143H4.312V144H5.312V143ZM5.312 98.2V97.2H4.312V98.2H5.312ZM39.168 98.2H40.168V97.2H39.168V98.2ZM39.168 106.52V107.52H40.168V106.52H39.168ZM14.68 106.52V118.36H16.68V106.52H14.68ZM15.68 119.36H36.416V117.36H15.68V119.36ZM35.416 118.36V126.68H37.416V118.36H35.416ZM36.416 125.68H15.68V127.68H36.416V125.68ZM14.68 126.68V143H16.68V126.68H14.68ZM15.68 142H5.312V144H15.68V142ZM6.312 143V98.2H4.312V143H6.312ZM5.312 99.2H39.168V97.2H5.312V99.2ZM38.168 98.2V106.52H40.168V98.2H38.168ZM39.168 105.52H15.68V107.52H39.168V105.52ZM51.2 141.272L50.7267 142.153L50.7345 142.157L50.7424 142.161L51.2 141.272ZM44.48 134.936L43.6237 135.452L44.48 134.936ZM44.48 116.632L43.6237 116.116H43.6237L44.48 116.632ZM51.2 110.36L51.663 111.246L51.6679 111.244L51.2 110.36ZM70.72 110.36L70.2467 111.241L70.257 111.246L70.72 110.36ZM77.44 116.632L78.2963 116.116L77.44 116.632ZM77.44 134.936L78.2963 135.452L77.44 134.936ZM70.72 141.272L71.1831 142.158L71.1933 142.153L70.72 141.272ZM67.264 132.76L66.5394 132.071L66.539 132.071L67.264 132.76ZM67.264 118.872L66.5306 119.552L66.5392 119.561L66.548 119.57L67.264 118.872ZM54.656 118.872L55.3721 119.57L55.3806 119.561L54.656 118.872ZM54.656 132.76L53.9314 133.449L53.94 133.458L54.656 132.76ZM60.992 142.512C57.5065 142.512 54.4022 141.796 51.6576 140.383L50.7424 142.161C53.8004 143.735 57.2241 144.512 60.992 144.512V142.512ZM51.6733 140.391C48.9671 138.937 46.8617 136.949 45.3363 134.42L43.6237 135.452C45.3409 138.299 47.7156 140.535 50.7267 142.153L51.6733 140.391ZM45.3363 134.42C43.8171 131.901 43.048 129.032 43.048 125.784H41.048C41.048 129.363 41.9002 132.595 43.6237 135.452L45.3363 134.42ZM43.048 125.784C43.048 122.536 43.8171 119.667 45.3363 117.148L43.6237 116.116C41.9002 118.973 41.048 122.205 41.048 125.784H43.048ZM45.3363 117.148C46.8602 114.622 48.9622 112.657 51.663 111.246L50.737 109.474C47.7205 111.049 45.3424 113.266 43.6237 116.116L45.3363 117.148ZM51.6679 111.244C54.4104 109.792 57.511 109.056 60.992 109.056V107.056C57.2196 107.056 53.7922 107.856 50.7321 109.476L51.6679 111.244ZM60.992 109.056C64.4732 109.056 67.55 109.792 70.2467 111.241L71.1933 109.479C68.1727 107.856 64.7641 107.056 60.992 107.056V109.056ZM70.257 111.246C72.9578 112.657 75.0598 114.622 76.5837 117.148L78.2963 116.116C76.5776 113.266 74.1995 111.049 71.183 109.474L70.257 111.246ZM76.5837 117.148C78.1029 119.667 78.872 122.536 78.872 125.784H80.872C80.872 122.205 80.0198 118.973 78.2963 116.116L76.5837 117.148ZM78.872 125.784C78.872 129.032 78.1029 131.901 76.5837 134.42L78.2963 135.452C80.0198 132.595 80.872 129.363 80.872 125.784H78.872ZM76.5837 134.42C75.0583 136.949 72.9529 138.937 70.2467 140.391L71.1933 142.153C74.2044 140.535 76.5791 138.299 78.2963 135.452L76.5837 134.42ZM70.257 140.386C67.5582 141.795 64.4777 142.512 60.992 142.512V144.512C64.7596 144.512 68.1644 143.735 71.183 142.158L70.257 140.386ZM60.992 136.32C63.7995 136.32 66.1613 135.373 67.989 133.449L66.539 132.071C65.1241 133.561 63.3045 134.32 60.992 134.32V136.32ZM67.9886 133.449C69.8639 131.478 70.76 128.887 70.76 125.784H68.76C68.76 128.484 67.9921 130.544 66.5394 132.071L67.9886 133.449ZM70.76 125.784C70.76 122.682 69.8641 120.106 67.98 118.174L66.548 119.57C67.9919 121.051 68.76 123.083 68.76 125.784H70.76ZM67.9974 118.192C66.1719 116.223 63.8075 115.248 60.992 115.248V117.248C63.2965 117.248 65.1135 118.023 66.5306 119.552L67.9974 118.192ZM60.992 115.248C58.1766 115.248 55.7966 116.222 53.9314 118.183L55.3806 119.561C56.8434 118.023 58.6874 117.248 60.992 117.248V115.248ZM53.94 118.174C52.0559 120.106 51.16 122.682 51.16 125.784H53.16C53.16 123.083 53.9281 121.051 55.372 119.57L53.94 118.174ZM51.16 125.784C51.16 128.887 52.0561 131.478 53.9314 133.449L55.3806 132.071C53.9279 130.544 53.16 128.484 53.16 125.784H51.16ZM53.94 133.458C55.8071 135.373 58.1846 136.32 60.992 136.32V134.32C58.6795 134.32 56.8329 133.56 55.372 132.062L53.94 133.458ZM96.0815 113.112H95.0815V116.22L96.8938 113.695L96.0815 113.112ZM100.882 109.336L100.497 108.413L100.49 108.416L100.882 109.336ZM107.922 108.056H108.922V107.056H107.922V108.056ZM107.922 117.272L107.845 118.269L108.922 118.352V117.272H107.922ZM98.9615 119.576L99.6592 120.293L99.6686 120.283L98.9615 119.576ZM96.5295 143V144H97.5295V143H96.5295ZM86.5455 143H85.5455V144H86.5455V143ZM86.5455 108.568V107.568H85.5455V108.568H86.5455ZM96.0815 108.568H97.0815V107.568H96.0815V108.568ZM96.8938 113.695C97.9748 112.19 99.425 111.043 101.273 110.256L100.49 108.416C98.3274 109.336 96.5775 110.706 95.2692 112.529L96.8938 113.695ZM101.266 110.259C103.171 109.465 105.383 109.056 107.922 109.056V107.056C105.169 107.056 102.688 107.5 100.497 108.413L101.266 110.259ZM106.922 108.056V117.272H108.922V108.056H106.922ZM107.998 116.275C106.894 116.19 106.11 116.144 105.682 116.144V118.144C106.021 118.144 106.73 118.183 107.845 118.269L107.998 116.275ZM105.682 116.144C102.627 116.144 100.107 117.016 98.2544 118.869L99.6686 120.283C101.059 118.893 103.019 118.144 105.682 118.144V116.144ZM98.2639 118.86C96.3808 120.693 95.5295 123.388 95.5295 126.744H97.5295C97.5295 123.7 98.2996 121.616 99.6591 120.292L98.2639 118.86ZM95.5295 126.744V143H97.5295V126.744H95.5295ZM96.5295 142H86.5455V144H96.5295V142ZM87.5455 143V108.568H85.5455V143H87.5455ZM86.5455 109.568H96.0815V107.568H86.5455V109.568ZM95.0815 108.568V113.112H97.0815V108.568H95.0815ZM147.081 128.6V129.6H148.008L148.079 128.677L147.081 128.6ZM121.034 128.6V127.6H119.79L120.057 128.815L121.034 128.6ZM124.362 133.656L124.939 132.84L124.362 133.656ZM135.626 134.744L135.977 135.68L135.984 135.677L135.992 135.674L135.626 134.744ZM139.529 132.184L140.265 131.506L139.571 130.754L138.835 131.464L139.529 132.184ZM144.842 137.944L145.595 138.602L146.185 137.926L145.577 137.266L144.842 137.944ZM120.329 141.272L119.872 142.161L119.882 142.166L120.329 141.272ZM113.418 134.936L112.561 135.452L113.418 134.936ZM113.354 116.696L112.494 116.185L112.491 116.19L113.354 116.696ZM119.946 110.36L120.42 111.24L120.424 111.238L119.946 110.36ZM138.505 110.232L138.975 109.349L138.505 110.232ZM144.906 116.504L144.034 116.994L144.038 117.002L144.043 117.01L144.906 116.504ZM123.721 117.528L123.081 116.76L123.721 117.528ZM120.906 122.776L119.917 122.624L119.74 123.776H120.906V122.776ZM137.866 122.776V123.776H139.035L138.853 122.621L137.866 122.776ZM135.049 117.592L134.397 118.35L134.403 118.355L134.409 118.36L135.049 117.592ZM146.273 125.912C146.273 125.906 146.272 125.95 146.263 126.09C146.256 126.213 146.244 126.386 146.228 126.609C146.196 127.054 146.148 127.692 146.084 128.523L148.079 128.677C148.204 127.05 148.273 126.091 148.273 125.912H146.273ZM147.081 127.6H121.034V129.6H147.081V127.6ZM120.057 128.815C120.579 131.186 121.827 133.088 123.784 134.472L124.939 132.84C123.397 131.749 122.427 130.28 122.01 128.385L120.057 128.815ZM123.784 134.472C125.736 135.853 128.125 136.512 130.889 136.512V134.512C128.449 134.512 126.486 133.934 124.939 132.84L123.784 134.472ZM130.889 136.512C132.775 136.512 134.477 136.243 135.977 135.68L135.274 133.808C134.044 134.269 132.588 134.512 130.889 134.512V136.512ZM135.992 135.674C137.533 135.067 138.944 134.138 140.224 132.904L138.835 131.464C137.726 132.534 136.534 133.311 135.259 133.814L135.992 135.674ZM138.794 132.862L144.106 138.622L145.577 137.266L140.265 131.506L138.794 132.862ZM144.088 137.286C141.084 140.726 136.656 142.512 130.633 142.512V144.512C137.07 144.512 142.114 142.586 145.595 138.602L144.088 137.286ZM130.633 142.512C126.881 142.512 123.604 141.791 120.777 140.378L119.882 142.166C123.029 143.74 126.621 144.512 130.633 144.512V142.512ZM120.787 140.383C117.953 138.925 115.793 136.937 114.274 134.42L112.561 135.452C114.285 138.311 116.733 140.547 119.872 142.161L120.787 140.383ZM114.274 134.42C112.755 131.901 111.985 129.032 111.985 125.784H109.985C109.985 129.363 110.838 132.595 112.561 135.452L114.274 134.42ZM111.985 125.784C111.985 122.576 112.735 119.724 114.216 117.202L112.491 116.19C110.815 119.044 109.985 122.25 109.985 125.784H111.985ZM114.213 117.207C115.743 114.631 117.807 112.647 120.42 111.24L119.471 109.48C116.537 111.06 114.207 113.3 112.494 116.185L114.213 117.207ZM120.424 111.238C123.082 109.788 126.051 109.056 129.354 109.056V107.056C125.743 107.056 122.441 107.86 119.467 109.482L120.424 111.238ZM129.354 109.056C132.576 109.056 135.463 109.748 138.036 111.115L138.975 109.349C136.087 107.815 132.873 107.056 129.354 107.056V109.056ZM138.036 111.115C140.596 112.475 142.59 114.428 144.034 116.994L145.777 116.014C144.149 113.119 141.877 110.891 138.975 109.349L138.036 111.115ZM144.043 117.01C145.519 119.523 146.273 122.479 146.273 125.912H148.273C148.273 122.177 147.449 118.861 145.768 115.998L144.043 117.01ZM129.417 114.608C126.955 114.608 124.821 115.31 123.081 116.76L124.362 118.296C125.694 117.186 127.358 116.608 129.417 116.608V114.608ZM123.081 116.76C121.335 118.215 120.291 120.196 119.917 122.624L121.894 122.928C122.203 120.919 123.036 119.401 124.362 118.296L123.081 116.76ZM120.906 123.776H137.866V121.776H120.906V123.776ZM138.853 122.621C138.479 120.231 137.432 118.275 135.69 116.824L134.409 118.36C135.739 119.469 136.57 120.969 136.878 122.931L138.853 122.621ZM135.702 116.834C133.967 115.34 131.851 114.608 129.417 114.608V116.608C131.421 116.608 133.06 117.199 134.397 118.35L135.702 116.834ZM187.471 108.568L188.393 108.957L188.979 107.568H187.471V108.568ZM172.943 143V144H173.607L173.865 143.389L172.943 143ZM162.639 143L161.718 143.387L161.975 144H162.639V143ZM148.176 108.568V107.568H146.671L147.254 108.955L148.176 108.568ZM158.48 108.568L159.406 108.191L159.152 107.568H158.48V108.568ZM168.016 131.992L167.089 132.369L168 134.607L168.937 132.38L168.016 131.992ZM177.872 108.568V107.568H177.207L176.95 108.18L177.872 108.568ZM186.55 108.179L172.022 142.611L173.865 143.389L188.393 108.957L186.55 108.179ZM172.943 142H162.639V144H172.943V142ZM163.561 142.613L149.097 108.181L147.254 108.955L161.718 143.387L163.561 142.613ZM148.176 109.568H158.48V107.568H148.176V109.568ZM157.553 108.945L167.089 132.369L168.942 131.615L159.406 108.191L157.553 108.945ZM168.937 132.38L178.793 108.956L176.95 108.18L167.094 131.604L168.937 132.38ZM177.872 109.568H187.471V107.568H177.872V109.568ZM224.144 128.6V129.6H225.07L225.141 128.677L224.144 128.6ZM198.096 128.6V127.6H196.852L197.119 128.815L198.096 128.6ZM201.424 133.656L202.001 132.84L201.424 133.656ZM212.688 134.744L213.039 135.68L213.047 135.677L213.055 135.674L212.688 134.744ZM216.592 132.184L217.327 131.506L216.634 130.754L215.898 131.464L216.592 132.184ZM221.904 137.944L222.657 138.602L223.248 137.926L222.639 137.266L221.904 137.944ZM197.392 141.272L196.935 142.161L196.945 142.166L197.392 141.272ZM190.48 134.936L189.624 135.452L190.48 134.936ZM190.416 116.696L189.556 116.185L189.554 116.19L190.416 116.696ZM197.008 110.36L197.482 111.24L197.487 111.238L197.008 110.36ZM215.568 110.232L216.037 109.349L215.568 110.232ZM221.968 116.504L221.096 116.994L221.101 117.002L221.106 117.01L221.968 116.504ZM200.784 117.528L200.144 116.76L200.784 117.528ZM197.968 122.776L196.98 122.624L196.802 123.776H197.968V122.776ZM214.928 122.776V123.776H216.097L215.916 122.621L214.928 122.776ZM212.112 117.592L211.459 118.35L211.466 118.355L211.472 118.36L212.112 117.592ZM223.336 125.912C223.336 125.906 223.335 125.95 223.326 126.09C223.318 126.213 223.306 126.386 223.291 126.609C223.259 127.054 223.211 127.692 223.147 128.523L225.141 128.677C225.266 127.05 225.336 126.091 225.336 125.912H223.336ZM224.144 127.6H198.096V129.6H224.144V127.6ZM197.119 128.815C197.641 131.186 198.89 133.088 200.847 134.472L202.001 132.84C200.46 131.749 199.49 130.28 199.073 128.385L197.119 128.815ZM200.847 134.472C202.798 135.853 205.188 136.512 207.952 136.512V134.512C205.511 134.512 203.548 133.934 202.001 132.84L200.847 134.472ZM207.952 136.512C209.837 136.512 211.539 136.243 213.039 135.68L212.337 133.808C211.106 134.269 209.651 134.512 207.952 134.512V136.512ZM213.055 135.674C214.596 135.067 216.006 134.138 217.286 132.904L215.898 131.464C214.788 132.534 213.596 133.311 212.321 133.814L213.055 135.674ZM215.857 132.862L221.169 138.622L222.639 137.266L217.327 131.506L215.857 132.862ZM221.151 137.286C218.146 140.726 213.719 142.512 207.696 142.512V144.512C214.132 144.512 219.177 142.586 222.657 138.602L221.151 137.286ZM207.696 142.512C203.943 142.512 200.666 141.791 197.839 140.378L196.945 142.166C200.091 143.74 203.683 144.512 207.696 144.512V142.512ZM197.849 140.383C195.016 138.925 192.855 136.937 191.336 134.42L189.624 135.452C191.348 138.311 193.795 140.547 196.935 142.161L197.849 140.383ZM191.336 134.42C189.817 131.901 189.048 129.032 189.048 125.784H187.048C187.048 129.363 187.9 132.595 189.624 135.452L191.336 134.42ZM189.048 125.784C189.048 122.576 189.797 119.724 191.278 117.202L189.554 116.19C187.878 119.044 187.048 122.25 187.048 125.784H189.048ZM191.276 117.207C192.805 114.631 194.87 112.647 197.482 111.24L196.534 109.48C193.599 111.06 191.269 113.3 189.556 116.185L191.276 117.207ZM197.487 111.238C200.145 109.788 203.114 109.056 206.416 109.056V107.056C202.806 107.056 199.503 107.86 196.529 109.482L197.487 111.238ZM206.416 109.056C209.638 109.056 212.525 109.748 215.099 111.115L216.037 109.349C213.149 107.815 209.935 107.056 206.416 107.056V109.056ZM215.099 111.115C217.658 112.475 219.653 114.428 221.096 116.994L222.84 116.014C221.211 113.119 218.939 110.891 216.037 109.349L215.099 111.115ZM221.106 117.01C222.581 119.523 223.336 122.479 223.336 125.912H225.336C225.336 122.177 224.512 118.861 222.83 115.998L221.106 117.01ZM206.48 114.608C204.017 114.608 201.883 115.31 200.144 116.76L201.424 118.296C202.757 117.186 204.42 116.608 206.48 116.608V114.608ZM200.144 116.76C198.397 118.215 197.353 120.196 196.98 122.624L198.956 122.928C199.266 120.919 200.099 119.401 201.424 118.296L200.144 116.76ZM197.968 123.776H214.928V121.776H197.968V123.776ZM215.916 122.621C215.541 120.231 214.494 118.275 212.752 116.824L211.472 118.36C212.802 119.469 213.632 120.969 213.94 122.931L215.916 122.621ZM212.765 116.834C211.029 115.34 208.914 114.608 206.48 114.608V116.608C208.484 116.608 210.123 117.199 211.459 118.35L212.765 116.834ZM240.519 113.112H239.519V116.22L241.331 113.695L240.519 113.112ZM245.319 109.336L244.934 108.413L244.927 108.416L245.319 109.336ZM252.359 108.056H253.359V107.056H252.359V108.056ZM252.359 117.272L252.282 118.269L253.359 118.352V117.272H252.359ZM243.399 119.576L244.097 120.293L244.106 120.283L243.399 119.576ZM240.967 143V144H241.967V143H240.967ZM230.983 143H229.983V144H230.983V143ZM230.983 108.568V107.568H229.983V108.568H230.983ZM240.519 108.568H241.519V107.568H240.519V108.568ZM241.331 113.695C242.412 112.19 243.862 111.043 245.711 110.256L244.927 108.416C242.765 109.336 241.015 110.706 239.707 112.529L241.331 113.695ZM245.704 110.259C247.609 109.465 249.821 109.056 252.359 109.056V107.056C249.607 107.056 247.125 107.5 244.934 108.413L245.704 110.259ZM251.359 108.056V117.272H253.359V108.056H251.359ZM252.436 116.275C251.332 116.19 250.547 116.144 250.119 116.144V118.144C250.459 118.144 251.168 118.183 252.282 118.269L252.436 116.275ZM250.119 116.144C247.064 116.144 244.545 117.016 242.692 118.869L244.106 120.283C245.496 118.893 247.456 118.144 250.119 118.144V116.144ZM242.701 118.86C240.818 120.693 239.967 123.388 239.967 126.744H241.967C241.967 123.7 242.737 121.616 244.097 120.292L242.701 118.86ZM239.967 126.744V143H241.967V126.744H239.967ZM240.967 142H230.983V144H240.967V142ZM231.983 143V108.568H229.983V143H231.983ZM230.983 109.568H240.519V107.568H230.983V109.568ZM239.519 108.568V113.112H241.519V108.568H239.519ZM307.07 100.184L306.656 101.094L306.661 101.096L307.07 100.184ZM313.854 123.096L314.693 123.64L314.698 123.634L313.854 123.096ZM307.07 128.728L307.474 129.643L307.48 129.64L307.07 128.728ZM287.742 130.648V129.648H286.742V130.648H287.742ZM287.742 143V144H288.742V143H287.742ZM277.375 143H276.375V144H277.375V143ZM277.375 98.2V97.2H276.375V98.2H277.375ZM303.294 120.216L303.927 120.991L303.933 120.986L303.939 120.981L303.294 120.216ZM303.294 108.696L302.65 109.461L302.656 109.466L302.662 109.471L303.294 108.696ZM287.742 106.648V105.648H286.742V106.648H287.742ZM287.742 122.2H286.742V123.2H287.742V122.2ZM296.767 99.2C300.625 99.2 303.912 99.8433 306.656 101.094L307.485 99.2741C304.426 97.8794 300.844 97.2 296.767 97.2V99.2ZM306.661 101.096C309.45 102.349 311.553 104.108 313.016 106.36L314.693 105.272C312.998 102.66 310.579 100.664 307.48 99.2718L306.661 101.096ZM313.016 106.36C314.474 108.607 315.223 111.292 315.223 114.456H317.223C317.223 110.964 316.392 107.889 314.693 105.272L313.016 106.36ZM315.223 114.456C315.223 117.574 314.476 120.263 313.011 122.558L314.698 123.634C316.391 120.98 317.223 117.908 317.223 114.456H315.223ZM313.016 122.552C311.553 124.804 309.45 126.563 306.661 127.816L307.48 129.64C310.579 128.248 312.998 126.252 314.693 123.64L313.016 122.552ZM306.667 127.813C303.92 129.025 300.629 129.648 296.767 129.648V131.648C300.84 131.648 304.418 130.991 307.474 129.643L306.667 127.813ZM296.767 129.648H287.742V131.648H296.767V129.648ZM286.742 130.648V143H288.742V130.648H286.742ZM287.742 142H277.375V144H287.742V142ZM278.375 143V98.2H276.375V143H278.375ZM277.375 99.2H296.767V97.2H277.375V99.2ZM296.19 123.2C299.427 123.2 302.058 122.515 303.927 120.991L302.662 119.441C301.289 120.562 299.183 121.2 296.19 121.2V123.2ZM303.939 120.981C305.824 119.393 306.727 117.171 306.727 114.456H304.727C304.727 116.691 304.007 118.308 302.65 119.451L303.939 120.981ZM306.727 114.456C306.727 111.706 305.828 109.473 303.927 107.921L302.662 109.471C304.003 110.565 304.727 112.172 304.727 114.456H306.727ZM303.939 107.931C302.069 106.357 299.433 105.648 296.19 105.648V107.648C299.177 107.648 301.277 108.305 302.65 109.461L303.939 107.931ZM296.19 105.648H287.742V107.648H296.19V105.648ZM286.742 106.648V122.2H288.742V106.648H286.742ZM287.742 123.2H296.19V121.2H287.742V123.2ZM332.457 113.112H331.457V116.22L333.269 113.695L332.457 113.112ZM337.257 109.336L336.872 108.413L336.865 108.416L337.257 109.336ZM344.297 108.056H345.297V107.056H344.297V108.056ZM344.297 117.272L344.22 118.269L345.297 118.352V117.272H344.297ZM335.336 119.576L336.034 120.293L336.044 120.283L335.336 119.576ZM332.905 143V144H333.905V143H332.905ZM322.921 143H321.921V144H322.921V143ZM322.921 108.568V107.568H321.921V108.568H322.921ZM332.457 108.568H333.457V107.568H332.457V108.568ZM333.269 113.695C334.35 112.19 335.8 111.043 337.648 110.256L336.865 108.416C334.702 109.336 332.953 110.706 331.644 112.529L333.269 113.695ZM337.641 110.259C339.546 109.465 341.758 109.056 344.297 109.056V107.056C341.544 107.056 339.063 107.5 336.872 108.413L337.641 110.259ZM343.297 108.056V117.272H345.297V108.056H343.297ZM344.373 116.275C343.269 116.19 342.485 116.144 342.056 116.144V118.144C342.396 118.144 343.105 118.183 344.22 118.269L344.373 116.275ZM342.056 116.144C339.002 116.144 336.482 117.016 334.629 118.869L336.044 120.283C337.434 118.893 339.394 118.144 342.056 118.144V116.144ZM334.639 118.86C332.756 120.693 331.905 123.388 331.905 126.744H333.905C333.905 123.7 334.675 121.616 336.034 120.292L334.639 118.86ZM331.905 126.744V143H333.905V126.744H331.905ZM332.905 142H322.921V144H332.905V142ZM323.921 143V108.568H321.921V143H323.921ZM322.921 109.568H332.457V107.568H322.921V109.568ZM331.457 108.568V113.112H333.457V108.568H331.457ZM356.513 141.272L356.039 142.153L356.047 142.157L356.055 142.161L356.513 141.272ZM349.793 134.936L348.936 135.452L349.793 134.936ZM349.793 116.632L348.936 116.116L349.793 116.632ZM356.513 110.36L356.976 111.246L356.98 111.244L356.513 110.36ZM376.033 110.36L375.559 111.241L375.569 111.246L376.033 110.36ZM382.753 116.632L383.609 116.116L382.753 116.632ZM382.753 134.936L383.609 135.452L382.753 134.936ZM376.033 141.272L376.496 142.158L376.506 142.153L376.033 141.272ZM372.577 132.76L371.852 132.071L371.852 132.071L372.577 132.76ZM372.577 118.872L371.843 119.552L371.852 119.561L371.861 119.57L372.577 118.872ZM359.969 118.872L360.685 119.57L360.693 119.561L359.969 118.872ZM359.969 132.76L359.244 133.449L359.253 133.458L359.969 132.76ZM366.305 142.512C362.819 142.512 359.715 141.796 356.97 140.383L356.055 142.161C359.113 143.735 362.537 144.512 366.305 144.512V142.512ZM356.986 140.391C354.28 138.937 352.174 136.949 350.649 134.42L348.936 135.452C350.653 138.299 353.028 140.535 356.039 142.153L356.986 140.391ZM350.649 134.42C349.13 131.901 348.361 129.032 348.361 125.784H346.361C346.361 129.363 347.213 132.595 348.936 135.452L350.649 134.42ZM348.361 125.784C348.361 122.536 349.13 119.667 350.649 117.148L348.936 116.116C347.213 118.973 346.361 122.205 346.361 125.784H348.361ZM350.649 117.148C352.173 114.622 354.275 112.657 356.976 111.246L356.049 109.474C353.033 111.049 350.655 113.266 348.936 116.116L350.649 117.148ZM356.98 111.244C359.723 109.792 362.824 109.056 366.305 109.056V107.056C362.532 107.056 359.105 107.856 356.045 109.476L356.98 111.244ZM366.305 109.056C369.786 109.056 372.862 109.792 375.559 111.241L376.506 109.479C373.485 107.856 370.077 107.056 366.305 107.056V109.056ZM375.569 111.246C378.27 112.657 380.372 114.622 381.896 117.148L383.609 116.116C381.89 113.266 379.512 111.049 376.496 109.474L375.569 111.246ZM381.896 117.148C383.415 119.667 384.185 122.536 384.185 125.784H386.185C386.185 122.205 385.332 118.973 383.609 116.116L381.896 117.148ZM384.185 125.784C384.185 129.032 383.415 131.901 381.896 134.42L383.609 135.452C385.332 132.595 386.185 129.363 386.185 125.784H384.185ZM381.896 134.42C380.371 136.949 378.265 138.937 375.559 140.391L376.506 142.153C379.517 140.535 381.892 138.299 383.609 135.452L381.896 134.42ZM375.569 140.386C372.871 141.795 369.79 142.512 366.305 142.512V144.512C370.072 144.512 373.477 143.735 376.496 142.158L375.569 140.386ZM366.305 136.32C369.112 136.32 371.474 135.373 373.302 133.449L371.852 132.071C370.437 133.561 368.617 134.32 366.305 134.32V136.32ZM373.301 133.449C375.176 131.478 376.073 128.887 376.073 125.784H374.073C374.073 128.484 373.305 130.544 371.852 132.071L373.301 133.449ZM376.073 125.784C376.073 122.682 375.177 120.106 373.293 118.174L371.861 119.57C373.304 121.051 374.073 123.083 374.073 125.784H376.073ZM373.31 118.192C371.484 116.223 369.12 115.248 366.305 115.248V117.248C368.609 117.248 370.426 118.023 371.843 119.552L373.31 118.192ZM366.305 115.248C363.489 115.248 361.109 116.222 359.244 118.183L360.693 119.561C362.156 118.023 364 117.248 366.305 117.248V115.248ZM359.253 118.174C357.368 120.106 356.473 122.682 356.473 125.784H358.473C358.473 123.083 359.241 121.051 360.685 119.57L359.253 118.174ZM356.473 125.784C356.473 128.887 357.369 131.478 359.244 133.449L360.693 132.071C359.24 130.544 358.473 128.484 358.473 125.784H356.473ZM359.253 133.458C361.12 135.373 363.497 136.32 366.305 136.32V134.32C363.992 134.32 362.145 133.56 360.685 132.062L359.253 133.458ZM426.546 108.568H427.546V107.568H426.546V108.568ZM426.546 143V144H427.546V143H426.546ZM417.074 143H416.074V144H417.074V143ZM417.074 138.904H418.074V136.267L416.325 138.241L417.074 138.904ZM412.338 142.36L412.724 143.282L412.733 143.279L412.742 143.275L412.338 142.36ZM395.634 139.608L396.335 138.895L395.634 139.608ZM391.666 108.568V107.568H390.666V108.568H391.666ZM401.65 108.568H402.65V107.568H401.65V108.568ZM414.386 132.568L415.113 133.255L415.122 133.245L414.386 132.568ZM416.562 108.568V107.568H415.562V108.568H416.562ZM425.546 108.568V143H427.546V108.568H425.546ZM426.546 142H417.074V144H426.546V142ZM418.074 143V138.904H416.074V143H418.074ZM416.325 138.241C415.099 139.626 413.638 140.692 411.934 141.445L412.742 143.275C414.708 142.406 416.404 141.169 417.823 139.567L416.325 138.241ZM411.952 141.438C410.248 142.151 408.396 142.512 406.386 142.512V144.512C408.642 144.512 410.759 144.105 412.724 143.282L411.952 141.438ZM406.386 142.512C402.065 142.512 398.754 141.275 396.335 138.895L394.933 140.321C397.804 143.146 401.662 144.512 406.386 144.512V142.512ZM396.335 138.895C393.944 136.543 392.666 132.98 392.666 128.024H390.666C390.666 133.308 392.033 137.468 394.933 140.321L396.335 138.895ZM392.666 128.024V108.568H390.666V128.024H392.666ZM391.666 109.568H401.65V107.568H391.666V109.568ZM400.65 108.568V126.552H402.65V108.568H400.65ZM400.65 126.552C400.65 129.441 401.252 131.794 402.628 133.435C404.032 135.109 406.096 135.872 408.626 135.872V133.872C406.506 133.872 405.081 133.248 404.16 132.149C403.211 131.017 402.65 129.21 402.65 126.552H400.65ZM408.626 135.872C411.251 135.872 413.448 135.018 415.113 133.255L413.659 131.881C412.423 133.19 410.78 133.872 408.626 133.872V135.872ZM415.122 133.245C416.804 131.415 417.562 128.807 417.562 125.592H415.562C415.562 128.521 414.87 130.564 413.65 131.891L415.122 133.245ZM417.562 125.592V108.568H415.562V125.592H417.562ZM416.562 109.568H426.546V107.568H416.562V109.568ZM470.867 95.512H471.867V94.512H470.867V95.512ZM470.867 143V144H471.867V143H470.867ZM461.332 143H460.332V144H461.332V143ZM461.332 139.032H462.332V136.258L460.561 138.394L461.332 139.032ZM441.747 141.336L441.261 142.21L441.267 142.213L441.747 141.336ZM435.604 135.128L436.478 134.642L435.604 135.128ZM435.604 116.44L436.478 116.926L435.604 116.44ZM441.747 110.232L441.267 109.355L441.261 109.359L441.747 110.232ZM460.884 112.216L460.137 112.882L461.884 114.839V112.216H460.884ZM460.884 95.512V94.512H459.884V95.512H460.884ZM458.579 132.76L459.296 133.458L459.304 133.449L458.579 132.76ZM458.579 118.872L457.855 119.561L457.863 119.57L458.579 118.872ZM445.971 118.872L446.688 119.57L446.696 119.561L445.971 118.872ZM445.971 132.76L445.247 133.449L445.255 133.458L445.971 132.76ZM469.867 95.512V143H471.867V95.512H469.867ZM470.867 142H461.332V144H470.867V142ZM462.332 143V139.032H460.332V143H462.332ZM460.561 138.394C458.317 141.103 455.044 142.512 450.579 142.512V144.512C455.502 144.512 459.397 142.934 462.102 139.67L460.561 138.394ZM450.579 142.512C447.492 142.512 444.715 141.823 442.228 140.459L441.267 142.213C444.07 143.75 447.182 144.512 450.579 144.512V142.512ZM442.234 140.463C439.8 139.106 437.884 137.173 436.478 134.642L434.729 135.614C436.31 138.459 438.49 140.665 441.261 142.209L442.234 140.463ZM436.478 134.642C435.079 132.124 434.363 129.181 434.363 125.784H432.363C432.363 129.469 433.142 132.756 434.729 135.614L436.478 134.642ZM434.363 125.784C434.363 122.387 435.079 119.444 436.478 116.926L434.729 115.954C433.142 118.812 432.363 122.099 432.363 125.784H434.363ZM436.478 116.926C437.884 114.395 439.8 112.462 442.234 111.105L441.261 109.359C438.49 110.903 436.31 113.109 434.729 115.954L436.478 116.926ZM442.228 111.109C444.715 109.745 447.492 109.056 450.579 109.056V107.056C447.182 107.056 444.07 107.818 441.267 109.355L442.228 111.109ZM450.579 109.056C454.746 109.056 457.887 110.36 460.137 112.882L461.63 111.55C458.93 108.525 455.202 107.056 450.579 107.056V109.056ZM461.884 112.216V95.512H459.884V112.216H461.884ZM460.884 96.512H470.867V94.512H460.884V96.512ZM452.307 136.32C455.078 136.32 457.432 135.37 459.296 133.458L457.863 132.062C456.399 133.564 454.572 134.32 452.307 134.32V136.32ZM459.304 133.449C461.179 131.478 462.076 128.887 462.076 125.784H460.076C460.076 128.484 459.308 130.544 457.855 132.071L459.304 133.449ZM462.076 125.784C462.076 122.682 461.18 120.106 459.296 118.174L457.863 119.57C459.307 121.051 460.076 123.083 460.076 125.784H462.076ZM459.304 118.183C457.442 116.226 455.086 115.248 452.307 115.248V117.248C454.564 117.248 456.389 118.02 457.855 119.561L459.304 118.183ZM452.307 115.248C449.492 115.248 447.112 116.222 445.247 118.183L446.696 119.561C448.159 118.023 450.003 117.248 452.307 117.248V115.248ZM445.255 118.174C443.371 120.106 442.475 122.682 442.475 125.784H444.475C444.475 123.083 445.244 121.051 446.688 119.57L445.255 118.174ZM442.475 125.784C442.475 128.887 443.372 131.478 445.247 133.449L446.696 132.071C445.243 130.544 444.475 128.484 444.475 125.784H442.475ZM445.255 133.458C447.123 135.373 449.5 136.32 452.307 136.32V134.32C449.995 134.32 448.148 133.56 446.688 132.062L445.255 133.458ZM488.364 132.824L487.657 133.531L487.664 133.538L487.67 133.544L488.364 132.824ZM489.772 139.8L488.802 139.557L489.772 139.8ZM488.364 143.64L487.444 143.249L487.439 143.26L487.434 143.272L488.364 143.64ZM484.716 152.856V153.856H485.396L485.646 153.224L484.716 152.856ZM478.38 152.856L477.416 152.589L477.066 153.856H478.38V152.856ZM481.196 142.68L482.16 142.947L482.399 142.084L481.567 141.752L481.196 142.68ZM478.636 140.632L477.782 141.152L477.795 141.174L477.81 141.195L478.636 140.632ZM479.468 132.824L480.162 133.544L480.162 133.544L479.468 132.824ZM483.948 132.096C485.504 132.096 486.712 132.586 487.657 133.531L489.071 132.117C487.712 130.758 485.976 130.096 483.948 130.096V132.096ZM487.67 133.544C488.597 134.437 489.092 135.633 489.092 137.24H491.092C491.092 135.177 490.435 133.43 489.058 132.104L487.67 133.544ZM489.092 137.24C489.092 138.009 488.996 138.781 488.802 139.557L490.742 140.043C490.975 139.112 491.092 138.178 491.092 137.24H489.092ZM488.802 139.557C488.609 140.33 488.166 141.55 487.444 143.249L489.284 144.031C490.013 142.317 490.509 140.977 490.742 140.043L488.802 139.557ZM487.434 143.272L483.786 152.488L485.646 153.224L489.294 144.008L487.434 143.272ZM484.716 151.856H478.38V153.856H484.716V151.856ZM479.344 153.123L482.16 142.947L480.232 142.413L477.416 152.589L479.344 153.123ZM481.567 141.752C480.683 141.398 479.989 140.841 479.462 140.069L477.81 141.195C478.563 142.3 479.576 143.109 480.825 143.608L481.567 141.752ZM479.49 140.112C478.999 139.305 478.74 138.358 478.74 137.24H476.74C476.74 138.682 477.078 139.997 477.782 141.152L479.49 140.112ZM478.74 137.24C478.74 135.633 479.235 134.437 480.162 133.544L478.774 132.104C477.397 133.43 476.74 135.177 476.74 137.24H478.74ZM480.162 133.544C481.155 132.587 482.392 132.096 483.948 132.096V130.096C481.92 130.096 480.171 130.757 478.774 132.104L480.162 133.544Z"
        fill="white" />
    <path
        d="M15.68 188.52V200.36H36.416V208.68H15.68V225H5.312V180.2H39.168V188.52H15.68ZM60.992 225.512C57.3653 225.512 54.1013 224.765 51.2 223.272C48.3413 221.736 46.1013 219.624 44.48 216.936C42.8587 214.248 42.048 211.197 42.048 207.784C42.048 204.371 42.8587 201.32 44.48 198.632C46.1013 195.944 48.3413 193.853 51.2 192.36C54.1013 190.824 57.3653 190.056 60.992 190.056C64.6187 190.056 67.8613 190.824 70.72 192.36C73.5787 193.853 75.8187 195.944 77.44 198.632C79.0613 201.32 79.872 204.371 79.872 207.784C79.872 211.197 79.0613 214.248 77.44 216.936C75.8187 219.624 73.5787 221.736 70.72 223.272C67.8613 224.765 64.6187 225.512 60.992 225.512ZM60.992 217.32C63.552 217.32 65.6427 216.467 67.264 214.76C68.928 213.011 69.76 210.685 69.76 207.784C69.76 204.883 68.928 202.579 67.264 200.872C65.6427 199.123 63.552 198.248 60.992 198.248C58.432 198.248 56.32 199.123 54.656 200.872C52.992 202.579 52.16 204.883 52.16 207.784C52.16 210.685 52.992 213.011 54.656 214.76C56.32 216.467 58.432 217.32 60.992 217.32ZM96.0815 195.112C97.2762 193.448 98.8762 192.189 100.882 191.336C102.93 190.483 105.276 190.056 107.922 190.056V199.272C106.812 199.187 106.066 199.144 105.682 199.144C102.823 199.144 100.583 199.955 98.9615 201.576C97.3402 203.155 96.5295 205.544 96.5295 208.744V225H86.5455V190.568H96.0815V195.112ZM147.274 207.912C147.274 208.04 147.21 208.936 147.082 210.6H121.034C121.503 212.733 122.612 214.419 124.362 215.656C126.111 216.893 128.287 217.512 130.89 217.512C132.682 217.512 134.26 217.256 135.626 216.744C137.034 216.189 138.335 215.336 139.53 214.184L144.842 219.944C141.599 223.656 136.863 225.512 130.634 225.512C126.751 225.512 123.316 224.765 120.33 223.272C117.343 221.736 115.039 219.624 113.418 216.936C111.796 214.248 110.986 211.197 110.986 207.784C110.986 204.413 111.775 201.384 113.354 198.696C114.975 195.965 117.172 193.853 119.946 192.36C122.762 190.824 125.898 190.056 129.354 190.056C132.724 190.056 135.775 190.781 138.506 192.232C141.236 193.683 143.37 195.773 144.906 198.504C146.484 201.192 147.274 204.328 147.274 207.912ZM129.418 197.608C127.156 197.608 125.258 198.248 123.722 199.528C122.186 200.808 121.247 202.557 120.906 204.776H137.866C137.524 202.6 136.586 200.872 135.05 199.592C133.514 198.269 131.636 197.608 129.418 197.608ZM187.472 190.568L172.944 225H162.64L148.175 190.568H158.48L168.016 213.992L177.872 190.568H187.472ZM224.336 207.912C224.336 208.04 224.272 208.936 224.144 210.6H198.096C198.565 212.733 199.675 214.419 201.424 215.656C203.173 216.893 205.349 217.512 207.952 217.512C209.744 217.512 211.323 217.256 212.688 216.744C214.096 216.189 215.397 215.336 216.592 214.184L221.904 219.944C218.661 223.656 213.925 225.512 207.696 225.512C203.813 225.512 200.379 224.765 197.392 223.272C194.405 221.736 192.101 219.624 190.48 216.936C188.859 214.248 188.048 211.197 188.048 207.784C188.048 204.413 188.837 201.384 190.416 198.696C192.037 195.965 194.235 193.853 197.008 192.36C199.824 190.824 202.96 190.056 206.416 190.056C209.787 190.056 212.837 190.781 215.568 192.232C218.299 193.683 220.432 195.773 221.968 198.504C223.547 201.192 224.336 204.328 224.336 207.912ZM206.48 197.608C204.219 197.608 202.32 198.248 200.784 199.528C199.248 200.808 198.309 202.557 197.968 204.776H214.928C214.587 202.6 213.648 200.872 212.112 199.592C210.576 198.269 208.699 197.608 206.48 197.608ZM240.519 195.112C241.714 193.448 243.314 192.189 245.319 191.336C247.367 190.483 249.714 190.056 252.359 190.056V199.272C251.25 199.187 250.503 199.144 250.119 199.144C247.26 199.144 245.02 199.955 243.399 201.576C241.778 203.155 240.967 205.544 240.967 208.744V225H230.983V190.568H240.519V195.112ZM297.279 225.768C290.879 225.768 285.887 223.997 282.303 220.456C278.761 216.915 276.991 211.859 276.991 205.288V180.2H287.359V204.904C287.359 212.925 290.687 216.936 297.343 216.936C300.585 216.936 303.06 215.976 304.767 214.056C306.473 212.093 307.326 209.043 307.326 204.904V180.2H317.567V205.288C317.567 211.859 315.775 216.915 312.191 220.456C308.649 223.997 303.679 225.768 297.279 225.768ZM348.036 190.056C352.303 190.056 355.737 191.336 358.34 193.896C360.985 196.456 362.308 200.253 362.308 205.288V225H352.324V206.824C352.324 204.093 351.727 202.067 350.532 200.744C349.337 199.379 347.609 198.696 345.348 198.696C342.831 198.696 340.825 199.485 339.332 201.064C337.839 202.6 337.092 204.904 337.092 207.976V225H327.108V190.568H336.644V194.6C337.967 193.149 339.609 192.04 341.572 191.272C343.535 190.461 345.689 190.056 348.036 190.056ZM371.358 190.568H381.342V225H371.358V190.568ZM376.35 185.768C374.515 185.768 373.022 185.235 371.87 184.168C370.718 183.101 370.142 181.779 370.142 180.2C370.142 178.621 370.718 177.299 371.87 176.232C373.022 175.165 374.515 174.632 376.35 174.632C378.185 174.632 379.678 175.144 380.83 176.168C381.982 177.192 382.558 178.472 382.558 180.008C382.558 181.672 381.982 183.059 380.83 184.168C379.678 185.235 378.185 185.768 376.35 185.768ZM401.552 191.336H410.384V199.016H401.808V225H391.824V199.016H386.512V191.336H391.824V189.8C391.824 185.875 392.976 182.76 395.28 180.456C397.627 178.152 400.912 177 405.136 177C406.629 177 408.037 177.171 409.36 177.512C410.725 177.811 411.856 178.259 412.752 178.856L410.128 186.088C408.976 185.277 407.632 184.872 406.096 184.872C403.067 184.872 401.552 186.536 401.552 189.864V191.336ZM420.496 190.568H430.48V225H420.496V190.568ZM425.488 185.768C423.653 185.768 422.16 185.235 421.008 184.168C419.856 183.101 419.28 181.779 419.28 180.2C419.28 178.621 419.856 177.299 421.008 176.232C422.16 175.165 423.653 174.632 425.488 174.632C427.323 174.632 428.816 175.144 429.968 176.168C431.12 177.192 431.696 178.472 431.696 180.008C431.696 181.672 431.12 183.059 429.968 184.168C428.816 185.235 427.323 185.768 425.488 185.768ZM473.461 207.912C473.461 208.04 473.397 208.936 473.269 210.6H447.221C447.69 212.733 448.8 214.419 450.549 215.656C452.298 216.893 454.474 217.512 457.077 217.512C458.869 217.512 460.448 217.256 461.813 216.744C463.221 216.189 464.522 215.336 465.717 214.184L471.029 219.944C467.786 223.656 463.05 225.512 456.821 225.512C452.938 225.512 449.504 224.765 446.517 223.272C443.53 221.736 441.226 219.624 439.605 216.936C437.984 214.248 437.173 211.197 437.173 207.784C437.173 204.413 437.962 201.384 439.541 198.696C441.162 195.965 443.36 193.853 446.133 192.36C448.949 190.824 452.085 190.056 455.541 190.056C458.912 190.056 461.962 190.781 464.693 192.232C467.424 193.683 469.557 195.773 471.093 198.504C472.672 201.192 473.461 204.328 473.461 207.912ZM455.605 197.608C453.344 197.608 451.445 198.248 449.909 199.528C448.373 200.808 447.434 202.557 447.093 204.776H464.053C463.712 202.6 462.773 200.872 461.237 199.592C459.701 198.269 457.824 197.608 455.605 197.608ZM515.18 177.512V225H505.644V221.032C503.169 224.019 499.585 225.512 494.892 225.512C491.649 225.512 488.705 224.787 486.06 223.336C483.457 221.885 481.409 219.816 479.916 217.128C478.423 214.44 477.676 211.325 477.676 207.784C477.676 204.243 478.423 201.128 479.916 198.44C481.409 195.752 483.457 193.683 486.06 192.232C488.705 190.781 491.649 190.056 494.892 190.056C499.287 190.056 502.721 191.443 505.196 194.216V177.512H515.18ZM496.62 217.32C499.137 217.32 501.228 216.467 502.892 214.76C504.556 213.011 505.388 210.685 505.388 207.784C505.388 204.883 504.556 202.579 502.892 200.872C501.228 199.123 499.137 198.248 496.62 198.248C494.06 198.248 491.948 199.123 490.284 200.872C488.62 202.579 487.788 204.883 487.788 207.784C487.788 210.685 488.62 213.011 490.284 214.76C491.948 216.467 494.06 217.32 496.62 217.32ZM528.197 225.512C526.447 225.512 524.975 224.915 523.781 223.72C522.586 222.525 521.989 221.032 521.989 219.24C521.989 217.405 522.586 215.933 523.781 214.824C524.975 213.672 526.447 213.096 528.197 213.096C529.946 213.096 531.418 213.672 532.613 214.824C533.807 215.933 534.405 217.405 534.405 219.24C534.405 221.032 533.807 222.525 532.613 223.72C531.418 224.915 529.946 225.512 528.197 225.512Z"
        fill="white" />
</svg>
