<svg width="537" height="241" viewBox="0 0 537 241" fill="none" xmlns="http://www.w3.org/2000/svg">
    <path
        d="M15.68 24.52V23.52H14.68V24.52H15.68ZM15.68 36.36H14.68V37.36H15.68V36.36ZM36.416 36.36H37.416V35.36H36.416V36.36ZM36.416 44.68V45.68H37.416V44.68H36.416ZM15.68 44.68V43.68H14.68V44.68H15.68ZM15.68 61V62H16.68V61H15.68ZM5.312 61H4.312V62H5.312V61ZM5.312 16.2V15.2H4.312V16.2H5.312ZM39.168 16.2H40.168V15.2H39.168V16.2ZM39.168 24.52V25.52H40.168V24.52H39.168ZM14.68 24.52V36.36H16.68V24.52H14.68ZM15.68 37.36H36.416V35.36H15.68V37.36ZM35.416 36.36V44.68H37.416V36.36H35.416ZM36.416 43.68H15.68V45.68H36.416V43.68ZM14.68 44.68V61H16.68V44.68H14.68ZM15.68 60H5.312V62H15.68V60ZM6.312 61V16.2H4.312V61H6.312ZM5.312 17.2H39.168V15.2H5.312V17.2ZM38.168 16.2V24.52H40.168V16.2H38.168ZM39.168 23.52H15.68V25.52H39.168V23.52ZM51.2 59.272L50.7267 60.1529L50.7345 60.1571L50.7424 60.1611L51.2 59.272ZM44.48 52.936L43.6237 53.4525L44.48 52.936ZM44.48 34.632L43.6237 34.1155H43.6237L44.48 34.632ZM51.2 28.36L51.663 29.2464L51.6679 29.2438L51.2 28.36ZM70.72 28.36L70.2467 29.2409L70.257 29.2463L70.72 28.36ZM77.44 34.632L78.2963 34.1155L77.44 34.632ZM77.44 52.936L78.2963 53.4525L77.44 52.936ZM70.72 59.272L71.1831 60.1584L71.1933 60.1529L70.72 59.272ZM67.264 50.76L66.5394 50.0708L66.539 50.0713L67.264 50.76ZM67.264 36.872L66.5306 37.5518L66.5392 37.561L66.548 37.5701L67.264 36.872ZM54.656 36.872L55.3721 37.5702L55.3806 37.5612L54.656 36.872ZM54.656 50.76L53.9314 51.4493L53.94 51.4581L54.656 50.76ZM60.992 60.512C57.5065 60.512 54.4022 59.7955 51.6576 58.3829L50.7424 60.1611C53.8004 61.7351 57.2241 62.512 60.992 62.512V60.512ZM51.6733 58.3911C48.9671 56.937 46.8617 54.9485 45.3363 52.4195L43.6237 53.4525C45.3409 56.2995 47.7156 58.535 50.7267 60.1529L51.6733 58.3911ZM45.3363 52.4195C43.8171 49.9009 43.048 47.0317 43.048 43.784H41.048C41.048 47.3629 41.9002 50.5951 43.6237 53.4525L45.3363 52.4195ZM43.048 43.784C43.048 40.5363 43.8171 37.6671 45.3363 35.1485L43.6237 34.1155C41.9002 36.9729 41.048 40.2051 41.048 43.784H43.048ZM45.3363 35.1485C46.8602 32.622 48.9622 30.6572 51.663 29.2463L50.737 27.4736C47.7205 29.0494 45.3424 31.266 43.6237 34.1155L45.3363 35.1485ZM51.6679 29.2438C54.4104 27.7918 57.511 27.056 60.992 27.056V25.056C57.2196 25.056 53.7922 25.8561 50.7321 27.4762L51.6679 29.2438ZM60.992 27.056C64.4732 27.056 67.55 27.7919 70.2467 29.2409L71.1933 27.4791C68.1727 25.8561 64.7641 25.056 60.992 25.056V27.056ZM70.257 29.2463C72.9578 30.6572 75.0598 32.622 76.5837 35.1485L78.2963 34.1155C76.5776 31.266 74.1995 29.0494 71.183 27.4736L70.257 29.2463ZM76.5837 35.1485C78.1029 37.6671 78.872 40.5363 78.872 43.784H80.872C80.872 40.2051 80.0198 36.9729 78.2963 34.1155L76.5837 35.1485ZM78.872 43.784C78.872 47.0317 78.1029 49.9009 76.5837 52.4195L78.2963 53.4525C80.0198 50.5951 80.872 47.3629 80.872 43.784H78.872ZM76.5837 52.4195C75.0583 54.9485 72.9529 56.937 70.2467 58.3911L71.1933 60.1529C74.2044 58.535 76.5791 56.2995 78.2963 53.4525L76.5837 52.4195ZM70.257 58.3857C67.5582 59.7955 64.4777 60.512 60.992 60.512V62.512C64.7596 62.512 68.1644 61.7352 71.183 60.1583L70.257 58.3857ZM60.992 54.32C63.7995 54.32 66.1613 53.3727 67.989 51.4487L66.539 50.0713C65.1241 51.5607 63.3045 52.32 60.992 52.32V54.32ZM67.9886 51.4492C69.8639 49.4777 70.76 46.887 70.76 43.784H68.76C68.76 46.4837 67.9921 48.5437 66.5394 50.0708L67.9886 51.4492ZM70.76 43.784C70.76 40.682 69.8641 38.1064 67.98 36.1739L66.548 37.5701C67.9919 39.051 68.76 41.0834 68.76 43.784H70.76ZM67.9974 36.1922C66.1719 34.2225 63.8075 33.248 60.992 33.248V35.248C63.2965 35.248 65.1135 36.0228 66.5306 37.5518L67.9974 36.1922ZM60.992 33.248C58.1766 33.248 55.7966 34.222 53.9314 36.1828L55.3806 37.5612C56.8434 36.0233 58.6874 35.248 60.992 35.248V33.248ZM53.94 36.1739C52.0559 38.1064 51.16 40.682 51.16 43.784H53.16C53.16 41.0834 53.9281 39.051 55.372 37.5701L53.94 36.1739ZM51.16 43.784C51.16 46.887 52.0561 49.4777 53.9314 51.4492L55.3806 50.0708C53.9279 48.5437 53.16 46.4837 53.16 43.784H51.16ZM53.94 51.4581C55.8071 53.3731 58.1846 54.32 60.992 54.32V52.32C58.6795 52.32 56.8329 51.5602 55.372 50.0619L53.94 51.4581ZM96.0815 31.112H95.0815V34.2195L96.8938 31.6952L96.0815 31.112ZM100.882 27.336L100.497 26.4129L100.49 26.4158L100.882 27.336ZM107.922 26.056H108.922V25.056H107.922V26.056ZM107.922 35.272L107.845 36.2691L108.922 36.3519V35.272H107.922ZM98.9615 37.576L99.6592 38.2925L99.6686 38.2831L98.9615 37.576ZM96.5295 61V62H97.5295V61H96.5295ZM86.5455 61H85.5455V62H86.5455V61ZM86.5455 26.568V25.568H85.5455V26.568H86.5455ZM96.0815 26.568H97.0815V25.568H96.0815V26.568ZM96.8938 31.6952C97.9748 30.1895 99.425 29.0426 101.273 28.2562L100.49 26.4158C98.3274 27.3361 96.5775 28.7065 95.2692 30.5288L96.8938 31.6952ZM101.266 28.2591C103.171 27.4653 105.383 27.056 107.922 27.056V25.056C105.169 25.056 102.688 25.5 100.497 26.4129L101.266 28.2591ZM106.922 26.056V35.272H108.922V26.056H106.922ZM107.998 34.2749C106.894 34.19 106.11 34.144 105.682 34.144V36.144C106.021 36.144 106.73 36.1833 107.845 36.2691L107.998 34.2749ZM105.682 34.144C102.627 34.144 100.107 35.0162 98.2544 36.8689L99.6686 38.2831C101.059 36.8931 103.019 36.144 105.682 36.144V34.144ZM98.2639 36.8595C96.3808 38.6931 95.5295 41.3876 95.5295 44.744H97.5295C97.5295 41.7004 98.2996 39.6162 99.6591 38.2925L98.2639 36.8595ZM95.5295 44.744V61H97.5295V44.744H95.5295ZM96.5295 60H86.5455V62H96.5295V60ZM87.5455 61V26.568H85.5455V61H87.5455ZM86.5455 27.568H96.0815V25.568H86.5455V27.568ZM95.0815 26.568V31.112H97.0815V26.568H95.0815ZM147.081 46.6V47.6H148.008L148.079 46.6767L147.081 46.6ZM121.034 46.6V45.6H119.79L120.057 46.8149L121.034 46.6ZM124.362 51.656L124.939 50.8396L124.362 51.656ZM135.626 52.744L135.977 53.6803L135.984 53.6774L135.992 53.6744L135.626 52.744ZM139.529 50.184L140.265 49.5061L139.571 48.7544L138.835 49.4642L139.529 50.184ZM144.842 55.944L145.595 56.6019L146.185 55.9259L145.577 55.2661L144.842 55.944ZM120.329 59.272L119.872 60.1613L119.882 60.1664L120.329 59.272ZM113.418 52.936L112.561 53.4525L113.418 52.936ZM113.354 34.696L112.494 34.1855L112.491 34.1896L113.354 34.696ZM119.946 28.36L120.42 29.2405L120.424 29.2379L119.946 28.36ZM138.505 28.232L138.975 27.3489L138.505 28.232ZM144.906 34.504L144.034 34.9943L144.038 35.0024L144.043 35.0104L144.906 34.504ZM123.721 35.528L123.081 34.7598L123.721 35.528ZM120.906 40.776L119.917 40.6239L119.74 41.776H120.906V40.776ZM137.866 40.776V41.776H139.035L138.853 40.621L137.866 40.776ZM135.049 35.592L134.397 36.3498L134.403 36.355L134.409 36.3602L135.049 35.592ZM146.273 43.912C146.273 43.9057 146.272 43.9499 146.263 44.0896C146.256 44.2133 146.244 44.3859 146.228 44.6088C146.196 45.054 146.148 45.6919 146.084 46.5233L148.079 46.6767C148.204 45.0497 148.273 44.0907 148.273 43.912H146.273ZM147.081 45.6H121.034V47.6H147.081V45.6ZM120.057 46.8149C120.579 49.1862 121.827 51.0882 123.784 52.4724L124.939 50.8396C123.397 49.7491 122.427 48.2805 122.01 46.3851L120.057 46.8149ZM123.784 52.4724C125.736 53.8529 128.125 54.512 130.889 54.512V52.512C128.449 52.512 126.486 51.9338 124.939 50.8396L123.784 52.4724ZM130.889 54.512C132.775 54.512 134.477 54.2428 135.977 53.6803L135.274 51.8077C134.044 52.2692 132.588 52.512 130.889 52.512V54.512ZM135.992 53.6744C137.533 53.0672 138.944 52.138 140.224 50.9038L138.835 49.4642C137.726 50.534 136.534 51.3114 135.259 51.8136L135.992 53.6744ZM138.794 50.8619L144.106 56.6219L145.577 55.2661L140.265 49.5061L138.794 50.8619ZM144.088 55.2861C141.084 58.7258 136.656 60.512 130.633 60.512V62.512C137.07 62.512 142.114 60.5862 145.595 56.6019L144.088 55.2861ZM130.633 60.512C126.881 60.512 123.604 59.791 120.777 58.3776L119.882 60.1664C123.029 61.7397 126.621 62.512 130.633 62.512V60.512ZM120.787 58.3827C117.953 56.9254 115.793 54.9375 114.274 52.4195L112.561 53.4525C114.285 56.3105 116.733 58.5466 119.872 60.1613L120.787 58.3827ZM114.274 52.4195C112.755 49.9009 111.985 47.0317 111.985 43.784H109.985C109.985 47.3629 110.838 50.5951 112.561 53.4525L114.274 52.4195ZM111.985 43.784C111.985 40.5764 112.735 37.7245 114.216 35.2024L112.491 34.1896C110.815 37.0435 109.985 40.2502 109.985 43.784H111.985ZM114.213 35.2065C115.743 32.6305 117.807 30.647 120.42 29.2405L119.471 27.4795C116.537 29.0596 114.207 31.3001 112.494 34.1855L114.213 35.2065ZM120.424 29.2379C123.082 27.7882 126.051 27.056 129.354 27.056V25.056C125.743 25.056 122.441 25.8598 119.467 27.4821L120.424 29.2379ZM129.354 27.056C132.576 27.056 135.463 27.748 138.036 29.1151L138.975 27.3489C136.087 25.8147 132.873 25.056 129.354 25.056V27.056ZM138.036 29.1151C140.596 30.4748 142.59 32.428 144.034 34.9943L145.777 34.0137C144.149 31.1187 141.877 28.8906 138.975 27.3489L138.036 29.1151ZM144.043 35.0104C145.519 37.5231 146.273 40.479 146.273 43.912H148.273C148.273 40.177 147.449 36.8609 145.768 33.9976L144.043 35.0104ZM129.417 32.608C126.955 32.608 124.821 33.3104 123.081 34.7598L124.362 36.2962C125.694 35.1856 127.358 34.608 129.417 34.608V32.608ZM123.081 34.7598C121.335 36.2152 120.291 38.196 119.917 40.6239L121.894 40.9281C122.203 38.9187 123.036 37.4008 124.362 36.2962L123.081 34.7598ZM120.906 41.776H137.866V39.776H120.906V41.776ZM138.853 40.621C138.479 38.2314 137.432 36.2754 135.69 34.8238L134.409 36.3602C135.739 37.4686 136.57 38.9686 136.878 40.931L138.853 40.621ZM135.702 34.8342C133.967 33.3401 131.851 32.608 129.417 32.608V34.608C131.421 34.608 133.06 35.1986 134.397 36.3498L135.702 34.8342ZM187.471 26.568L188.393 26.9567L188.979 25.568H187.471V26.568ZM172.943 61V62H173.607L173.865 61.3887L172.943 61ZM162.639 61L161.718 61.3873L161.975 62H162.639V61ZM148.176 26.568V25.568H146.671L147.254 26.9553L148.176 26.568ZM158.48 26.568L159.406 26.1909L159.152 25.568H158.48V26.568ZM168.016 49.992L167.089 50.3691L168 52.6067L168.937 50.3798L168.016 49.992ZM177.872 26.568V25.568H177.207L176.95 26.1802L177.872 26.568ZM186.55 26.1793L172.022 60.6113L173.865 61.3887L188.393 26.9567L186.55 26.1793ZM172.943 60H162.639V62H172.943V60ZM163.561 60.6127L149.097 26.1807L147.254 26.9553L161.718 61.3873L163.561 60.6127ZM148.176 27.568H158.48V25.568H148.176V27.568ZM157.553 26.9451L167.089 50.3691L168.942 49.6149L159.406 26.1909L157.553 26.9451ZM168.937 50.3798L178.793 26.9558L176.95 26.1802L167.094 49.6042L168.937 50.3798ZM177.872 27.568H187.471V25.568H177.872V27.568ZM224.144 46.6V47.6H225.07L225.141 46.6767L224.144 46.6ZM198.096 46.6V45.6H196.852L197.119 46.8149L198.096 46.6ZM201.424 51.656L202.001 50.8396L201.424 51.656ZM212.688 52.744L213.039 53.6803L213.047 53.6774L213.055 53.6744L212.688 52.744ZM216.592 50.184L217.327 49.5061L216.634 48.7544L215.898 49.4642L216.592 50.184ZM221.904 55.944L222.657 56.6019L223.248 55.9259L222.639 55.2661L221.904 55.944ZM197.392 59.272L196.935 60.1613L196.945 60.1664L197.392 59.272ZM190.48 52.936L189.624 53.4525L190.48 52.936ZM190.416 34.696L189.556 34.1855L189.554 34.1896L190.416 34.696ZM197.008 28.36L197.482 29.2405L197.487 29.2379L197.008 28.36ZM215.568 28.232L216.037 27.3489L215.568 28.232ZM221.968 34.504L221.096 34.9943L221.101 35.0024L221.106 35.0104L221.968 34.504ZM200.784 35.528L200.144 34.7598L200.784 35.528ZM197.968 40.776L196.98 40.6239L196.802 41.776H197.968V40.776ZM214.928 40.776V41.776H216.097L215.916 40.621L214.928 40.776ZM212.112 35.592L211.459 36.3498L211.466 36.355L211.472 36.3602L212.112 35.592ZM223.336 43.912C223.336 43.9057 223.335 43.9499 223.326 44.0896C223.318 44.2133 223.306 44.3859 223.291 44.6088C223.259 45.054 223.211 45.6919 223.147 46.5233L225.141 46.6767C225.266 45.0497 225.336 44.0907 225.336 43.912H223.336ZM224.144 45.6H198.096V47.6H224.144V45.6ZM197.119 46.8149C197.641 49.1862 198.89 51.0882 200.847 52.4724L202.001 50.8396C200.46 49.7491 199.49 48.2805 199.073 46.3851L197.119 46.8149ZM200.847 52.4724C202.798 53.8529 205.188 54.512 207.952 54.512V52.512C205.511 52.512 203.548 51.9338 202.001 50.8396L200.847 52.4724ZM207.952 54.512C209.837 54.512 211.539 54.2428 213.039 53.6803L212.337 51.8077C211.106 52.2692 209.651 52.512 207.952 52.512V54.512ZM213.055 53.6744C214.596 53.0672 216.006 52.138 217.286 50.9038L215.898 49.4642C214.788 50.534 213.596 51.3114 212.321 51.8136L213.055 53.6744ZM215.857 50.8619L221.169 56.6219L222.639 55.2661L217.327 49.5061L215.857 50.8619ZM221.151 55.2861C218.146 58.7258 213.719 60.512 207.696 60.512V62.512C214.132 62.512 219.177 60.5862 222.657 56.6019L221.151 55.2861ZM207.696 60.512C203.943 60.512 200.666 59.791 197.839 58.3776L196.945 60.1664C200.091 61.7397 203.683 62.512 207.696 62.512V60.512ZM197.849 58.3827C195.016 56.9254 192.855 54.9375 191.336 52.4195L189.624 53.4525C191.348 56.3105 193.795 58.5466 196.935 60.1613L197.849 58.3827ZM191.336 52.4195C189.817 49.9009 189.048 47.0317 189.048 43.784H187.048C187.048 47.3629 187.9 50.5951 189.624 53.4525L191.336 52.4195ZM189.048 43.784C189.048 40.5764 189.797 37.7245 191.278 35.2024L189.554 34.1896C187.878 37.0435 187.048 40.2502 187.048 43.784H189.048ZM191.276 35.2065C192.805 32.6305 194.87 30.647 197.482 29.2405L196.534 27.4795C193.599 29.0596 191.269 31.3001 189.556 34.1855L191.276 35.2065ZM197.487 29.2379C200.145 27.7882 203.114 27.056 206.416 27.056V25.056C202.806 25.056 199.503 25.8598 196.529 27.4821L197.487 29.2379ZM206.416 27.056C209.638 27.056 212.525 27.748 215.099 29.1151L216.037 27.3489C213.149 25.8147 209.935 25.056 206.416 25.056V27.056ZM215.099 29.1151C217.658 30.4748 219.653 32.428 221.096 34.9943L222.84 34.0137C221.211 31.1187 218.939 28.8906 216.037 27.3489L215.099 29.1151ZM221.106 35.0104C222.581 37.5231 223.336 40.479 223.336 43.912H225.336C225.336 40.177 224.512 36.8609 222.83 33.9976L221.106 35.0104ZM206.48 32.608C204.017 32.608 201.883 33.3104 200.144 34.7598L201.424 36.2962C202.757 35.1856 204.42 34.608 206.48 34.608V32.608ZM200.144 34.7598C198.397 36.2152 197.353 38.196 196.98 40.6239L198.956 40.9281C199.266 38.9187 200.099 37.4008 201.424 36.2962L200.144 34.7598ZM197.968 41.776H214.928V39.776H197.968V41.776ZM215.916 40.621C215.541 38.2314 214.494 36.2754 212.752 34.8238L211.472 36.3602C212.802 37.4686 213.632 38.9686 213.94 40.931L215.916 40.621ZM212.765 34.8342C211.029 33.3401 208.914 32.608 206.48 32.608V34.608C208.484 34.608 210.123 35.1986 211.459 36.3498L212.765 34.8342ZM240.519 31.112H239.519V34.2195L241.331 31.6952L240.519 31.112ZM245.319 27.336L244.934 26.4129L244.927 26.4158L245.319 27.336ZM252.359 26.056H253.359V25.056H252.359V26.056ZM252.359 35.272L252.282 36.2691L253.359 36.3519V35.272H252.359ZM243.399 37.576L244.097 38.2925L244.106 38.2831L243.399 37.576ZM240.967 61V62H241.967V61H240.967ZM230.983 61H229.983V62H230.983V61ZM230.983 26.568V25.568H229.983V26.568H230.983ZM240.519 26.568H241.519V25.568H240.519V26.568ZM241.331 31.6952C242.412 30.1895 243.862 29.0426 245.711 28.2562L244.927 26.4158C242.765 27.3361 241.015 28.7065 239.707 30.5288L241.331 31.6952ZM245.704 28.2591C247.609 27.4653 249.821 27.056 252.359 27.056V25.056C249.607 25.056 247.125 25.5 244.934 26.4129L245.704 28.2591ZM251.359 26.056V35.272H253.359V26.056H251.359ZM252.436 34.2749C251.332 34.19 250.547 34.144 250.119 34.144V36.144C250.459 36.144 251.168 36.1833 252.282 36.2691L252.436 34.2749ZM250.119 34.144C247.064 34.144 244.545 35.0162 242.692 36.8689L244.106 38.2831C245.496 36.8931 247.456 36.144 250.119 36.144V34.144ZM242.701 36.8595C240.818 38.6931 239.967 41.3876 239.967 44.744H241.967C241.967 41.7004 242.737 39.6162 244.097 38.2925L242.701 36.8595ZM239.967 44.744V61H241.967V44.744H239.967ZM240.967 60H230.983V62H240.967V60ZM231.983 61V26.568H229.983V61H231.983ZM230.983 27.568H240.519V25.568H230.983V27.568ZM239.519 26.568V31.112H241.519V26.568H239.519ZM281.79 60.36L281.504 61.3182L281.512 61.3204L281.519 61.3224L281.79 60.36ZM273.854 56.584L272.943 56.173L272.617 56.8958L273.246 57.3779L273.854 56.584ZM277.375 48.776L277.966 47.9696L276.97 47.2395L276.463 48.365L277.375 48.776ZM284.223 52.168L284.53 51.2163L284.223 52.168ZM298.686 52.168L299.205 53.0232L299.214 53.0175L299.223 53.0117L298.686 52.168ZM299.518 46.024L298.852 46.7692L298.872 46.7876L298.894 46.8049L299.518 46.024ZM296.319 44.296L296.002 45.2447L296.012 45.2477L296.319 44.296ZM291.07 42.888L290.839 43.861L290.846 43.8624L291.07 42.888ZM282.686 40.456L283.036 39.5189L282.686 40.456ZM277.055 36.552L276.295 37.2029L276.304 37.213L277.055 36.552ZM276.862 22.344L277.692 22.9026L277.697 22.8948L276.862 22.344ZM283.198 17.288L282.801 16.3703L282.796 16.3725L283.198 17.288ZM302.014 16.456L302.257 15.4859L302.014 16.456ZM309.182 19.4L310.109 19.7766L310.426 18.9976L309.712 18.552L309.182 19.4ZM305.983 27.272L305.489 28.1419L306.48 28.7036L306.909 27.6486L305.983 27.272ZM287.103 25.16L286.548 24.3279L286.542 24.3319L286.536 24.336L287.103 25.16ZM287.422 32.328L286.985 33.2272L286.999 33.2343L287.014 33.2408L287.422 32.328ZM294.783 34.504L295.014 33.5311L295.006 33.5292L294.998 33.5275L294.783 34.504ZM303.167 36.936L303.516 35.9989L303.167 36.936ZM308.734 40.776L307.983 41.4359L307.992 41.446L308.734 40.776ZM308.927 54.92L308.1 54.3577L308.097 54.3614L308.927 54.92ZM302.526 59.912L302.129 58.9943L302.526 59.912ZM292.095 60.768C288.643 60.768 285.299 60.3107 282.062 59.3975L281.519 61.3224C284.938 62.2866 288.464 62.768 292.095 62.768V60.768ZM282.077 59.4018C278.869 58.4436 276.344 57.2311 274.463 55.7901L273.246 57.3779C275.376 59.0089 278.141 60.3137 281.504 61.3182L282.077 59.4018ZM274.766 56.995L278.286 49.187L276.463 48.365L272.943 56.173L274.766 56.995ZM276.783 49.5824C278.803 51.0634 281.185 52.2389 283.915 53.1197L284.53 51.2163C281.969 50.3905 279.786 49.3046 277.966 47.9696L276.783 49.5824ZM283.915 53.1197C286.655 54.0034 289.404 54.448 292.159 54.448V52.448C289.623 52.448 287.081 52.0393 284.53 51.2163L283.915 53.1197ZM292.159 54.448C295.161 54.448 297.56 54.0198 299.205 53.0232L298.168 51.3128C296.997 52.0229 295.044 52.448 292.159 52.448V54.448ZM299.223 53.0117C300.869 51.9645 301.798 50.4969 301.798 48.648H299.798C299.798 49.7004 299.32 50.5795 298.15 51.3243L299.223 53.0117ZM301.798 48.648C301.798 47.269 301.227 46.1102 300.143 45.2431L298.894 46.8049C299.517 47.3032 299.798 47.8937 299.798 48.648H301.798ZM300.185 45.2788C299.246 44.4382 298.046 43.8024 296.625 43.3443L296.012 45.2477C297.237 45.6429 298.17 46.1592 298.852 46.7692L300.185 45.2788ZM296.635 43.3473C295.311 42.9062 293.527 42.4286 291.295 41.9136L290.846 43.8624C293.051 44.3714 294.766 44.8325 296.002 45.2447L296.635 43.3473ZM291.302 41.9151C287.91 41.1096 285.159 40.3099 283.036 39.5189L282.337 41.3931C284.566 42.2234 287.404 43.045 290.839 43.8609L291.302 41.9151ZM283.036 39.5189C281.019 38.7675 279.278 37.563 277.805 35.891L276.304 37.213C277.989 39.125 280.002 40.5232 282.337 41.3931L283.036 39.5189ZM277.814 35.9012C276.471 34.3345 275.75 32.1971 275.75 29.384H273.75C273.75 32.5442 274.566 35.1855 276.295 37.2028L277.814 35.9012ZM275.75 29.384C275.75 26.9735 276.399 24.8226 277.692 22.9026L276.033 21.7854C274.51 24.0468 273.75 26.5892 273.75 29.384H275.75ZM277.697 22.8948C278.979 20.9522 280.925 19.3793 283.601 18.2035L282.796 16.3725C279.84 17.6713 277.562 19.4691 276.028 21.7932L277.697 22.8948ZM283.596 18.2057C286.296 17.0369 289.63 16.432 293.63 16.432V14.432C289.439 14.432 285.818 15.0645 282.801 16.3703L283.596 18.2057ZM293.63 16.432C296.409 16.432 299.122 16.7636 301.772 17.4261L302.257 15.4859C299.446 14.783 296.57 14.432 293.63 14.432V16.432ZM301.772 17.4261C304.417 18.0875 306.707 19.0318 308.652 20.248L309.712 18.552C307.562 17.2082 305.073 16.1898 302.257 15.4859L301.772 17.4261ZM308.256 19.0234L305.056 26.8954L306.909 27.6486L310.109 19.7766L308.256 19.0234ZM306.476 26.4021C302.209 23.9831 297.902 22.752 293.566 22.752V24.752C297.508 24.752 301.478 25.8676 305.489 28.1419L306.476 26.4021ZM293.566 22.752C290.593 22.752 288.2 23.2264 286.548 24.3279L287.657 25.9921C288.821 25.2162 290.737 24.752 293.566 24.752V22.752ZM286.536 24.336C284.924 25.4439 284.055 26.9773 284.055 28.872H286.055C286.055 27.6947 286.55 26.7535 287.669 25.984L286.536 24.336ZM284.055 28.872C284.055 29.8207 284.302 30.6942 284.822 31.4532C285.336 32.2046 286.079 32.7866 286.985 33.2272L287.86 31.4288C287.187 31.1014 286.746 30.7234 286.471 30.3228C286.202 29.9298 286.055 29.4593 286.055 28.872H284.055ZM287.014 33.2408C288.73 34.0084 291.263 34.751 294.567 35.4805L294.998 33.5275C291.731 32.8063 289.358 32.0982 287.831 31.4152L287.014 33.2408ZM294.551 35.4769C297.943 36.2824 300.694 37.0821 302.817 37.8731L303.516 35.9989C301.287 35.1686 298.449 34.347 295.014 33.5311L294.551 35.4769ZM302.817 37.8731C304.838 38.6259 306.556 39.8104 307.983 41.4358L309.486 40.1162C307.841 38.2429 305.847 36.8675 303.516 35.9989L302.817 37.8731ZM307.992 41.446C309.364 42.9663 310.103 45.0723 310.103 47.88H312.103C312.103 44.7144 311.262 42.0843 309.477 40.106L307.992 41.446ZM310.103 47.88C310.103 50.2378 309.438 52.3888 308.1 54.3577L309.753 55.4823C311.316 53.1845 312.103 50.6422 312.103 47.88H310.103ZM308.097 54.3614C306.819 56.2598 304.854 57.8149 302.129 58.9943L302.924 60.8297C305.916 59.5344 308.218 57.7615 309.756 55.4786L308.097 54.3614ZM302.129 58.9943C299.429 60.1631 296.095 60.768 292.095 60.768V62.768C296.286 62.768 299.907 62.1355 302.924 60.8297L302.129 58.9943ZM339.691 59.336L340.285 60.1402L340.896 59.6888L340.625 58.9793L339.691 59.336ZM336.043 61L336.279 61.9719L336.289 61.9694L336.299 61.9667L336.043 61ZM322.027 58.376L321.341 59.1038L321.348 59.1103L322.027 58.376ZM318.699 35.016H319.699V34.016H318.699V35.016ZM313.387 35.016H312.387V36.016H313.387V35.016ZM313.387 27.336V26.336H312.387V27.336H313.387ZM318.699 27.336V28.336H319.699V27.336H318.699ZM318.699 18.952V17.952H317.699V18.952H318.699ZM328.683 18.952H329.683V17.952H328.683V18.952ZM328.683 27.336H327.683V28.336H328.683V27.336ZM337.259 27.336H338.259V26.336H337.259V27.336ZM337.259 35.016V36.016H338.259V35.016H337.259ZM328.683 35.016V34.016H327.683V35.016H328.683ZM329.771 52.424L329.026 53.0908L329.044 53.1115L329.064 53.1311L329.771 52.424ZM337.003 52.296L337.937 51.9393L337.458 50.6843L336.393 51.5034L337.003 52.296ZM339.097 58.5318C338.237 59.167 337.143 59.6744 335.787 60.0333L336.299 61.9667C337.844 61.5576 339.182 60.9556 340.285 60.1402L339.097 58.5318ZM335.807 60.0281C334.483 60.3492 333.069 60.512 331.563 60.512V62.512C333.214 62.512 334.787 62.3335 336.279 61.9719L335.807 60.0281ZM331.563 60.512C327.634 60.512 324.728 59.5116 322.706 57.6417L321.348 59.1103C323.848 61.4218 327.3 62.512 331.563 62.512V60.512ZM322.713 57.6482C320.755 55.8029 319.699 53.0326 319.699 49.16H317.699C317.699 53.3941 318.862 56.7677 321.341 59.1038L322.713 57.6482ZM319.699 49.16V35.016H317.699V49.16H319.699ZM318.699 34.016H313.387V36.016H318.699V34.016ZM314.387 35.016V27.336H312.387V35.016H314.387ZM313.387 28.336H318.699V26.336H313.387V28.336ZM319.699 27.336V18.952H317.699V27.336H319.699ZM318.699 19.952H328.683V17.952H318.699V19.952ZM327.683 18.952V27.336H329.683V18.952H327.683ZM328.683 28.336H337.259V26.336H328.683V28.336ZM336.259 27.336V35.016H338.259V27.336H336.259ZM337.259 34.016H328.683V36.016H337.259V34.016ZM327.683 35.016V49.032H329.683V35.016H327.683ZM327.683 49.032C327.683 50.6453 328.088 52.0429 329.026 53.0908L330.516 51.7572C330.003 51.1838 329.683 50.32 329.683 49.032H327.683ZM329.064 53.1311C330.065 54.132 331.412 54.576 332.971 54.576V52.576C331.799 52.576 331.013 52.252 330.478 51.7169L329.064 53.1311ZM332.971 54.576C334.741 54.576 336.306 54.0935 337.613 53.0886L336.393 51.5034C335.481 52.2052 334.359 52.576 332.971 52.576V54.576ZM336.069 52.6527L338.757 59.6927L340.625 58.9793L337.937 51.9393L336.069 52.6527ZM354.832 31.112H353.832V34.2195L355.644 31.6952L354.832 31.112ZM359.632 27.336L359.247 26.4129L359.24 26.4158L359.632 27.336ZM366.672 26.056H367.672V25.056H366.672V26.056ZM366.672 35.272L366.595 36.2691L367.672 36.3519V35.272H366.672ZM357.711 37.576L358.409 38.2925L358.419 38.2831L357.711 37.576ZM355.28 61V62H356.28V61H355.28ZM345.296 61H344.296V62H345.296V61ZM345.296 26.568V25.568H344.296V26.568H345.296ZM354.832 26.568H355.832V25.568H354.832V26.568ZM355.644 31.6952C356.725 30.1895 358.175 29.0426 360.023 28.2562L359.24 26.4158C357.077 27.3361 355.328 28.7065 354.019 30.5288L355.644 31.6952ZM360.016 28.2591C361.921 27.4653 364.133 27.056 366.672 27.056V25.056C363.919 25.056 361.438 25.5 359.247 26.4129L360.016 28.2591ZM365.672 26.056V35.272H367.672V26.056H365.672ZM366.748 34.2749C365.644 34.19 364.86 34.144 364.431 34.144V36.144C364.771 36.144 365.48 36.1833 366.595 36.2691L366.748 34.2749ZM364.431 34.144C361.377 34.144 358.857 35.0162 357.004 36.8689L358.419 38.2831C359.809 36.8931 361.769 36.144 364.431 36.144V34.144ZM357.014 36.8595C355.131 38.6931 354.28 41.3876 354.28 44.744H356.28C356.28 41.7004 357.05 39.6162 358.409 38.2925L357.014 36.8595ZM354.28 44.744V61H356.28V44.744H354.28ZM355.28 60H345.296V62H355.28V60ZM346.296 61V26.568H344.296V61H346.296ZM345.296 27.568H354.832V25.568H345.296V27.568ZM353.832 26.568V31.112H355.832V26.568H353.832ZM378.888 59.272L378.414 60.1529L378.422 60.1571L378.43 60.1611L378.888 59.272ZM372.168 52.936L371.311 53.4525L372.168 52.936ZM372.168 34.632L371.311 34.1155L372.168 34.632ZM378.888 28.36L379.351 29.2464L379.355 29.2438L378.888 28.36ZM398.408 28.36L397.934 29.2409L397.944 29.2463L398.408 28.36ZM405.128 34.632L405.984 34.1155L405.128 34.632ZM405.128 52.936L405.984 53.4525L405.128 52.936ZM398.408 59.272L398.871 60.1584L398.881 60.1529L398.408 59.272ZM394.952 50.76L394.227 50.0708L394.227 50.0713L394.952 50.76ZM394.952 36.872L394.218 37.5518L394.227 37.561L394.236 37.5701L394.952 36.872ZM382.344 36.872L383.06 37.5702L383.068 37.5612L382.344 36.872ZM382.344 50.76L381.619 51.4493L381.628 51.4581L382.344 50.76ZM388.68 60.512C385.194 60.512 382.09 59.7955 379.345 58.3829L378.43 60.1611C381.488 61.7351 384.912 62.512 388.68 62.512V60.512ZM379.361 58.3911C376.655 56.937 374.549 54.9485 373.024 52.4195L371.311 53.4525C373.028 56.2995 375.403 58.535 378.414 60.1529L379.361 58.3911ZM373.024 52.4195C371.505 49.9009 370.736 47.0317 370.736 43.784H368.736C368.736 47.3629 369.588 50.5951 371.311 53.4525L373.024 52.4195ZM370.736 43.784C370.736 40.5363 371.505 37.6671 373.024 35.1485L371.311 34.1155C369.588 36.9729 368.736 40.2051 368.736 43.784H370.736ZM373.024 35.1485C374.548 32.622 376.65 30.6572 379.351 29.2463L378.424 27.4736C375.408 29.0494 373.03 31.266 371.311 34.1155L373.024 35.1485ZM379.355 29.2438C382.098 27.7918 385.199 27.056 388.68 27.056V25.056C384.907 25.056 381.48 25.8561 378.42 27.4762L379.355 29.2438ZM388.68 27.056C392.161 27.056 395.237 27.7919 397.934 29.2409L398.881 27.4791C395.86 25.8561 392.452 25.056 388.68 25.056V27.056ZM397.944 29.2463C400.645 30.6572 402.747 32.622 404.271 35.1485L405.984 34.1155C404.265 31.266 401.887 29.0494 398.871 27.4736L397.944 29.2463ZM404.271 35.1485C405.79 37.6671 406.56 40.5363 406.56 43.784H408.56C408.56 40.2051 407.707 36.9729 405.984 34.1155L404.271 35.1485ZM406.56 43.784C406.56 47.0317 405.79 49.9009 404.271 52.4195L405.984 53.4525C407.707 50.5951 408.56 47.3629 408.56 43.784H406.56ZM404.271 52.4195C402.746 54.9485 400.64 56.937 397.934 58.3911L398.881 60.1529C401.892 58.535 404.267 56.2995 405.984 53.4525L404.271 52.4195ZM397.944 58.3857C395.246 59.7955 392.165 60.512 388.68 60.512V62.512C392.447 62.512 395.852 61.7352 398.871 60.1583L397.944 58.3857ZM388.68 54.32C391.487 54.32 393.849 53.3727 395.677 51.4487L394.227 50.0713C392.812 51.5607 390.992 52.32 388.68 52.32V54.32ZM395.676 51.4492C397.551 49.4777 398.448 46.887 398.448 43.784H396.448C396.448 46.4837 395.68 48.5437 394.227 50.0708L395.676 51.4492ZM398.448 43.784C398.448 40.682 397.552 38.1064 395.668 36.1739L394.236 37.5701C395.679 39.051 396.448 41.0834 396.448 43.784H398.448ZM395.685 36.1922C393.859 34.2225 391.495 33.248 388.68 33.248V35.248C390.984 35.248 392.801 36.0228 394.218 37.5518L395.685 36.1922ZM388.68 33.248C385.864 33.248 383.484 34.222 381.619 36.1828L383.068 37.5612C384.531 36.0233 386.375 35.248 388.68 35.248V33.248ZM381.628 36.1739C379.743 38.1064 378.848 40.682 378.848 43.784H380.848C380.848 41.0834 381.616 39.051 383.06 37.5701L381.628 36.1739ZM378.848 43.784C378.848 46.887 379.744 49.4777 381.619 51.4492L383.068 50.0708C381.615 48.5437 380.848 46.4837 380.848 43.784H378.848ZM381.628 51.4581C383.495 53.3731 385.872 54.32 388.68 54.32V52.32C386.367 52.32 384.52 51.5602 383.06 50.0619L381.628 51.4581ZM445.465 29.896L444.764 30.6089L444.77 30.6146L445.465 29.896ZM449.433 61V62H450.433V61H449.433ZM439.449 61H438.449V62H439.449V61ZM437.657 36.744L436.904 37.4025L436.91 37.4084L436.915 37.4143L437.657 36.744ZM426.457 37.064L427.174 37.7611L427.183 37.7512L426.457 37.064ZM424.217 61V62H425.217V61H424.217ZM414.233 61H413.233V62H414.233V61ZM414.233 26.568V25.568H413.233V26.568H414.233ZM423.769 26.568H424.769V25.568H423.769V26.568ZM423.769 30.6H422.769V33.181L424.508 31.2738L423.769 30.6ZM428.697 27.272L429.061 28.2032L429.07 28.1998L429.079 28.1963L428.697 27.272ZM435.161 27.056C439.213 27.056 442.38 28.2638 444.764 30.6089L446.166 29.1831C443.345 26.4082 439.642 25.056 435.161 25.056V27.056ZM444.77 30.6146C447.157 32.9252 448.433 36.4217 448.433 41.288H450.433C450.433 36.0849 449.063 31.9868 446.16 29.1774L444.77 30.6146ZM448.433 41.288V61H450.433V41.288H448.433ZM449.433 60H439.449V62H449.433V60ZM440.449 61V42.824H438.449V61H440.449ZM440.449 42.824C440.449 39.9729 439.829 37.6566 438.399 36.0737L436.915 37.4143C437.874 38.4767 438.449 40.2138 438.449 42.824H440.449ZM438.41 36.0855C436.98 34.4514 434.946 33.696 432.473 33.696V35.696C434.523 35.696 435.945 36.306 436.904 37.4025L438.41 36.0855ZM432.473 33.696C429.728 33.696 427.443 34.5664 425.731 36.3768L427.183 37.7512C428.458 36.4043 430.183 35.696 432.473 35.696V33.696ZM425.74 36.3669C423.999 38.1574 423.217 40.7568 423.217 43.976H425.217C425.217 41.0512 425.928 39.0426 427.174 37.7611L425.74 36.3669ZM423.217 43.976V61H425.217V43.976H423.217ZM424.217 60H414.233V62H424.217V60ZM415.233 61V26.568H413.233V61H415.233ZM414.233 27.568H423.769V25.568H414.233V27.568ZM422.769 26.568V30.6H424.769V26.568H422.769ZM424.508 31.2738C425.72 29.9448 427.231 28.9195 429.061 28.2032L428.333 26.3408C426.238 27.1605 424.464 28.3539 423.03 29.9262L424.508 31.2738ZM429.079 28.1963C430.908 27.4406 432.932 27.056 435.161 27.056V25.056C432.697 25.056 430.411 25.4821 428.315 26.3477L429.079 28.1963ZM494.378 26.568H495.378V25.568H494.378V26.568ZM489.45 69.32L488.767 68.5896L489.45 69.32ZM465.578 72.712L465.316 73.6771L465.578 72.712ZM458.154 69.192L457.279 68.7077L456.866 69.4539L457.538 69.9795L458.154 69.192ZM462.122 62.024L462.758 61.2521L461.829 60.4876L461.247 61.5397L462.122 62.024ZM467.626 64.84L467.937 63.8895L467.928 63.8868L467.92 63.8842L467.626 64.84ZM481.898 63.56L481.22 62.8252L481.21 62.8342L481.2 62.8435L481.898 63.56ZM484.394 55.048H485.394V52.4642L483.655 54.3748L484.394 55.048ZM464.81 57.288L464.334 58.1675L464.343 58.1722L464.351 58.1766L464.81 57.288ZM458.602 51.4L459.456 50.8791L458.602 51.4ZM458.602 33.992L459.456 34.5129L458.602 33.992ZM464.81 28.168L465.275 29.0536L465.28 29.0507L464.81 28.168ZM484.906 30.984L484.122 31.605L485.906 33.8567V30.984H484.906ZM484.906 26.568V25.568H483.906V26.568H484.906ZM481.962 48.84L482.64 49.5748L482.641 49.5741L481.962 48.84ZM481.962 36.616L481.274 37.3415L481.283 37.3505L481.293 37.3593L481.962 36.616ZM468.97 36.616L469.639 37.3594L469.649 37.3501L468.97 36.616ZM468.97 48.84L468.291 49.5742L468.301 49.5833L468.97 48.84ZM493.378 26.568V55.24H495.378V26.568H493.378ZM493.378 55.24C493.378 61.3924 491.779 65.7728 488.767 68.5896L490.133 70.0504C493.691 66.7232 495.378 61.7169 495.378 55.24H493.378ZM488.767 68.5896C485.73 71.429 481.214 72.928 475.05 72.928V74.928C481.515 74.928 486.599 73.355 490.133 70.0504L488.767 68.5896ZM475.05 72.928C471.804 72.928 468.735 72.5327 465.84 71.7469L465.316 73.6771C468.394 74.5126 471.64 74.928 475.05 74.928V72.928ZM465.84 71.7469C462.952 70.963 460.606 69.841 458.77 68.4045L457.538 69.9795C459.628 71.615 462.231 72.8396 465.316 73.6771L465.84 71.7469ZM459.029 69.6763L462.997 62.5083L461.247 61.5397L457.279 68.7077L459.029 69.6763ZM461.486 62.7959C463.058 64.0906 465.017 65.0835 467.332 65.7958L467.92 63.8842C465.798 63.2312 464.087 62.3467 462.758 61.2521L461.486 62.7959ZM467.315 65.7905C469.629 66.5469 471.952 66.928 474.282 66.928V64.928C472.174 64.928 470.06 64.5838 467.937 63.8895L467.315 65.7905ZM474.282 66.928C477.864 66.928 480.71 66.1129 482.596 64.2765L481.2 62.8435C479.844 64.1644 477.612 64.928 474.282 64.928V66.928ZM482.576 64.2948C484.516 62.5043 485.394 59.8432 485.394 56.52H483.394C483.394 59.5115 482.608 61.5437 481.22 62.8252L482.576 64.2948ZM485.394 56.52V55.048H483.394V56.52H485.394ZM483.655 54.3748C481.279 56.9835 477.945 58.336 473.514 58.336V60.336C478.384 60.336 482.303 58.8299 485.133 55.7212L483.655 54.3748ZM473.514 58.336C470.506 58.336 467.764 57.6871 465.269 56.3994L464.351 58.1766C467.147 59.6196 470.207 60.336 473.514 60.336V58.336ZM465.286 56.4085C462.838 55.0842 460.899 53.2451 459.456 50.8791L457.748 51.9209C459.377 54.5896 461.577 56.6758 464.334 58.1675L465.286 56.4085ZM459.456 50.8791C458.026 48.5361 457.298 45.8191 457.298 42.696H455.298C455.298 46.1435 456.106 49.2292 457.748 51.9209L459.456 50.8791ZM457.298 42.696C457.298 39.5729 458.026 36.8559 459.456 34.5129L457.748 33.4711C456.106 36.1628 455.298 39.2485 455.298 42.696H457.298ZM459.456 34.5129C460.898 32.1495 462.833 30.3345 465.275 29.0535L464.345 27.2825C461.582 28.7322 459.378 30.7998 457.748 33.4711L459.456 34.5129ZM465.28 29.0507C467.773 27.7239 470.511 27.056 473.514 27.056V25.056C470.202 25.056 467.138 25.7961 464.34 27.2853L465.28 29.0507ZM473.514 27.056C478.266 27.056 481.746 28.6058 484.122 31.605L485.69 30.363C482.86 26.7915 478.746 25.056 473.514 25.056V27.056ZM485.906 30.984V26.568H483.906V30.984H485.906ZM484.906 27.568H494.378V25.568H484.906V27.568ZM475.498 52.144C478.35 52.144 480.761 51.3096 482.64 49.5748L481.284 48.1052C479.835 49.4424 477.937 50.144 475.498 50.144V52.144ZM482.641 49.5741C484.571 47.7893 485.522 45.4663 485.522 42.696H483.522C483.522 44.9604 482.767 46.7333 481.283 48.1059L482.641 49.5741ZM485.522 42.696C485.522 39.9257 484.57 37.6179 482.631 35.8727L481.293 37.3593C482.767 38.6861 483.522 40.4316 483.522 42.696H485.522ZM482.65 35.8905C480.772 34.1086 478.357 33.248 475.498 33.248V35.248C477.929 35.248 479.824 35.9661 481.274 37.3415L482.65 35.8905ZM475.498 33.248C472.638 33.248 470.208 34.1085 468.291 35.8819L469.649 37.3501C471.145 35.9661 473.067 35.248 475.498 35.248V33.248ZM468.301 35.8727C466.362 37.6179 465.41 39.9257 465.41 42.696H467.41C467.41 40.4316 468.165 38.6861 469.639 37.3593L468.301 35.8727ZM465.41 42.696C465.41 45.4663 466.361 47.7893 468.291 49.5741L469.649 48.1059C468.165 46.7333 467.41 44.9604 467.41 42.696H465.41ZM468.301 49.5833C470.219 51.3095 472.646 52.144 475.498 52.144V50.144C473.06 50.144 471.134 49.4425 469.639 48.0967L468.301 49.5833ZM511.927 50.824L511.219 51.5311L511.226 51.5378L511.233 51.5443L511.927 50.824ZM513.334 57.8L512.364 57.5575L513.334 57.8ZM511.927 61.64L511.006 61.2489L511.001 61.2603L510.997 61.2719L511.927 61.64ZM508.279 70.856V71.856H508.958L509.208 71.2241L508.279 70.856ZM501.943 70.856L500.979 70.5893L500.628 71.856H501.943V70.856ZM504.759 60.68L505.722 60.9467L505.961 60.084L505.13 59.7515L504.759 60.68ZM502.198 58.632L501.344 59.1519L501.358 59.174L501.372 59.1953L502.198 58.632ZM503.03 50.824L503.724 51.5443L503.725 51.5438L503.03 50.824ZM507.51 50.096C509.066 50.096 510.275 50.5863 511.219 51.5311L512.634 50.1169C511.274 48.7577 509.539 48.096 507.51 48.096V50.096ZM511.233 51.5443C512.16 52.4369 512.654 53.6334 512.654 55.24H514.654C514.654 53.1772 513.997 51.4298 512.62 50.1037L511.233 51.5443ZM512.654 55.24C512.654 56.0091 512.558 56.781 512.364 57.5575L514.305 58.0425C514.537 57.1123 514.654 56.1776 514.654 55.24H512.654ZM512.364 57.5575C512.171 58.3302 511.728 59.5497 511.006 61.2489L512.847 62.0311C513.575 60.317 514.071 58.9765 514.305 58.0425L512.364 57.5575ZM510.997 61.2719L507.349 70.488L509.208 71.2241L512.856 62.008L510.997 61.2719ZM508.279 69.856H501.943V71.856H508.279V69.856ZM502.906 71.1227L505.722 60.9467L503.795 60.4133L500.979 70.5893L502.906 71.1227ZM505.13 59.7515C504.246 59.3978 503.551 58.8412 503.025 58.0687L501.372 59.1953C502.126 60.3002 503.138 61.1089 504.387 61.6085L505.13 59.7515ZM503.053 58.1121C502.561 57.3048 502.302 56.3581 502.302 55.24H500.302C500.302 56.6819 500.641 57.9965 501.344 59.1519L503.053 58.1121ZM502.302 55.24C502.302 53.6334 502.797 52.4369 503.724 51.5443L502.337 50.1037C500.96 51.4298 500.302 53.1772 500.302 55.24H502.302ZM503.725 51.5438C504.717 50.5867 505.955 50.096 507.51 50.096V48.096C505.482 48.096 503.733 48.7573 502.336 50.1042L503.725 51.5438Z"
        fill="white" />
    <path
        d="M15.68 106.52V118.36H36.416V126.68H15.68V143H5.312V98.2H39.168V106.52H15.68ZM60.992 143.512C57.3653 143.512 54.1013 142.765 51.2 141.272C48.3413 139.736 46.1013 137.624 44.48 134.936C42.8587 132.248 42.048 129.197 42.048 125.784C42.048 122.371 42.8587 119.32 44.48 116.632C46.1013 113.944 48.3413 111.853 51.2 110.36C54.1013 108.824 57.3653 108.056 60.992 108.056C64.6187 108.056 67.8613 108.824 70.72 110.36C73.5787 111.853 75.8187 113.944 77.44 116.632C79.0613 119.32 79.872 122.371 79.872 125.784C79.872 129.197 79.0613 132.248 77.44 134.936C75.8187 137.624 73.5787 139.736 70.72 141.272C67.8613 142.765 64.6187 143.512 60.992 143.512ZM60.992 135.32C63.552 135.32 65.6427 134.467 67.264 132.76C68.928 131.011 69.76 128.685 69.76 125.784C69.76 122.883 68.928 120.579 67.264 118.872C65.6427 117.123 63.552 116.248 60.992 116.248C58.432 116.248 56.32 117.123 54.656 118.872C52.992 120.579 52.16 122.883 52.16 125.784C52.16 128.685 52.992 131.011 54.656 132.76C56.32 134.467 58.432 135.32 60.992 135.32ZM96.0815 113.112C97.2762 111.448 98.8762 110.189 100.882 109.336C102.93 108.483 105.276 108.056 107.922 108.056V117.272C106.812 117.187 106.066 117.144 105.682 117.144C102.823 117.144 100.583 117.955 98.9615 119.576C97.3402 121.155 96.5295 123.544 96.5295 126.744V143H86.5455V108.568H96.0815V113.112ZM147.274 125.912C147.274 126.04 147.21 126.936 147.082 128.6H121.034C121.503 130.733 122.612 132.419 124.362 133.656C126.111 134.893 128.287 135.512 130.89 135.512C132.682 135.512 134.26 135.256 135.626 134.744C137.034 134.189 138.335 133.336 139.53 132.184L144.842 137.944C141.599 141.656 136.863 143.512 130.634 143.512C126.751 143.512 123.316 142.765 120.33 141.272C117.343 139.736 115.039 137.624 113.418 134.936C111.796 132.248 110.986 129.197 110.986 125.784C110.986 122.413 111.775 119.384 113.354 116.696C114.975 113.965 117.172 111.853 119.946 110.36C122.762 108.824 125.898 108.056 129.354 108.056C132.724 108.056 135.775 108.781 138.506 110.232C141.236 111.683 143.37 113.773 144.906 116.504C146.484 119.192 147.274 122.328 147.274 125.912ZM129.418 115.608C127.156 115.608 125.258 116.248 123.722 117.528C122.186 118.808 121.247 120.557 120.906 122.776H137.866C137.524 120.6 136.586 118.872 135.05 117.592C133.514 116.269 131.636 115.608 129.418 115.608ZM187.472 108.568L172.944 143H162.64L148.175 108.568H158.48L168.016 131.992L177.872 108.568H187.472ZM224.336 125.912C224.336 126.04 224.272 126.936 224.144 128.6H198.096C198.565 130.733 199.675 132.419 201.424 133.656C203.173 134.893 205.349 135.512 207.952 135.512C209.744 135.512 211.323 135.256 212.688 134.744C214.096 134.189 215.397 133.336 216.592 132.184L221.904 137.944C218.661 141.656 213.925 143.512 207.696 143.512C203.813 143.512 200.379 142.765 197.392 141.272C194.405 139.736 192.101 137.624 190.48 134.936C188.859 132.248 188.048 129.197 188.048 125.784C188.048 122.413 188.837 119.384 190.416 116.696C192.037 113.965 194.235 111.853 197.008 110.36C199.824 108.824 202.96 108.056 206.416 108.056C209.787 108.056 212.837 108.781 215.568 110.232C218.299 111.683 220.432 113.773 221.968 116.504C223.547 119.192 224.336 122.328 224.336 125.912ZM206.48 115.608C204.219 115.608 202.32 116.248 200.784 117.528C199.248 118.808 198.309 120.557 197.968 122.776H214.928C214.587 120.6 213.648 118.872 212.112 117.592C210.576 116.269 208.699 115.608 206.48 115.608ZM240.519 113.112C241.714 111.448 243.314 110.189 245.319 109.336C247.367 108.483 249.714 108.056 252.359 108.056V117.272C251.25 117.187 250.503 117.144 250.119 117.144C247.26 117.144 245.02 117.955 243.399 119.576C241.778 121.155 240.967 123.544 240.967 126.744V143H230.983V108.568H240.519V113.112ZM296.767 98.2C300.735 98.2 304.169 98.8613 307.071 100.184C310.015 101.507 312.276 103.384 313.855 105.816C315.433 108.248 316.223 111.128 316.223 114.456C316.223 117.741 315.433 120.621 313.855 123.096C312.276 125.528 310.015 127.405 307.071 128.728C304.169 130.008 300.735 130.648 296.767 130.648H287.743V143H277.375V98.2H296.767ZM296.191 122.2C299.305 122.2 301.673 121.539 303.295 120.216C304.916 118.851 305.727 116.931 305.727 114.456C305.727 111.939 304.916 110.019 303.295 108.696C301.673 107.331 299.305 106.648 296.191 106.648H287.743V122.2H296.191ZM332.457 113.112C333.651 111.448 335.251 110.189 337.257 109.336C339.305 108.483 341.651 108.056 344.297 108.056V117.272C343.187 117.187 342.441 117.144 342.057 117.144C339.198 117.144 336.958 117.955 335.337 119.576C333.715 121.155 332.905 123.544 332.905 126.744V143H322.921V108.568H332.457V113.112ZM366.305 143.512C362.678 143.512 359.414 142.765 356.513 141.272C353.654 139.736 351.414 137.624 349.793 134.936C348.171 132.248 347.361 129.197 347.361 125.784C347.361 122.371 348.171 119.32 349.793 116.632C351.414 113.944 353.654 111.853 356.513 110.36C359.414 108.824 362.678 108.056 366.305 108.056C369.931 108.056 373.174 108.824 376.033 110.36C378.891 111.853 381.131 113.944 382.753 116.632C384.374 119.32 385.185 122.371 385.185 125.784C385.185 129.197 384.374 132.248 382.753 134.936C381.131 137.624 378.891 139.736 376.033 141.272C373.174 142.765 369.931 143.512 366.305 143.512ZM366.305 135.32C368.865 135.32 370.955 134.467 372.577 132.76C374.241 131.011 375.073 128.685 375.073 125.784C375.073 122.883 374.241 120.579 372.577 118.872C370.955 117.123 368.865 116.248 366.305 116.248C363.745 116.248 361.633 117.123 359.969 118.872C358.305 120.579 357.473 122.883 357.473 125.784C357.473 128.685 358.305 131.011 359.969 132.76C361.633 134.467 363.745 135.32 366.305 135.32ZM426.546 108.568V143H417.074V138.904C415.751 140.397 414.173 141.549 412.338 142.36C410.503 143.128 408.519 143.512 406.386 143.512C401.863 143.512 398.279 142.211 395.634 139.608C392.989 137.005 391.666 133.144 391.666 128.024V108.568H401.65V126.552C401.65 132.099 403.975 134.872 408.626 134.872C411.015 134.872 412.935 134.104 414.386 132.568C415.837 130.989 416.562 128.664 416.562 125.592V108.568H426.546ZM470.868 95.512V143H461.332V139.032C458.857 142.019 455.273 143.512 450.58 143.512C447.337 143.512 444.393 142.787 441.748 141.336C439.145 139.885 437.097 137.816 435.604 135.128C434.11 132.44 433.364 129.325 433.364 125.784C433.364 122.243 434.11 119.128 435.604 116.44C437.097 113.752 439.145 111.683 441.748 110.232C444.393 108.781 447.337 108.056 450.58 108.056C454.974 108.056 458.409 109.443 460.884 112.216V95.512H470.868ZM452.308 135.32C454.825 135.32 456.916 134.467 458.58 132.76C460.244 131.011 461.076 128.685 461.076 125.784C461.076 122.883 460.244 120.579 458.58 118.872C456.916 117.123 454.825 116.248 452.308 116.248C449.748 116.248 447.636 117.123 445.972 118.872C444.308 120.579 443.476 122.883 443.476 125.784C443.476 128.685 444.308 131.011 445.972 132.76C447.636 134.467 449.748 135.32 452.308 135.32ZM483.948 131.096C485.74 131.096 487.212 131.672 488.364 132.824C489.516 133.933 490.092 135.405 490.092 137.24C490.092 138.093 489.985 138.947 489.772 139.8C489.559 140.653 489.089 141.933 488.364 143.64L484.716 152.856H478.38L481.196 142.68C480.129 142.253 479.276 141.571 478.636 140.632C478.039 139.651 477.74 138.52 477.74 137.24C477.74 135.405 478.316 133.933 479.468 132.824C480.663 131.672 482.156 131.096 483.948 131.096Z"
        fill="white" />
    <path
        d="M15.68 188.52V187.52H14.68V188.52H15.68ZM15.68 200.36H14.68V201.36H15.68V200.36ZM36.416 200.36H37.416V199.36H36.416V200.36ZM36.416 208.68V209.68H37.416V208.68H36.416ZM15.68 208.68V207.68H14.68V208.68H15.68ZM15.68 225V226H16.68V225H15.68ZM5.312 225H4.312V226H5.312V225ZM5.312 180.2V179.2H4.312V180.2H5.312ZM39.168 180.2H40.168V179.2H39.168V180.2ZM39.168 188.52V189.52H40.168V188.52H39.168ZM14.68 188.52V200.36H16.68V188.52H14.68ZM15.68 201.36H36.416V199.36H15.68V201.36ZM35.416 200.36V208.68H37.416V200.36H35.416ZM36.416 207.68H15.68V209.68H36.416V207.68ZM14.68 208.68V225H16.68V208.68H14.68ZM15.68 224H5.312V226H15.68V224ZM6.312 225V180.2H4.312V225H6.312ZM5.312 181.2H39.168V179.2H5.312V181.2ZM38.168 180.2V188.52H40.168V180.2H38.168ZM39.168 187.52H15.68V189.52H39.168V187.52ZM51.2 223.272L50.7267 224.153L50.7345 224.157L50.7424 224.161L51.2 223.272ZM44.48 216.936L43.6237 217.452L44.48 216.936ZM44.48 198.632L43.6237 198.116H43.6237L44.48 198.632ZM51.2 192.36L51.663 193.246L51.6679 193.244L51.2 192.36ZM70.72 192.36L70.2467 193.241L70.257 193.246L70.72 192.36ZM77.44 198.632L78.2963 198.116L77.44 198.632ZM77.44 216.936L78.2963 217.452L77.44 216.936ZM70.72 223.272L71.1831 224.158L71.1933 224.153L70.72 223.272ZM67.264 214.76L66.5394 214.071L66.539 214.071L67.264 214.76ZM67.264 200.872L66.5306 201.552L66.5392 201.561L66.548 201.57L67.264 200.872ZM54.656 200.872L55.3721 201.57L55.3806 201.561L54.656 200.872ZM54.656 214.76L53.9314 215.449L53.94 215.458L54.656 214.76ZM60.992 224.512C57.5065 224.512 54.4022 223.796 51.6576 222.383L50.7424 224.161C53.8004 225.735 57.2241 226.512 60.992 226.512V224.512ZM51.6733 222.391C48.9671 220.937 46.8617 218.949 45.3363 216.42L43.6237 217.452C45.3409 220.299 47.7156 222.535 50.7267 224.153L51.6733 222.391ZM45.3363 216.42C43.8171 213.901 43.048 211.032 43.048 207.784H41.048C41.048 211.363 41.9002 214.595 43.6237 217.452L45.3363 216.42ZM43.048 207.784C43.048 204.536 43.8171 201.667 45.3363 199.148L43.6237 198.116C41.9002 200.973 41.048 204.205 41.048 207.784H43.048ZM45.3363 199.148C46.8602 196.622 48.9622 194.657 51.663 193.246L50.737 191.474C47.7205 193.049 45.3424 195.266 43.6237 198.116L45.3363 199.148ZM51.6679 193.244C54.4104 191.792 57.511 191.056 60.992 191.056V189.056C57.2196 189.056 53.7922 189.856 50.7321 191.476L51.6679 193.244ZM60.992 191.056C64.4732 191.056 67.55 191.792 70.2467 193.241L71.1933 191.479C68.1727 189.856 64.7641 189.056 60.992 189.056V191.056ZM70.257 193.246C72.9578 194.657 75.0598 196.622 76.5837 199.148L78.2963 198.116C76.5776 195.266 74.1995 193.049 71.183 191.474L70.257 193.246ZM76.5837 199.148C78.1029 201.667 78.872 204.536 78.872 207.784H80.872C80.872 204.205 80.0198 200.973 78.2963 198.116L76.5837 199.148ZM78.872 207.784C78.872 211.032 78.1029 213.901 76.5837 216.42L78.2963 217.452C80.0198 214.595 80.872 211.363 80.872 207.784H78.872ZM76.5837 216.42C75.0583 218.949 72.9529 220.937 70.2467 222.391L71.1933 224.153C74.2044 222.535 76.5791 220.299 78.2963 217.452L76.5837 216.42ZM70.257 222.386C67.5582 223.795 64.4777 224.512 60.992 224.512V226.512C64.7596 226.512 68.1644 225.735 71.183 224.158L70.257 222.386ZM60.992 218.32C63.7995 218.32 66.1613 217.373 67.989 215.449L66.539 214.071C65.1241 215.561 63.3045 216.32 60.992 216.32V218.32ZM67.9886 215.449C69.8639 213.478 70.76 210.887 70.76 207.784H68.76C68.76 210.484 67.9921 212.544 66.5394 214.071L67.9886 215.449ZM70.76 207.784C70.76 204.682 69.8641 202.106 67.98 200.174L66.548 201.57C67.9919 203.051 68.76 205.083 68.76 207.784H70.76ZM67.9974 200.192C66.1719 198.223 63.8075 197.248 60.992 197.248V199.248C63.2965 199.248 65.1135 200.023 66.5306 201.552L67.9974 200.192ZM60.992 197.248C58.1766 197.248 55.7966 198.222 53.9314 200.183L55.3806 201.561C56.8434 200.023 58.6874 199.248 60.992 199.248V197.248ZM53.94 200.174C52.0559 202.106 51.16 204.682 51.16 207.784H53.16C53.16 205.083 53.9281 203.051 55.372 201.57L53.94 200.174ZM51.16 207.784C51.16 210.887 52.0561 213.478 53.9314 215.449L55.3806 214.071C53.9279 212.544 53.16 210.484 53.16 207.784H51.16ZM53.94 215.458C55.8071 217.373 58.1846 218.32 60.992 218.32V216.32C58.6795 216.32 56.8329 215.56 55.372 214.062L53.94 215.458ZM96.0815 195.112H95.0815V198.22L96.8938 195.695L96.0815 195.112ZM100.882 191.336L100.497 190.413L100.49 190.416L100.882 191.336ZM107.922 190.056H108.922V189.056H107.922V190.056ZM107.922 199.272L107.845 200.269L108.922 200.352V199.272H107.922ZM98.9615 201.576L99.6592 202.293L99.6686 202.283L98.9615 201.576ZM96.5295 225V226H97.5295V225H96.5295ZM86.5455 225H85.5455V226H86.5455V225ZM86.5455 190.568V189.568H85.5455V190.568H86.5455ZM96.0815 190.568H97.0815V189.568H96.0815V190.568ZM96.8938 195.695C97.9748 194.19 99.425 193.043 101.273 192.256L100.49 190.416C98.3274 191.336 96.5775 192.706 95.2692 194.529L96.8938 195.695ZM101.266 192.259C103.171 191.465 105.383 191.056 107.922 191.056V189.056C105.169 189.056 102.688 189.5 100.497 190.413L101.266 192.259ZM106.922 190.056V199.272H108.922V190.056H106.922ZM107.998 198.275C106.894 198.19 106.11 198.144 105.682 198.144V200.144C106.021 200.144 106.73 200.183 107.845 200.269L107.998 198.275ZM105.682 198.144C102.627 198.144 100.107 199.016 98.2544 200.869L99.6686 202.283C101.059 200.893 103.019 200.144 105.682 200.144V198.144ZM98.2639 200.86C96.3808 202.693 95.5295 205.388 95.5295 208.744H97.5295C97.5295 205.7 98.2996 203.616 99.6591 202.292L98.2639 200.86ZM95.5295 208.744V225H97.5295V208.744H95.5295ZM96.5295 224H86.5455V226H96.5295V224ZM87.5455 225V190.568H85.5455V225H87.5455ZM86.5455 191.568H96.0815V189.568H86.5455V191.568ZM95.0815 190.568V195.112H97.0815V190.568H95.0815ZM147.081 210.6V211.6H148.008L148.079 210.677L147.081 210.6ZM121.034 210.6V209.6H119.79L120.057 210.815L121.034 210.6ZM124.362 215.656L124.939 214.84L124.362 215.656ZM135.626 216.744L135.977 217.68L135.984 217.677L135.992 217.674L135.626 216.744ZM139.529 214.184L140.265 213.506L139.571 212.754L138.835 213.464L139.529 214.184ZM144.842 219.944L145.595 220.602L146.185 219.926L145.577 219.266L144.842 219.944ZM120.329 223.272L119.872 224.161L119.882 224.166L120.329 223.272ZM113.418 216.936L112.561 217.452L113.418 216.936ZM113.354 198.696L112.494 198.185L112.491 198.19L113.354 198.696ZM119.946 192.36L120.42 193.24L120.424 193.238L119.946 192.36ZM138.505 192.232L138.975 191.349L138.505 192.232ZM144.906 198.504L144.034 198.994L144.038 199.002L144.043 199.01L144.906 198.504ZM123.721 199.528L123.081 198.76L123.721 199.528ZM120.906 204.776L119.917 204.624L119.74 205.776H120.906V204.776ZM137.866 204.776V205.776H139.035L138.853 204.621L137.866 204.776ZM135.049 199.592L134.397 200.35L134.403 200.355L134.409 200.36L135.049 199.592ZM146.273 207.912C146.273 207.906 146.272 207.95 146.263 208.09C146.256 208.213 146.244 208.386 146.228 208.609C146.196 209.054 146.148 209.692 146.084 210.523L148.079 210.677C148.204 209.05 148.273 208.091 148.273 207.912H146.273ZM147.081 209.6H121.034V211.6H147.081V209.6ZM120.057 210.815C120.579 213.186 121.827 215.088 123.784 216.472L124.939 214.84C123.397 213.749 122.427 212.28 122.01 210.385L120.057 210.815ZM123.784 216.472C125.736 217.853 128.125 218.512 130.889 218.512V216.512C128.449 216.512 126.486 215.934 124.939 214.84L123.784 216.472ZM130.889 218.512C132.775 218.512 134.477 218.243 135.977 217.68L135.274 215.808C134.044 216.269 132.588 216.512 130.889 216.512V218.512ZM135.992 217.674C137.533 217.067 138.944 216.138 140.224 214.904L138.835 213.464C137.726 214.534 136.534 215.311 135.259 215.814L135.992 217.674ZM138.794 214.862L144.106 220.622L145.577 219.266L140.265 213.506L138.794 214.862ZM144.088 219.286C141.084 222.726 136.656 224.512 130.633 224.512V226.512C137.07 226.512 142.114 224.586 145.595 220.602L144.088 219.286ZM130.633 224.512C126.881 224.512 123.604 223.791 120.777 222.378L119.882 224.166C123.029 225.74 126.621 226.512 130.633 226.512V224.512ZM120.787 222.383C117.953 220.925 115.793 218.937 114.274 216.42L112.561 217.452C114.285 220.311 116.733 222.547 119.872 224.161L120.787 222.383ZM114.274 216.42C112.755 213.901 111.985 211.032 111.985 207.784H109.985C109.985 211.363 110.838 214.595 112.561 217.452L114.274 216.42ZM111.985 207.784C111.985 204.576 112.735 201.724 114.216 199.202L112.491 198.19C110.815 201.044 109.985 204.25 109.985 207.784H111.985ZM114.213 199.207C115.743 196.631 117.807 194.647 120.42 193.24L119.471 191.48C116.537 193.06 114.207 195.3 112.494 198.185L114.213 199.207ZM120.424 193.238C123.082 191.788 126.051 191.056 129.354 191.056V189.056C125.743 189.056 122.441 189.86 119.467 191.482L120.424 193.238ZM129.354 191.056C132.576 191.056 135.463 191.748 138.036 193.115L138.975 191.349C136.087 189.815 132.873 189.056 129.354 189.056V191.056ZM138.036 193.115C140.596 194.475 142.59 196.428 144.034 198.994L145.777 198.014C144.149 195.119 141.877 192.891 138.975 191.349L138.036 193.115ZM144.043 199.01C145.519 201.523 146.273 204.479 146.273 207.912H148.273C148.273 204.177 147.449 200.861 145.768 197.998L144.043 199.01ZM129.417 196.608C126.955 196.608 124.821 197.31 123.081 198.76L124.362 200.296C125.694 199.186 127.358 198.608 129.417 198.608V196.608ZM123.081 198.76C121.335 200.215 120.291 202.196 119.917 204.624L121.894 204.928C122.203 202.919 123.036 201.401 124.362 200.296L123.081 198.76ZM120.906 205.776H137.866V203.776H120.906V205.776ZM138.853 204.621C138.479 202.231 137.432 200.275 135.69 198.824L134.409 200.36C135.739 201.469 136.57 202.969 136.878 204.931L138.853 204.621ZM135.702 198.834C133.967 197.34 131.851 196.608 129.417 196.608V198.608C131.421 198.608 133.06 199.199 134.397 200.35L135.702 198.834ZM187.471 190.568L188.393 190.957L188.979 189.568H187.471V190.568ZM172.943 225V226H173.607L173.865 225.389L172.943 225ZM162.639 225L161.718 225.387L161.975 226H162.639V225ZM148.176 190.568V189.568H146.671L147.254 190.955L148.176 190.568ZM158.48 190.568L159.406 190.191L159.152 189.568H158.48V190.568ZM168.016 213.992L167.089 214.369L168 216.607L168.937 214.38L168.016 213.992ZM177.872 190.568V189.568H177.207L176.95 190.18L177.872 190.568ZM186.55 190.179L172.022 224.611L173.865 225.389L188.393 190.957L186.55 190.179ZM172.943 224H162.639V226H172.943V224ZM163.561 224.613L149.097 190.181L147.254 190.955L161.718 225.387L163.561 224.613ZM148.176 191.568H158.48V189.568H148.176V191.568ZM157.553 190.945L167.089 214.369L168.942 213.615L159.406 190.191L157.553 190.945ZM168.937 214.38L178.793 190.956L176.95 190.18L167.094 213.604L168.937 214.38ZM177.872 191.568H187.471V189.568H177.872V191.568ZM224.144 210.6V211.6H225.07L225.141 210.677L224.144 210.6ZM198.096 210.6V209.6H196.852L197.119 210.815L198.096 210.6ZM201.424 215.656L202.001 214.84L201.424 215.656ZM212.688 216.744L213.039 217.68L213.047 217.677L213.055 217.674L212.688 216.744ZM216.592 214.184L217.327 213.506L216.634 212.754L215.898 213.464L216.592 214.184ZM221.904 219.944L222.657 220.602L223.248 219.926L222.639 219.266L221.904 219.944ZM197.392 223.272L196.935 224.161L196.945 224.166L197.392 223.272ZM190.48 216.936L189.624 217.452L190.48 216.936ZM190.416 198.696L189.556 198.185L189.554 198.19L190.416 198.696ZM197.008 192.36L197.482 193.24L197.487 193.238L197.008 192.36ZM215.568 192.232L216.037 191.349L215.568 192.232ZM221.968 198.504L221.096 198.994L221.101 199.002L221.106 199.01L221.968 198.504ZM200.784 199.528L200.144 198.76L200.784 199.528ZM197.968 204.776L196.98 204.624L196.802 205.776H197.968V204.776ZM214.928 204.776V205.776H216.097L215.916 204.621L214.928 204.776ZM212.112 199.592L211.459 200.35L211.466 200.355L211.472 200.36L212.112 199.592ZM223.336 207.912C223.336 207.906 223.335 207.95 223.326 208.09C223.318 208.213 223.306 208.386 223.291 208.609C223.259 209.054 223.211 209.692 223.147 210.523L225.141 210.677C225.266 209.05 225.336 208.091 225.336 207.912H223.336ZM224.144 209.6H198.096V211.6H224.144V209.6ZM197.119 210.815C197.641 213.186 198.89 215.088 200.847 216.472L202.001 214.84C200.46 213.749 199.49 212.28 199.073 210.385L197.119 210.815ZM200.847 216.472C202.798 217.853 205.188 218.512 207.952 218.512V216.512C205.511 216.512 203.548 215.934 202.001 214.84L200.847 216.472ZM207.952 218.512C209.837 218.512 211.539 218.243 213.039 217.68L212.337 215.808C211.106 216.269 209.651 216.512 207.952 216.512V218.512ZM213.055 217.674C214.596 217.067 216.006 216.138 217.286 214.904L215.898 213.464C214.788 214.534 213.596 215.311 212.321 215.814L213.055 217.674ZM215.857 214.862L221.169 220.622L222.639 219.266L217.327 213.506L215.857 214.862ZM221.151 219.286C218.146 222.726 213.719 224.512 207.696 224.512V226.512C214.132 226.512 219.177 224.586 222.657 220.602L221.151 219.286ZM207.696 224.512C203.943 224.512 200.666 223.791 197.839 222.378L196.945 224.166C200.091 225.74 203.683 226.512 207.696 226.512V224.512ZM197.849 222.383C195.016 220.925 192.855 218.937 191.336 216.42L189.624 217.452C191.348 220.311 193.795 222.547 196.935 224.161L197.849 222.383ZM191.336 216.42C189.817 213.901 189.048 211.032 189.048 207.784H187.048C187.048 211.363 187.9 214.595 189.624 217.452L191.336 216.42ZM189.048 207.784C189.048 204.576 189.797 201.724 191.278 199.202L189.554 198.19C187.878 201.044 187.048 204.25 187.048 207.784H189.048ZM191.276 199.207C192.805 196.631 194.87 194.647 197.482 193.24L196.534 191.48C193.599 193.06 191.269 195.3 189.556 198.185L191.276 199.207ZM197.487 193.238C200.145 191.788 203.114 191.056 206.416 191.056V189.056C202.806 189.056 199.503 189.86 196.529 191.482L197.487 193.238ZM206.416 191.056C209.638 191.056 212.525 191.748 215.099 193.115L216.037 191.349C213.149 189.815 209.935 189.056 206.416 189.056V191.056ZM215.099 193.115C217.658 194.475 219.653 196.428 221.096 198.994L222.84 198.014C221.211 195.119 218.939 192.891 216.037 191.349L215.099 193.115ZM221.106 199.01C222.581 201.523 223.336 204.479 223.336 207.912H225.336C225.336 204.177 224.512 200.861 222.83 197.998L221.106 199.01ZM206.48 196.608C204.017 196.608 201.883 197.31 200.144 198.76L201.424 200.296C202.757 199.186 204.42 198.608 206.48 198.608V196.608ZM200.144 198.76C198.397 200.215 197.353 202.196 196.98 204.624L198.956 204.928C199.266 202.919 200.099 201.401 201.424 200.296L200.144 198.76ZM197.968 205.776H214.928V203.776H197.968V205.776ZM215.916 204.621C215.541 202.231 214.494 200.275 212.752 198.824L211.472 200.36C212.802 201.469 213.632 202.969 213.94 204.931L215.916 204.621ZM212.765 198.834C211.029 197.34 208.914 196.608 206.48 196.608V198.608C208.484 198.608 210.123 199.199 211.459 200.35L212.765 198.834ZM240.519 195.112H239.519V198.22L241.331 195.695L240.519 195.112ZM245.319 191.336L244.934 190.413L244.927 190.416L245.319 191.336ZM252.359 190.056H253.359V189.056H252.359V190.056ZM252.359 199.272L252.282 200.269L253.359 200.352V199.272H252.359ZM243.399 201.576L244.097 202.293L244.106 202.283L243.399 201.576ZM240.967 225V226H241.967V225H240.967ZM230.983 225H229.983V226H230.983V225ZM230.983 190.568V189.568H229.983V190.568H230.983ZM240.519 190.568H241.519V189.568H240.519V190.568ZM241.331 195.695C242.412 194.19 243.862 193.043 245.711 192.256L244.927 190.416C242.765 191.336 241.015 192.706 239.707 194.529L241.331 195.695ZM245.704 192.259C247.609 191.465 249.821 191.056 252.359 191.056V189.056C249.607 189.056 247.125 189.5 244.934 190.413L245.704 192.259ZM251.359 190.056V199.272H253.359V190.056H251.359ZM252.436 198.275C251.332 198.19 250.547 198.144 250.119 198.144V200.144C250.459 200.144 251.168 200.183 252.282 200.269L252.436 198.275ZM250.119 198.144C247.064 198.144 244.545 199.016 242.692 200.869L244.106 202.283C245.496 200.893 247.456 200.144 250.119 200.144V198.144ZM242.701 200.86C240.818 202.693 239.967 205.388 239.967 208.744H241.967C241.967 205.7 242.737 203.616 244.097 202.292L242.701 200.86ZM239.967 208.744V225H241.967V208.744H239.967ZM240.967 224H230.983V226H240.967V224ZM231.983 225V190.568H229.983V225H231.983ZM230.983 191.568H240.519V189.568H230.983V191.568ZM239.519 190.568V195.112H241.519V190.568H239.519ZM282.302 220.456L281.595 221.163L281.6 221.167L282.302 220.456ZM276.991 180.2V179.2H275.991V180.2H276.991ZM287.358 180.2H288.358V179.2H287.358V180.2ZM304.767 214.056L305.514 214.72L305.521 214.712L304.767 214.056ZM307.327 180.2V179.2H306.327V180.2H307.327ZM317.566 180.2H318.566V179.2H317.566V180.2ZM312.19 220.456L311.488 219.745L311.483 219.749L312.19 220.456ZM297.279 224.768C291.067 224.768 286.355 223.055 283.005 219.745L281.6 221.167C285.418 224.94 290.69 226.768 297.279 226.768V224.768ZM283.01 219.749C279.709 216.448 277.991 211.679 277.991 205.288H275.991C275.991 212.038 277.813 217.381 281.595 221.163L283.01 219.749ZM277.991 205.288V180.2H275.991V205.288H277.991ZM276.991 181.2H287.358V179.2H276.991V181.2ZM286.358 180.2V204.904H288.358V180.2H286.358ZM286.358 204.904C286.358 209.028 287.21 212.307 289.085 214.567C290.989 216.862 293.806 217.936 297.342 217.936V215.936C294.223 215.936 292.048 215.005 290.624 213.289C289.171 211.538 288.358 208.801 288.358 204.904H286.358ZM297.342 217.936C300.79 217.936 303.57 216.907 305.514 214.72L304.019 213.392C302.55 215.045 300.38 215.936 297.342 215.936V217.936ZM305.521 214.712C307.456 212.487 308.327 209.149 308.327 204.904H306.327C306.327 208.936 305.49 211.7 304.012 213.4L305.521 214.712ZM308.327 204.904V180.2H306.327V204.904H308.327ZM307.327 181.2H317.566V179.2H307.327V181.2ZM316.566 180.2V205.288H318.566V180.2H316.566ZM316.566 205.288C316.566 211.676 314.829 216.443 311.488 219.745L312.893 221.167C316.72 217.386 318.566 212.041 318.566 205.288H316.566ZM311.483 219.749C308.178 223.054 303.491 224.768 297.279 224.768V226.768C303.866 226.768 309.12 224.94 312.898 221.163L311.483 219.749ZM358.34 193.896L357.639 194.609L357.645 194.615L358.34 193.896ZM362.308 225V226H363.308V225H362.308ZM352.324 225H351.324V226H352.324V225ZM350.532 200.744L349.779 201.403L349.785 201.408L349.79 201.414L350.532 200.744ZM339.332 201.064L340.049 201.761L340.058 201.751L339.332 201.064ZM337.092 225V226H338.092V225H337.092ZM327.108 225H326.108V226H327.108V225ZM327.108 190.568V189.568H326.108V190.568H327.108ZM336.644 190.568H337.644V189.568H336.644V190.568ZM336.644 194.6H335.644V197.181L337.383 195.274L336.644 194.6ZM341.572 191.272L341.936 192.203L341.945 192.2L341.954 192.196L341.572 191.272ZM348.036 191.056C352.088 191.056 355.255 192.264 357.639 194.609L359.041 193.183C356.22 190.408 352.517 189.056 348.036 189.056V191.056ZM357.645 194.615C360.032 196.925 361.308 200.422 361.308 205.288H363.308C363.308 200.085 361.938 195.987 359.035 193.177L357.645 194.615ZM361.308 205.288V225H363.308V205.288H361.308ZM362.308 224H352.324V226H362.308V224ZM353.324 225V206.824H351.324V225H353.324ZM353.324 206.824C353.324 203.973 352.704 201.657 351.274 200.074L349.79 201.414C350.749 202.477 351.324 204.214 351.324 206.824H353.324ZM351.285 200.085C349.855 198.451 347.821 197.696 345.348 197.696V199.696C347.398 199.696 348.82 200.306 349.779 201.403L351.285 200.085ZM345.348 197.696C342.603 197.696 340.318 198.566 338.606 200.377L340.058 201.751C341.333 200.404 343.058 199.696 345.348 199.696V197.696ZM338.615 200.367C336.874 202.157 336.092 204.757 336.092 207.976H338.092C338.092 205.051 338.803 203.043 340.049 201.761L338.615 200.367ZM336.092 207.976V225H338.092V207.976H336.092ZM337.092 224H327.108V226H337.092V224ZM328.108 225V190.568H326.108V225H328.108ZM327.108 191.568H336.644V189.568H327.108V191.568ZM335.644 190.568V194.6H337.644V190.568H335.644ZM337.383 195.274C338.595 193.945 340.106 192.92 341.936 192.203L341.208 190.341C339.113 191.16 337.339 192.354 335.905 193.926L337.383 195.274ZM341.954 192.196C343.783 191.441 345.807 191.056 348.036 191.056V189.056C345.572 189.056 343.286 189.482 341.19 190.348L341.954 192.196ZM371.358 190.568V189.568H370.358V190.568H371.358ZM381.342 190.568H382.342V189.568H381.342V190.568ZM381.342 225V226H382.342V225H381.342ZM371.358 225H370.358V226H371.358V225ZM371.87 184.168L371.191 184.902L371.87 184.168ZM371.87 176.232L372.549 176.966V176.966L371.87 176.232ZM380.83 176.168L380.166 176.915V176.915L380.83 176.168ZM380.83 184.168L381.509 184.902L381.517 184.895L381.524 184.888L380.83 184.168ZM371.358 191.568H381.342V189.568H371.358V191.568ZM380.342 190.568V225H382.342V190.568H380.342ZM381.342 224H371.358V226H381.342V224ZM372.358 225V190.568H370.358V225H372.358ZM376.35 184.768C374.722 184.768 373.486 184.301 372.549 183.434L371.191 184.902C372.558 186.168 374.309 186.768 376.35 186.768V184.768ZM372.549 183.434C371.603 182.558 371.142 181.502 371.142 180.2H369.142C369.142 182.055 369.833 183.645 371.191 184.902L372.549 183.434ZM371.142 180.2C371.142 178.898 371.603 177.842 372.549 176.966L371.191 175.498C369.833 176.755 369.142 178.345 369.142 180.2H371.142ZM372.549 176.966C373.486 176.099 374.722 175.632 376.35 175.632V173.632C374.309 173.632 372.558 174.232 371.191 175.498L372.549 176.966ZM376.35 175.632C377.989 175.632 379.23 176.084 380.166 176.915L381.494 175.421C380.126 174.204 378.38 173.632 376.35 173.632V175.632ZM380.166 176.915C381.105 177.75 381.558 178.759 381.558 180.008H383.558C383.558 178.185 382.859 176.634 381.494 175.421L380.166 176.915ZM381.558 180.008C381.558 181.413 381.084 182.535 380.136 183.448L381.524 184.888C382.88 183.582 383.558 181.931 383.558 180.008H381.558ZM380.151 183.434C379.214 184.301 377.978 184.768 376.35 184.768V186.768C378.391 186.768 380.142 186.168 381.509 184.902L380.151 183.434ZM401.552 191.336H400.552V192.336H401.552V191.336ZM410.384 191.336H411.384V190.336H410.384V191.336ZM410.384 199.016V200.016H411.384V199.016H410.384ZM401.808 199.016V198.016H400.808V199.016H401.808ZM401.808 225V226H402.808V225H401.808ZM391.824 225H390.824V226H391.824V225ZM391.824 199.016H392.824V198.016H391.824V199.016ZM386.512 199.016H385.512V200.016H386.512V199.016ZM386.512 191.336V190.336H385.512V191.336H386.512ZM391.824 191.336V192.336H392.824V191.336H391.824ZM395.28 180.456L394.579 179.742L394.573 179.749L395.28 180.456ZM409.36 177.512L409.11 178.48L409.128 178.485L409.146 178.489L409.36 177.512ZM412.752 178.856L413.692 179.197L413.96 178.459L413.307 178.024L412.752 178.856ZM410.128 186.088L409.553 186.906L410.622 187.658L411.068 186.429L410.128 186.088ZM420.496 190.568V189.568H419.496V190.568H420.496ZM430.48 190.568H431.48V189.568H430.48V190.568ZM430.48 225V226H431.48V225H430.48ZM420.496 225H419.496V226H420.496V225ZM421.008 184.168L420.329 184.902L421.008 184.168ZM421.008 176.232L421.687 176.966V176.966L421.008 176.232ZM429.968 176.168L429.304 176.915V176.915L429.968 176.168ZM429.968 184.168L430.647 184.902L430.655 184.895L430.662 184.888L429.968 184.168ZM401.552 192.336H410.384V190.336H401.552V192.336ZM409.384 191.336V199.016H411.384V191.336H409.384ZM410.384 198.016H401.808V200.016H410.384V198.016ZM400.808 199.016V225H402.808V199.016H400.808ZM401.808 224H391.824V226H401.808V224ZM392.824 225V199.016H390.824V225H392.824ZM391.824 198.016H386.512V200.016H391.824V198.016ZM387.512 199.016V191.336H385.512V199.016H387.512ZM386.512 192.336H391.824V190.336H386.512V192.336ZM392.824 191.336V189.8H390.824V191.336H392.824ZM392.824 189.8C392.824 186.082 393.908 183.242 395.987 181.163L394.573 179.749C392.044 182.278 390.824 185.667 390.824 189.8H392.824ZM395.981 181.17C398.091 179.097 401.096 178 405.136 178V176C400.728 176 397.162 177.207 394.579 179.742L395.981 181.17ZM405.136 178C406.553 178 407.876 178.162 409.11 178.48L409.61 176.544C408.198 176.179 406.706 176 405.136 176V178ZM409.146 178.489C410.424 178.768 411.431 179.177 412.197 179.688L413.307 178.024C412.281 177.34 411.026 176.853 409.574 176.535L409.146 178.489ZM411.812 178.515L409.188 185.747L411.068 186.429L413.692 179.197L411.812 178.515ZM410.703 185.27C409.368 184.33 407.818 183.872 406.096 183.872V185.872C407.446 185.872 408.584 186.224 409.553 186.906L410.703 185.27ZM406.096 183.872C404.402 183.872 402.954 184.342 401.948 185.447C400.959 186.534 400.552 188.068 400.552 189.864H402.552C402.552 188.332 402.903 187.37 403.428 186.793C403.936 186.234 404.761 185.872 406.096 185.872V183.872ZM400.552 189.864V191.336H402.552V189.864H400.552ZM420.496 191.568H430.48V189.568H420.496V191.568ZM429.48 190.568V225H431.48V190.568H429.48ZM430.48 224H420.496V226H430.48V224ZM421.496 225V190.568H419.496V225H421.496ZM425.488 184.768C423.86 184.768 422.624 184.301 421.687 183.434L420.329 184.902C421.696 186.168 423.447 186.768 425.488 186.768V184.768ZM421.687 183.434C420.741 182.558 420.28 181.502 420.28 180.2H418.28C418.28 182.055 418.971 183.645 420.329 184.902L421.687 183.434ZM420.28 180.2C420.28 178.898 420.741 177.842 421.687 176.966L420.329 175.498C418.971 176.755 418.28 178.345 418.28 180.2H420.28ZM421.687 176.966C422.624 176.099 423.86 175.632 425.488 175.632V173.632C423.447 173.632 421.696 174.232 420.329 175.498L421.687 176.966ZM425.488 175.632C427.127 175.632 428.368 176.084 429.304 176.915L430.632 175.421C429.264 174.204 427.518 173.632 425.488 173.632V175.632ZM429.304 176.915C430.243 177.75 430.696 178.759 430.696 180.008H432.696C432.696 178.185 431.997 176.634 430.632 175.421L429.304 176.915ZM430.696 180.008C430.696 181.413 430.222 182.535 429.274 183.448L430.662 184.888C432.018 183.582 432.696 181.931 432.696 180.008H430.696ZM429.289 183.434C428.352 184.301 427.116 184.768 425.488 184.768V186.768C427.529 186.768 429.28 186.168 430.647 184.902L429.289 183.434ZM473.269 210.6V211.6H474.195L474.266 210.677L473.269 210.6ZM447.221 210.6V209.6H445.977L446.244 210.815L447.221 210.6ZM450.549 215.656L451.126 214.84L450.549 215.656ZM461.813 216.744L462.164 217.68L462.172 217.677L462.18 217.674L461.813 216.744ZM465.717 214.184L466.452 213.506L465.759 212.754L465.023 213.464L465.717 214.184ZM471.029 219.944L471.782 220.602L472.373 219.926L471.764 219.266L471.029 219.944ZM446.517 223.272L446.06 224.161L446.07 224.166L446.517 223.272ZM439.605 216.936L438.749 217.452L439.605 216.936ZM439.541 198.696L438.681 198.185L438.679 198.19L439.541 198.696ZM446.133 192.36L446.607 193.24L446.612 193.238L446.133 192.36ZM464.693 192.232L465.162 191.349L464.693 192.232ZM471.093 198.504L470.221 198.994L470.226 199.002L470.231 199.01L471.093 198.504ZM449.909 199.528L449.269 198.76L449.909 199.528ZM447.093 204.776L446.105 204.624L445.927 205.776H447.093V204.776ZM464.053 204.776V205.776H465.222L465.041 204.621L464.053 204.776ZM461.237 199.592L460.584 200.35L460.591 200.355L460.597 200.36L461.237 199.592ZM472.461 207.912C472.461 207.906 472.46 207.95 472.451 208.09C472.443 208.213 472.431 208.386 472.416 208.609C472.384 209.054 472.336 209.692 472.272 210.523L474.266 210.677C474.391 209.05 474.461 208.091 474.461 207.912H472.461ZM473.269 209.6H447.221V211.6H473.269V209.6ZM446.244 210.815C446.766 213.186 448.015 215.088 449.972 216.472L451.126 214.84C449.585 213.749 448.615 212.28 448.198 210.385L446.244 210.815ZM449.972 216.472C451.923 217.853 454.313 218.512 457.077 218.512V216.512C454.636 216.512 452.673 215.934 451.126 214.84L449.972 216.472ZM457.077 218.512C458.962 218.512 460.664 218.243 462.164 217.68L461.462 215.808C460.231 216.269 458.776 216.512 457.077 216.512V218.512ZM462.18 217.674C463.721 217.067 465.131 216.138 466.411 214.904L465.023 213.464C463.913 214.534 462.721 215.311 461.446 215.814L462.18 217.674ZM464.982 214.862L470.294 220.622L471.764 219.266L466.452 213.506L464.982 214.862ZM470.276 219.286C467.271 222.726 462.844 224.512 456.821 224.512V226.512C463.257 226.512 468.302 224.586 471.782 220.602L470.276 219.286ZM456.821 224.512C453.068 224.512 449.791 223.791 446.964 222.378L446.07 224.166C449.216 225.74 452.808 226.512 456.821 226.512V224.512ZM446.974 222.383C444.141 220.925 441.98 218.937 440.461 216.42L438.749 217.452C440.473 220.311 442.92 222.547 446.06 224.161L446.974 222.383ZM440.461 216.42C438.942 213.901 438.173 211.032 438.173 207.784H436.173C436.173 211.363 437.025 214.595 438.749 217.452L440.461 216.42ZM438.173 207.784C438.173 204.576 438.922 201.724 440.403 199.202L438.679 198.19C437.003 201.044 436.173 204.25 436.173 207.784H438.173ZM440.401 199.207C441.93 196.631 443.995 194.647 446.607 193.24L445.659 191.48C442.724 193.06 440.394 195.3 438.681 198.185L440.401 199.207ZM446.612 193.238C449.27 191.788 452.239 191.056 455.541 191.056V189.056C451.931 189.056 448.628 189.86 445.654 191.482L446.612 193.238ZM455.541 191.056C458.763 191.056 461.65 191.748 464.224 193.115L465.162 191.349C462.274 189.815 459.06 189.056 455.541 189.056V191.056ZM464.224 193.115C466.783 194.475 468.778 196.428 470.221 198.994L471.965 198.014C470.336 195.119 468.064 192.891 465.162 191.349L464.224 193.115ZM470.231 199.01C471.706 201.523 472.461 204.479 472.461 207.912H474.461C474.461 204.177 473.637 200.861 471.955 197.998L470.231 199.01ZM455.605 196.608C453.142 196.608 451.008 197.31 449.269 198.76L450.549 200.296C451.882 199.186 453.545 198.608 455.605 198.608V196.608ZM449.269 198.76C447.522 200.215 446.478 202.196 446.105 204.624L448.081 204.928C448.391 202.919 449.224 201.401 450.549 200.296L449.269 198.76ZM447.093 205.776H464.053V203.776H447.093V205.776ZM465.041 204.621C464.666 202.231 463.619 200.275 461.877 198.824L460.597 200.36C461.927 201.469 462.757 202.969 463.065 204.931L465.041 204.621ZM461.89 198.834C460.154 197.34 458.039 196.608 455.605 196.608V198.608C457.609 198.608 459.248 199.199 460.584 200.35L461.89 198.834ZM515.18 177.512H516.18V176.512H515.18V177.512ZM515.18 225V226H516.18V225H515.18ZM505.644 225H504.644V226H505.644V225ZM505.644 221.032H506.644V218.258L504.874 220.394L505.644 221.032ZM486.06 223.336L485.573 224.21L485.579 224.213L486.06 223.336ZM479.916 217.128L480.79 216.642L479.916 217.128ZM479.916 198.44L480.79 198.926L479.916 198.44ZM486.06 192.232L485.579 191.355L485.573 191.359L486.06 192.232ZM505.196 194.216L504.45 194.882L506.196 196.839V194.216H505.196ZM505.196 177.512V176.512H504.196V177.512H505.196ZM502.892 214.76L503.608 215.458L503.617 215.449L502.892 214.76ZM502.892 200.872L502.167 201.561L502.176 201.57L502.892 200.872ZM490.284 200.872L491 201.57L491.009 201.561L490.284 200.872ZM490.284 214.76L489.559 215.449L489.568 215.458L490.284 214.76ZM514.18 177.512V225H516.18V177.512H514.18ZM515.18 224H505.644V226H515.18V224ZM506.644 225V221.032H504.644V225H506.644ZM504.874 220.394C502.629 223.103 499.356 224.512 494.892 224.512V226.512C499.814 226.512 503.709 224.934 506.414 221.67L504.874 220.394ZM494.892 224.512C491.804 224.512 489.028 223.823 486.541 222.459L485.579 224.213C488.383 225.75 491.494 226.512 494.892 226.512V224.512ZM486.547 222.463C484.112 221.106 482.196 219.173 480.79 216.642L479.042 217.614C480.623 220.459 482.802 222.665 485.573 224.209L486.547 222.463ZM480.79 216.642C479.391 214.124 478.676 211.181 478.676 207.784H476.676C476.676 211.469 477.454 214.756 479.042 217.614L480.79 216.642ZM478.676 207.784C478.676 204.387 479.391 201.444 480.79 198.926L479.042 197.954C477.454 200.812 476.676 204.099 476.676 207.784H478.676ZM480.79 198.926C482.196 196.395 484.112 194.462 486.547 193.105L485.573 191.359C482.802 192.903 480.623 195.109 479.042 197.954L480.79 198.926ZM486.541 193.109C489.028 191.745 491.804 191.056 494.892 191.056V189.056C491.494 189.056 488.383 189.818 485.579 191.355L486.541 193.109ZM494.892 191.056C499.059 191.056 502.2 192.36 504.45 194.882L505.942 193.55C503.243 190.525 499.515 189.056 494.892 189.056V191.056ZM506.196 194.216V177.512H504.196V194.216H506.196ZM505.196 178.512H515.18V176.512H505.196V178.512ZM496.62 218.32C499.39 218.32 501.744 217.37 503.608 215.458L502.176 214.062C500.712 215.564 498.885 216.32 496.62 216.32V218.32ZM503.617 215.449C505.492 213.478 506.388 210.887 506.388 207.784H504.388C504.388 210.484 503.62 212.544 502.167 214.071L503.617 215.449ZM506.388 207.784C506.388 204.682 505.492 202.106 503.608 200.174L502.176 201.57C503.62 203.051 504.388 205.083 504.388 207.784H506.388ZM503.617 200.183C501.755 198.226 499.398 197.248 496.62 197.248V199.248C498.877 199.248 500.701 200.02 502.167 201.561L503.617 200.183ZM496.62 197.248C493.805 197.248 491.425 198.222 489.559 200.183L491.009 201.561C492.471 200.023 494.315 199.248 496.62 199.248V197.248ZM489.568 200.174C487.684 202.106 486.788 204.682 486.788 207.784H488.788C488.788 205.083 489.556 203.051 491 201.57L489.568 200.174ZM486.788 207.784C486.788 210.887 487.684 213.478 489.559 215.449L491.009 214.071C489.556 212.544 488.788 210.484 488.788 207.784H486.788ZM489.568 215.458C491.435 217.373 493.813 218.32 496.62 218.32V216.32C494.307 216.32 492.461 215.56 491 214.062L489.568 215.458ZM523.781 223.72L524.488 223.013L523.781 223.72ZM523.781 214.824L524.461 215.557L524.468 215.55L524.475 215.544L523.781 214.824ZM532.612 214.824L531.918 215.544L531.925 215.55L531.932 215.557L532.612 214.824ZM532.612 223.72L531.905 223.013L532.612 223.72ZM528.196 224.512C526.702 224.512 525.487 224.013 524.488 223.013L523.073 224.427C524.463 225.817 526.192 226.512 528.196 226.512V224.512ZM524.488 223.013C523.493 222.018 522.989 220.785 522.989 219.24H520.989C520.989 221.279 521.679 223.033 523.073 224.427L524.488 223.013ZM522.989 219.24C522.989 217.645 523.497 216.452 524.461 215.557L523.1 214.091C521.675 215.414 520.989 217.166 520.989 219.24H522.989ZM524.475 215.544C525.472 214.582 526.691 214.096 528.196 214.096V212.096C526.204 212.096 524.478 212.762 523.086 214.104L524.475 215.544ZM528.196 214.096C529.702 214.096 530.921 214.582 531.918 215.544L533.307 214.104C531.915 212.762 530.189 212.096 528.196 212.096V214.096ZM531.932 215.557C532.896 216.452 533.404 217.645 533.404 219.24H535.404C535.404 217.166 534.718 215.414 533.293 214.091L531.932 215.557ZM533.404 219.24C533.404 220.785 532.9 222.018 531.905 223.013L533.32 224.427C534.714 223.033 535.404 221.279 535.404 219.24H533.404ZM531.905 223.013C530.906 224.013 529.691 224.512 528.196 224.512V226.512C530.201 226.512 531.93 225.817 533.32 224.427L531.905 223.013Z"
        fill="white" />
</svg>
