<svg width="331" height="109" fill="none" xmlns="http://www.w3.org/2000/svg"><path d="M330.001 13.619H38.57v6.537H330V13.62zM330.934 98.815H35.058v6.538h295.876v-6.538z" fill="#DC3D4B"/><path fill-rule="evenodd" clip-rule="evenodd" d="M116.89 31.324v25.323c0 .334.271.606.606.606h6.486a.606.606 0 00.606-.606V31.324h6.927a.606.606 0 00.606-.606v-5.783a.604.604 0 00-.606-.606h-21.471a.607.607 0 00-.606.606v5.783c0 .335.272.606.606.606h6.846zM140.342 52.423l-2.086 4.53a.571.571 0 01-.52.333h-6.388a.572.572 0 01-.52-.813l14.848-32.242a.573.573 0 01.52-.333h.984c.224 0 .427.13.52.333l14.848 32.241a.57.57 0 01-.52.813h-6.388a.573.573 0 01-.52-.334l-2.085-4.528h-12.693zm2.965-6.44h6.762l-3.381-7.34-3.381 7.34zM166.931 57.372a.667.667 0 01-.666-.666V24.945a.666.666 0 01.666-.667h11.83c9.064 0 16.422 7.415 16.422 16.547 0 9.133-7.358 16.547-16.422 16.547h-11.83zm11.83-26.09c4.855 0 8.796 4.277 8.796 9.543 0 5.267-3.941 9.543-8.796 9.543h-4.975V31.283h4.975zM201.362 57.372a.667.667 0 01-.666-.666V24.945a.666.666 0 01.666-.667h11.83c9.064 0 16.422 7.415 16.422 16.547 0 9.133-7.358 16.547-16.422 16.547h-11.83zm11.83-26.09c4.855 0 8.796 4.277 8.796 9.543 0 5.267-3.941 9.543-8.796 9.543h-4.975V31.283h4.975zM256.997 25.05a.771.771 0 00-.771-.772h-19.871a.772.772 0 00-.772.771v31.552c0 .426.346.771.772.771h19.871a.77.77 0 00.771-.77v-5.463a.77.77 0 00-.771-.77h-13.291v-6.273h10.95a.77.77 0 00.771-.77v-5.463a.77.77 0 00-.771-.77h-10.95v-5.81h13.291a.77.77 0 00.771-.771v-5.463zM270.771 24.812a.537.537 0 00-.533-.534h-6.568a.53.53 0 00-.376.157.53.53 0 00-.157.377v31.952a.53.53 0 00.533.533h6.568a.534.534 0 00.533-.533V24.812zM57.73 61.604c-.875.205-2.127.652-2.782.993-1.613.84-3.719 3.25-4.28 4.898-.977 2.867-.363 6.337 1.548 8.75 1.118 1.412 4.113 3.407 6.783 4.52 1.096.457 2.492 1.191 3.1 1.632 2.761 2 2.596 5.182-.313 6.054-1.478.443-3.227.009-6.032-1.498-1.165-.626-2.3-1.139-2.521-1.139-.457 0-3.013 4.22-3.02 4.989-.007.611 2.516 2.339 4.537 3.107.799.303 2.557.706 3.907.895 5.733.802 10.59-1.414 12.628-5.763.625-1.334.763-2.037.748-3.806-.04-4.642-2.085-7.04-8.868-10.399-3.48-1.723-4.556-2.396-5.071-3.17-.898-1.352-.83-2.236.245-3.241 1.522-1.421 4.107-1.056 7.567 1.068.99.609 1.87.957 2.17.858.6-.196 3.253-4.18 3.253-4.886 0-.67-2.867-2.457-5.292-3.3-2.414-.84-6.067-1.087-8.307-.562zM104.313 89.333a.788.788 0 01-.02 1.122 16.98 16.98 0 01-11.625 4.588c-9.394 0-17.02-7.626-17.02-17.02 0-9.394 7.626-17.02 17.02-17.02 4.458 0 8.518 1.717 11.554 4.526a.786.786 0 01.023 1.12c-.971 1.002-2.983 3.07-3.954 4.067a.79.79 0 01-1.105.027 9.328 9.328 0 00-6.285-2.43c-5.23 0-9.477 4.31-9.477 9.617 0 5.307 4.247 9.616 9.477 9.616 2.399 0 4.59-.906 6.261-2.4a.784.784 0 011.094.028c.993 1.011 3.067 3.143 4.057 4.16zM117.185 81.284h13.299v12.774a.533.533 0 00.533.533h6.567a.533.533 0 00.533-.533V62.106a.533.533 0 00-.533-.533h-6.567a.535.535 0 00-.533.533v12.262h-13.299V62.106a.533.533 0 00-.533-.533h-6.567a.533.533 0 00-.533.533v31.952a.533.533 0 00.533.533h6.567a.533.533 0 00.533-.533V81.284zM161.429 61.574c5.52.268 9.918 4.72 9.918 10.15 0 4.354-2.827 8.071-6.793 9.512 0 0 4.678 8.9 6.432 12.232a.848.848 0 01-.75 1.24h-6.594a.587.587 0 01-.518-.316c-1.021-1.996-6.542-12.763-6.542-12.763h-3.044v12.508a.57.57 0 01-.572.572h-6.386a.574.574 0 01-.573-.572V62.144c0-.315.257-.57.573-.57h14.849zm-.026 6.857c1.51.358 2.644 1.881 2.644 3.597s-1.134 3.156-2.644 3.515h-7.865V68.43h7.865zM192.271 61.045c9.391 0 17.016 7.624 17.016 17.014 0 9.391-7.625 17.015-17.016 17.015-9.389 0-17.014-7.624-17.014-17.014s7.625-17.015 17.014-17.015zm0 7.762c5.106 0 9.253 4.146 9.253 9.252 0 5.107-4.147 9.253-9.253 9.253-5.107 0-9.253-4.146-9.253-9.252 0-5.107 4.146-9.253 9.253-9.253zM236.23 62.31a.772.772 0 00-.771-.77h-19.872a.771.771 0 00-.771.77v31.552a.77.77 0 00.771.771h19.872a.772.772 0 00.771-.771V88.4a.772.772 0 00-.771-.771h-13.291v-6.272h10.95a.771.771 0 00.771-.771v-5.462a.772.772 0 00-.771-.771h-10.95v-5.81h13.291a.772.772 0 00.771-.77V62.31zM243.038 94.624a.667.667 0 01-.666-.666V62.197a.666.666 0 01.666-.667h11.831c9.063 0 16.422 7.415 16.422 16.547 0 9.133-7.359 16.547-16.422 16.547h-11.831zm11.831-26.09c4.854 0 8.795 4.276 8.795 9.543 0 5.267-3.941 9.543-8.795 9.543h-4.976V68.535h4.976zM298.545 62.338a.771.771 0 00-.771-.771h-19.872a.771.771 0 00-.771.77V93.89a.77.77 0 00.771.77h19.872a.77.77 0 00.771-.77v-5.462a.77.77 0 00-.771-.771h-13.291v-6.272h10.95a.77.77 0 00.771-.771v-5.462a.77.77 0 00-.771-.771h-10.95v-5.81h13.291a.77.77 0 00.771-.771v-5.462zM320.084 61.574c5.521.268 9.919 4.72 9.919 10.15 0 4.354-2.827 8.071-6.794 9.512 0 0 4.678 8.9 6.432 12.232a.847.847 0 01-.749 1.24h-6.595a.584.584 0 01-.517-.316l-6.542-12.763h-3.044v12.508a.572.572 0 01-.573.572h-6.386a.575.575 0 01-.573-.572V62.144c0-.315.258-.57.573-.57h14.849zm-.026 6.857c1.51.358 2.645 1.881 2.645 3.597s-1.135 3.156-2.645 3.515h-7.864V68.43h7.864z" fill="#223557"/><path fill-rule="evenodd" clip-rule="evenodd" d="M35.173 100.505a72.92 72.92 0 009.732.798c-.167 3.141 1.633 4.075 1.59 6.615-4.036-.252-8.394-.262-12.822-.219 0 0 1.373-2.024 1.263-3.072-.145-1.365-2.349-1.768-2.349-3.141 0-1.578 2.586-.981 2.586-.981zM34.15 82.047c1.96-.167 9.387-.23 11.381.195 1.9.405-1.645 5.094-1.134 6.152.586 1.214 2.848 1.688 2.907 2.996.06 1.31-2.455 3.369-2.553 4.858-.097 1.49 4.402 3.678 1.968 4.078-1.971.324-14.342-.31-14.342-1.436 0-1.353 2.216-1.033 2.493-5.542.047-.76.149-1.549.149-2.407 0-.823-2.474-1.08-2.642-1.962-.169-.882 1.63-1.911 1.63-3.332 0-1.193-2.135-3.405.143-3.6zM33.867 79.026c.774-.693 9.982-3.778 10.938-4.133 1.699-.632-3.563 4.05-.282 5.878 2.004 1.117-8.434.515-9.354.308-.619-.138-1.935-1.485-1.302-2.053zM33.81 73.906c.357-.358 5.116.224 7.067-.215 1.059-.238 2.933-1.324 3.587-.403.69.973-2.523 2.016-3.426 2.432-1.73.799-2.872.633-6.785 2.056-.76.276-2.122.32-2.096-.12.068-1.19.984-3.081 1.652-3.75zM32.25 60.949c.78-.908 6.5-1.337 9.133-1.886 1.204-.251-1.439 2.584-1.185 3.787.276 1.304 2.642 2.728 2.977 4.006.29 1.103-.984 2.7-1.083 3.528-.07.587 1.46 1.77.475 2.004-2.241.531-7.842 1.044-9.289.733-.906-.195.561-2.065.452-2.946-.109-.88-1.293-1.574-1.293-2.572 0-1.563 2.208-3.015 2.181-4.052-.026-1.036-3.385-1.422-2.368-2.602zM32.865 50.417c.475-1.134 3.367.998 4.893 1.18 1.127.133 2.643.426 3.418 1.246.775.82-.027 2.037 1.367 3.512 1.8 1.903-8.353 3.711-8.605 2.828-.226-.792-1.227-1.401-2.225-1.73-.954-.313 3.063-3.002 3.297-4.114.235-1.113-3.086-.676-2.145-2.922z" fill="#E6DFB5" stroke="#223557" stroke-width=".289" stroke-miterlimit="1.5" stroke-linecap="round" stroke-linejoin="round"/><path fill-rule="evenodd" clip-rule="evenodd" d="M34.457 33.836c2.218-2.06-3.46 9.63-3.169 11.808.138 1.035 1.882-.096 2.473.815.71 1.095-.593 2.143.144 2.553 1.194.664 1.737-.111 6.77 1.433 2.183.67 1.721-4.343.224-6.084-.662-.769 1.378-3.4 1.928-2.464 1.43 2.435 3.721 13.822 6.054 15.615.905.695-1.676-6.397-.837-6.397.708 0 3.53 14.133 6.23 16.446.566.484-.687-6.498-.536-6.934.151-.435.984 2.828 1.44 4.701.146.596 1.293-9.301-1.21-18.2-1.525-5.417-4.103-10.852-4.182-11.366-.375-2.413 14.13 10.022 18.054 10.697 1.507.259-4.096-4.787-3.55-5.025 1.604-.697 8.634 10.676 9.931 7.578 1.41-3.368-4.026-12.237-10.368-17.029-6.276-4.74-10.115-4.446-9.579-5.14.714-.924 7.236-.928 14.047-1.802 7.132-.915 14.34-1.233 17.51.314.961.469.406-1.412-.746-2.358-1.403-1.15-3.539-1.354-3.854-1.76-.322-.416 1.67-.11 1.43-.643-.496-1.105-5.734-2.728-9.348-3.266-4.258-.634-7.42-.132-7.42-.41 0-.443 3.894-.672 7.42-.442 2.132.138 4.713.98 4.549.852-1.188-.923-2.464-1.385-4.35-1.802-2.833-.627-4.9-1.207-9.223-.675-1.868.229-4.88.758-7.402 1.82-3.755 1.58-6.982 3.923-7.101 3.694-.553-1.063 6.14-7.004 11.694-11.556 3.597-2.947 7.074-3.128 7.735-4.078 1.403-2.017-7.625-1.86-10.945 0-4.326 2.424-7.952 8.07-8.851 8.07-1.14 0 4.175-5 3.511-4.775-2.17.736-5.582 2.8-8.157 5.32-2.65 2.595-3.883 4.411-4.098 4.349-.547-.16-.316-6.73 1.106-11.61.86-2.954 2.632-5.053 2.322-5.084-.385-.04-4.177 2.105-5.696 5.626-1.923 4.455-1.776 10.292-2.67 10.569-.191.06-2.247-2.918-5.372-4.97-3.1-2.036-5.67-2.613-8.736-1.752-.424.119 2.055 1.195 3.637 2.669 2.294 2.136 4.629 4.552 4.082 4.754-.395.146-6.436-6.112-9.229-7.145-1.884-.697-6.135 1.384-6.135 1.79 0 .6 3.269.174 5.384.6 1.318.267 2.297 1.218 2.095 1.32-.76.389-4.373-1.32-9.987-.59-1.227.158-4.186 1.919-3.493 2.604.198.195 8.212-.95 8.07 0-.1.665-6.253-.09-9.56 1.219-4.46 1.765-6.53 5.324-4.985 5.692.743.177 5.63-1.903 11.693-2.15 7.552-.31 13.984 1.449 17.164 3.45 1.122.706-4.572.72-9.51 3.551-8.544 4.9-14.413 11.903-13.789 13.372.197.462 3.328-3.443 8.986-5.848 5.543-2.356 13.724-3.416 14.844-2.947.837.35-7.182 5.595-9.433 11.697-.75 2.031-2.427 5.89-3.387 9.18-2.024 6.935-1.333 11.336-.435 11.336.527 0 .783-5.445 1.958-9.981 1.12-4.327 2.982-7.92 3.342-7.92.195 0-.656 2.35-1.478 5.297-1.282 4.597-2.732 10.519-1.864 10.247.838-.262 1.014-2.788 2.597-5.683 1.238-2.265 2.19-5.449 4.141-8.877 3.698-6.501 6.842-13.087 8.12-14.275z" fill="#E6DFB5" stroke="#223557" stroke-width=".289" stroke-miterlimit="1.5" stroke-linecap="round" stroke-linejoin="round"/></svg>