<svg width="421" height="102" fill="none" xmlns="http://www.w3.org/2000/svg"><path d="M419.939 53.288H.065v5.723h419.874v-5.723zM419.939 95.256H.065v5.722h419.874v-5.722z" fill="#DC3D4B"/><path fill-rule="evenodd" clip-rule="evenodd" d="M155.175 87.308c2.874.433 5.82.66 8.517.697-.146 2.75 1.43 3.568 1.391 5.791-3.531-.22-7.345-.23-11.22-.193 0 0 1.202-1.771 1.105-2.688-.127-1.195-2.056-1.547-2.056-2.748 0-1.383 2.263-.859 2.263-.859zM154.278 71.152c1.717-.146 8.217-.202 9.963.17 1.662.356-1.44 4.459-.994 5.386.514 1.062 2.494 1.477 2.545 2.622.053 1.145-2.149 2.947-2.233 4.252-.087 1.303 3.851 3.218 1.721 3.568-1.725.283-12.553-.27-12.553-1.257 0-1.184 1.94-.904 2.183-4.85.04-.665.13-1.355.13-2.107 0-.72-2.165-.945-2.313-1.717-.147-.772 1.428-1.672 1.428-2.917 0-1.043-1.869-2.98.123-3.15zM154.03 68.507c.679-.607 8.737-3.306 9.574-3.617 1.488-.552-3.118 3.543-.246 5.144 1.754.977-7.383.452-8.188.27-.542-.12-1.694-1.3-1.14-1.797zM153.981 64.026c.313-.313 4.479.197 6.185-.188.929-.207 2.568-1.159 3.141-.352.605.852-2.209 1.764-2.998 2.128-1.514.698-2.515.554-5.939 1.8-.665.242-1.857.279-1.834-.106.059-1.041.86-2.696 1.445-3.282zM152.616 52.685c.685-.793 5.69-1.17 7.993-1.65 1.056-.22-1.257 2.26-1.035 3.314.241 1.14 2.312 2.388 2.604 3.506.253.966-.86 2.364-.946 3.088-.062.514 1.277 1.55.415 1.755-1.961.465-6.864.913-8.13.64-.793-.17.491-1.807.396-2.578-.095-.77-1.133-1.377-1.133-2.25 0-1.369 1.933-2.64 1.91-3.548-.023-.906-2.963-1.243-2.074-2.277zM153.156 43.468c.415-.992 2.946.874 4.283 1.032.985.116 2.312.373 2.991 1.09.679.718-.025 1.784 1.196 3.075 1.576 1.665-7.311 3.248-7.532 2.474-.197-.693-1.073-1.226-1.947-1.512-.835-.275 2.68-2.628 2.886-3.602.206-.974-2.701-.591-1.877-2.557z" fill="#E6DFB5" stroke="#223557" stroke-width=".246" stroke-miterlimit="1.5" stroke-linecap="round" stroke-linejoin="round"/><path fill-rule="evenodd" clip-rule="evenodd" d="M154.549 28.956c1.94-1.805-3.03 8.427-2.775 10.335.121.904 1.648-.084 2.165.713.621.958-.519 1.876.125 2.235 1.046.58 1.521-.099 5.926 1.254 1.91.585 1.508-3.803.196-5.326-.579-.673 1.206-2.975 1.688-2.156 1.252 2.13 3.257 12.098 5.299 13.667.791.608-1.467-5.6-.734-5.6.619 0 3.09 12.37 5.454 14.394.494.424-.602-5.687-.47-6.067.132-.381.862 2.473 1.261 4.114.127.52 1.133-8.141-1.06-15.93-1.333-4.741-3.59-9.498-3.66-9.948-.327-2.112 12.367 8.772 15.803 9.363 1.319.226-3.586-4.191-3.109-4.399 1.405-.61 7.558 9.344 8.693 6.634 1.234-2.948-3.523-10.712-9.075-14.905-5.492-4.15-8.853-3.892-8.383-4.498.624-.81 6.333-.814 12.294-1.578 6.243-.802 12.552-1.08 15.325.275.842.41.357-1.237-.653-2.063-1.227-1.008-3.096-1.185-3.373-1.543-.281-.363 1.462-.095 1.253-.562-.435-.967-5.02-2.387-8.182-2.858-3.728-.556-6.494-.116-6.494-.359 0-.388 3.406-.587 6.494-.387 1.866.122 4.124.857 3.98.746-1.039-.809-2.156-1.212-3.805-1.577-2.48-.55-4.29-1.056-8.074-.591-1.634.2-4.272.664-6.477 1.593-3.289 1.384-6.113 3.433-6.217 3.232-.484-.928 5.374-6.13 10.235-10.114 3.15-2.578 6.192-2.736 6.771-3.568 1.227-1.765-6.674-1.628-9.579 0-3.787 2.121-6.961 7.063-7.747 7.063-.999 0 3.653-4.377 3.072-4.18-1.899.645-4.885 2.451-7.14 4.658-2.318 2.27-3.397 3.859-3.586 3.804-.478-.139-.276-5.888.968-10.161.754-2.585 2.305-4.421 2.033-4.45-.338-.033-3.657 1.843-4.986 4.925-1.683 3.898-1.555 9.007-2.336 9.25-.168.053-1.967-2.554-4.702-4.35-2.714-1.78-4.963-2.287-7.647-1.533-.371.104 1.8 1.047 3.184 2.336 2.008 1.87 4.051 3.983 3.573 4.16-.346.13-5.635-5.349-8.077-6.253-1.65-.608-5.371 1.212-5.371 1.567 0 .526 2.861.153 4.713.526 1.154.234 2.01 1.066 1.834 1.155-.666.34-3.828-1.155-8.742-.517-1.074.14-3.663 1.68-3.056 2.28.172.17 7.187-.832 7.062 0-.088.581-5.473-.08-8.367 1.065-3.904 1.546-5.716 4.66-4.363 4.984.65.155 4.927-1.667 10.235-1.884 6.609-.269 12.238 1.268 15.022 3.02.981.62-4.003.631-8.324 3.11-7.477 4.287-12.614 10.417-12.069 11.703.172.404 2.912-3.014 7.866-5.12 4.851-2.06 12.012-2.99 12.991-2.578.734.306-6.285 4.896-8.255 10.237-.657 1.778-2.124 5.155-2.965 8.034-1.771 6.072-1.166 9.922-.381 9.922.46 0 .685-4.764 1.714-8.735.98-3.787 2.61-6.93 2.925-6.93.17 0-.573 2.055-1.293 4.635-1.124 4.023-2.391 9.206-1.632 8.969.734-.23.887-2.441 2.272-4.975 1.085-1.982 1.917-4.768 3.625-7.77 3.238-5.69 5.988-11.454 7.108-12.493z" fill="#E6DFB5" stroke="#223557" stroke-width=".246" stroke-miterlimit="1.5" stroke-linecap="round" stroke-linejoin="round"/><path fill-rule="evenodd" clip-rule="evenodd" d="M7.41 68.463v22.162a.53.53 0 00.53.531h5.677a.53.53 0 00.531-.53V68.462h6.062a.53.53 0 00.531-.531v-5.061a.525.525 0 00-.156-.375.526.526 0 00-.375-.156H1.42a.533.533 0 00-.532.53v5.062a.53.53 0 00.531.531h5.992zM27.936 86.929l-1.826 3.964a.5.5 0 01-.455.291h-5.59a.5.5 0 01-.456-.71l12.996-28.22a.498.498 0 01.455-.29h.86c.197 0 .375.112.456.29l12.996 28.22a.502.502 0 01-.456.71h-5.59a.502.502 0 01-.456-.291l-1.825-3.964h-11.11zm2.595-5.635h5.918l-2.958-6.426-2.96 6.426zM51.21 91.26a.579.579 0 01-.585-.582V62.88a.586.586 0 01.584-.584h10.353c7.933 0 14.373 6.489 14.373 14.482 0 7.993-6.44 14.482-14.373 14.482H51.21zm10.352-22.834c4.25 0 7.7 3.742 7.7 8.352 0 4.611-3.45 8.353-7.7 8.353h-4.354V68.426h4.354zM81.345 91.26a.579.579 0 01-.584-.582V62.88a.586.586 0 01.584-.584h10.353c7.933 0 14.373 6.489 14.373 14.482 0 7.993-6.44 14.482-14.373 14.482H81.345zm10.353-22.834c4.249 0 7.7 3.742 7.7 8.352 0 4.611-3.451 8.353-7.7 8.353h-4.354V68.426h4.354zM130.038 62.97a.676.676 0 00-.676-.674H111.97a.676.676 0 00-.676.675v27.616c0 .372.303.673.676.673h17.392c.373 0 .676-.3.676-.673v-4.782a.674.674 0 00-.676-.674h-11.633v-5.49h9.585a.676.676 0 00.675-.675v-4.78a.676.676 0 00-.675-.676h-9.585v-5.084h11.633a.676.676 0 00.676-.675v-4.78zM142.093 62.762a.462.462 0 00-.466-.466h-5.747a.467.467 0 00-.468.466v27.967a.464.464 0 00.468.466h5.747a.467.467 0 00.466-.466V62.762zM180.92 62.785c-.765.18-1.861.57-2.434.869-1.412.736-3.255 2.845-3.746 4.287-.856 2.51-.318 5.547 1.354 7.659.978 1.235 3.6 2.983 5.937 3.955.96.4 2.181 1.043 2.714 1.428 2.416 1.752 2.272 4.537-.275 5.3-1.294.387-2.824.008-5.279-1.311-1.02-.55-2.014-.997-2.207-.997-.399 0-2.636 3.694-2.643 4.366-.005.535 2.202 2.047 3.971 2.719.7.266 2.238.619 3.42.784 5.018.702 9.268-1.238 11.051-5.043.549-1.168.669-1.784.656-3.333-.037-4.062-1.825-6.16-7.762-9.1-3.046-1.51-3.987-2.099-4.439-2.776-.784-1.182-.726-1.957.216-2.837 1.332-1.243 3.595-.923 6.622.936.867.533 1.637.837 1.899.75.526-.172 2.847-3.659 2.847-4.276 0-.586-2.508-2.15-4.63-2.89-2.114-.733-5.311-.95-7.272-.49zM221.692 87.055a.693.693 0 01-.018.982 14.86 14.86 0 01-10.175 4.016c-8.222 0-14.898-6.675-14.898-14.897 0-8.223 6.676-14.897 14.898-14.897a14.85 14.85 0 0110.114 3.962.685.685 0 01.019.98c-.85.877-2.612 2.687-3.461 3.56a.692.692 0 01-.967.024 8.165 8.165 0 00-5.501-2.128c-4.578 0-8.294 3.772-8.294 8.417 0 4.646 3.716 8.416 8.294 8.416a8.197 8.197 0 005.48-2.1.686.686 0 01.958.025c.869.885 2.684 2.75 3.551 3.64zM232.957 80.01h11.641v11.182a.464.464 0 00.466.466h5.749a.469.469 0 00.466-.466V63.224a.465.465 0 00-.466-.465h-5.749a.462.462 0 00-.329.137.461.461 0 00-.137.328v10.733h-11.641V63.225a.468.468 0 00-.466-.467h-5.747a.464.464 0 00-.33.138.462.462 0 00-.138.328v27.968c0 .123.05.24.138.329a.464.464 0 00.33.137h5.747a.467.467 0 00.466-.466V80.01zM271.68 62.76c4.833.234 8.683 4.131 8.683 8.883 0 3.811-2.475 7.064-5.948 8.325l5.629 10.707a.739.739 0 01-.656 1.085h-5.77a.51.51 0 01-.452-.276l-5.727-11.17h-2.665V91.26a.502.502 0 01-.499.499h-5.591a.5.5 0 01-.499-.5V63.258c0-.276.223-.5.499-.5h12.996v.002zm-.022 6c1.324.314 2.314 1.647 2.314 3.149 0 1.501-.99 2.762-2.314 3.077h-6.884v-6.225h6.884zM298.677 62.296c8.22 0 14.892 6.672 14.892 14.892 0 8.218-6.672 14.892-14.892 14.892-8.22 0-14.892-6.674-14.892-14.892 0-8.22 6.672-14.892 14.892-14.892zm0 6.793a8.103 8.103 0 018.099 8.099c0 4.468-3.63 8.098-8.099 8.098a8.102 8.102 0 01-8.098-8.098 8.101 8.101 0 018.098-8.099zM337.15 63.404c0-.373-.3-.676-.673-.676h-17.393a.675.675 0 00-.675.676v27.615c0 .373.302.676.675.676h17.393a.673.673 0 00.673-.676v-4.781c0-.371-.3-.674-.673-.674h-11.633v-5.49h9.584a.676.676 0 00.674-.676v-4.78a.675.675 0 00-.674-.675h-9.584V68.86h11.633a.673.673 0 00.673-.675v-4.78zM343.109 91.686a.586.586 0 01-.583-.584V63.303a.582.582 0 01.583-.582h10.354c7.933 0 14.374 6.49 14.374 14.483s-6.441 14.482-14.374 14.482h-10.354zm10.354-22.834c4.249 0 7.698 3.742 7.698 8.352 0 4.609-3.449 8.351-7.698 8.351h-4.354V68.852h4.354zM391.692 63.428a.675.675 0 00-.675-.675h-17.391a.675.675 0 00-.675.675v27.616c0 .373.302.674.675.674h17.391c.373 0 .675-.301.675-.674v-4.782a.674.674 0 00-.675-.673h-11.633v-5.49h9.584a.675.675 0 00.675-.676v-4.78a.675.675 0 00-.675-.675h-9.584v-5.084h11.633a.675.675 0 00.675-.676v-4.78zM410.543 62.76c4.833.234 8.682 4.131 8.682 8.883 0 3.811-2.474 7.064-5.947 8.325l5.629 10.707a.742.742 0 01-.656 1.085h-5.77a.509.509 0 01-.452-.276l-5.728-11.17h-2.664V91.26a.506.506 0 01-.146.353.506.506 0 01-.354.146h-5.59a.506.506 0 01-.354-.146.506.506 0 01-.146-.354V63.258a.5.5 0 01.5-.5h12.996v.002zm-.021 6c1.322.314 2.312 1.647 2.312 3.149 0 1.501-.99 2.762-2.312 3.077h-6.885v-6.225h6.885z" fill="#223557"/></svg>